<svg height='100%' width='100%'  fill="#000000" xmlns="http://www.w3.org/2000/svg" viewBox="0 0 64 64" x="0px" y="0px"><g data-name="Business Card"><path d="M59,14H23a3,3,0,0,0-3,3v9H17a1,1,0,0,0-.707.293L12,30.586V30a1,1,0,0,0-1-1H3a1,1,0,0,0-1,1V48a1,1,0,0,0,1,1h8a1,1,0,0,0,1-1H23a1,1,0,0,0,.5-.134L30.194,44H59a3,3,0,0,0,3-3V17A3,3,0,0,0,59,14ZM10,47H4V31h6Zm50-6a1,1,0,0,1-1,1H33.657l1.96-1.132a4.995,4.995,0,0,0,1.84-6.826A5.019,5.019,0,0,0,30.62,32.2l-8.12,4.69,1,1.731,8.116-4.687a3.041,3.041,0,0,1,1.5-.4,3,3,0,0,1,2.9,3.781,2.974,2.974,0,0,1-1.4,1.813L22.732,46H12V33.414L17.414,28H20v9h2V17a1,1,0,0,1,1-1H59a1,1,0,0,1,1,1Z"></path><path d="M32,18a6,6,0,1,0,6,6A6.006,6.006,0,0,0,32,18Zm0,10a4,4,0,1,1,4-4A4,4,0,0,1,32,28Z"></path><rect x="46" y="20" width="10" height="2"></rect><rect x="42" y="20" width="2" height="2"></rect><rect x="42" y="24" width="14" height="2"></rect><rect x="40" y="32" width="6" height="2"></rect><rect x="48" y="32" width="8" height="2"></rect><rect x="40" y="36" width="16" height="2"></rect></g></svg>
