<?xml version="1.0" encoding="UTF-8" standalone="no"?>
<!DOCTYPE svg PUBLIC "-//W3C//DTD SVG 1.1//EN" "http://www.w3.org/Graphics/SVG/1.1/DTD/svg11.dtd">
<svg width="100%" height="100%" viewBox="0 0 170 116" version="1.1" xmlns="http://www.w3.org/2000/svg" xmlns:xlink="http://www.w3.org/1999/xlink" xml:space="preserve" xmlns:serif="http://www.serif.com/" style="fill-rule:evenodd;clip-rule:evenodd;stroke-linejoin:round;stroke-miterlimit:1.41421;">
    <g transform="matrix(1,0,0,1,-369.482,-1856.49)">
        <g transform="matrix(0.977597,0,0,1.5562,43.0143,-887.089)">
            <g transform="matrix(0.894737,0,0,0.894737,-371.49,163.47)">
                <g transform="matrix(3.05588,0,0,1.91969,1512.07,1067.06)">
                    <path d="M-177.1,375.4L-232.9,375.4C-235,375.4 -236.8,377.1 -236.8,379.3L-236.8,414.8C-236.8,416.9 -235.1,418.7 -232.9,418.7L-177.1,418.7C-175,418.7 -173.2,417 -173.2,414.8L-173.2,379.3C-173.2,377.1 -175,375.4 -177.1,375.4ZM-176.2,414.8C-176.2,415.3 -176.6,415.7 -177.1,415.7L-232.9,415.7C-233.4,415.7 -233.8,415.3 -233.8,414.8L-233.8,379.3C-233.8,378.8 -233.4,378.4 -232.9,378.4L-177.1,378.4C-176.6,378.4 -176.2,378.8 -176.2,379.3L-176.2,414.8Z" style="fill:white;fill-rule:nonzero;"/>
                </g>
                <g transform="matrix(3.05588,0,0,1.91969,1512.07,1067.06)">
                    <rect x="-208.2" y="384" width="25.8" height="3" style="fill:white;"/>
                </g>
                <g transform="matrix(3.05588,0,0,1.91969,1512.07,1067.06)">
                    <rect x="-208.2" y="391.3" width="25.8" height="3" style="fill:white;"/>
                </g>
                <g transform="matrix(3.05588,0,0,1.91969,1512.07,1067.06)">
                    <rect x="-208.2" y="398.6" width="25.8" height="3" style="fill:white;"/>
                </g>
                <g transform="matrix(3.05588,0,0,1.91969,1512.07,1067.06)">
                    <rect x="-227.2" y="405.9" width="44.8" height="3" style="fill:white;"/>
                </g>
                <g transform="matrix(3.05588,0,0,1.91969,1512.07,1067.06)">
                    <circle cx="-221" cy="389.1" r="3.3" style="fill:white;"/>
                </g>
                <g transform="matrix(3.05588,0,0,1.91969,1512.07,1067.06)">
                    <path d="M-216.4,396C-216.4,394.9 -218,393.9 -219.9,393.9L-221.9,393.9C-223.8,393.9 -225.4,394.8 -225.4,396L-225.4,399.4L-216.5,399.4L-216.5,396L-216.4,396Z" style="fill:white;fill-rule:nonzero;"/>
                </g>
            </g>
        </g>
    </g>
</svg>
