<?xml version="1.0" encoding="UTF-8" standalone="no"?>
<!DOCTYPE svg PUBLIC "-//W3C//DTD SVG 1.1//EN" "http://www.w3.org/Graphics/SVG/1.1/DTD/svg11.dtd">
<svg width="100%" height="100%" viewBox="0 0 81 80" version="1.1" xmlns="http://www.w3.org/2000/svg" xmlns:xlink="http://www.w3.org/1999/xlink" xml:space="preserve" xmlns:serif="http://www.serif.com/" style="fill-rule:evenodd;clip-rule:evenodd;stroke-linejoin:round;stroke-miterlimit:1.41421;">
    <g transform="matrix(1,0,0,1,-8,-8.00004)">
        <path d="M14,76C10.708,76 8,78.708 8,82C8,85.292 10.708,88 14,88C17.292,88 20,85.292 20,82C19.996,78.71 17.29,76.004 14,76ZM14,84C12.903,84 12,83.097 12,82C12,80.903 12.903,80 14,80C15.097,80 16,80.903 16,82C15.999,83.097 15.097,83.999 14,84Z" style="fill:white;fill-rule:nonzero;"/>
        <path d="M28,65C23.611,65 20,67.611 20,72C20,76.389 23.611,79 28,79C32.389,79 35,76.389 35,72C34.996,67.613 32.387,65.004 28,65ZM28,75C25.806,75 25,74.194 25,72C25,69.806 25.806,69 28,69C30.194,69 31,69.806 31,72C30.997,74.193 30.193,74.997 28,75Z" style="fill:white;fill-rule:nonzero;"/>
        <path d="M82.934,35.252C83.636,33.59 83.999,31.804 84,30C83.991,22.323 77.677,16.009 70,16C68.914,16 67.831,16.13 66.775,16.387C64.574,11.305 59.54,8 54.002,8C49.168,8 44.668,10.518 42.139,14.637C39.775,12.916 36.924,11.992 34,12C27.028,12.009 22.068,17.217 21.125,24.125C14.212,25.058 9.998,31.023 9.998,37.999C9.998,45.453 14.951,51.667 22.398,51.986C25.238,57.889 30.838,62.07 37.225,60.613C39.415,65.693 44.441,68 49.973,68C53.709,68 57.291,66.492 59.902,63.82C60.595,63.938 61.297,63.998 62,64C65.726,63.991 69.297,62.484 71.902,59.82C72.595,59.938 73.297,59.998 74,60C74.007,60 74.014,60 74.021,60C81.69,60 88,53.69 88,46.021C88,41.858 86.141,37.906 82.934,35.252ZM74,56C73.209,55.99 72.422,55.886 71.656,55.69C70.917,55.505 70.133,55.764 69.65,56.354C67.276,59.338 63.347,60.65 59.656,59.69C58.917,59.504 58.133,59.764 57.65,60.354C55.771,62.66 52.949,64.001 49.974,64.001C45.483,64.001 41.527,61.945 40.393,57.6C40.158,56.731 39.363,56.122 38.463,56.122C38.208,56.121 37.955,56.17 37.719,56.266C36.555,56.72 35.317,56.952 34.069,56.952C29.827,56.952 27.022,53.267 25.602,49.27C25.299,48.43 24.476,47.884 23.584,47.932C23.533,47.936 23.049,47.995 23,48.001C17.514,48.001 14,43.486 14,38.001C14,32.515 17.514,28.001 23,28.001C23,28.001 23.001,28.001 23.001,28.001C24.098,28.001 25,27.098 25,26.002C25,26.001 25,26.001 25,26.001C25.006,20.517 28.516,16.006 34,16C36.78,16 39.436,17.172 41.309,19.227C41.687,19.635 42.219,19.867 42.776,19.867C43.612,19.867 44.363,19.343 44.652,18.559C46.072,14.632 49.823,12 53.999,12C58.496,12 62.459,15.052 63.607,19.4C63.755,19.952 64.133,20.414 64.644,20.668C65.154,20.927 65.752,20.951 66.281,20.734C67.474,20.249 68.749,20 70.036,20C75.502,20 80,24.497 80,29.964C80,29.976 80,29.988 80,30C79.989,31.72 79.527,33.408 78.66,34.895C78.138,35.817 78.435,37.003 79.33,37.57C82.233,39.395 83.999,42.592 83.999,46.02C83.999,51.495 79.494,56 74.019,56C74.013,56 74.006,56 74,56Z" style="fill:white;fill-rule:nonzero;"/>
    </g>
</svg>
