<?xml version="1.0" encoding="UTF-8" standalone="no"?>
<!DOCTYPE svg PUBLIC "-//W3C//DTD SVG 1.1//EN" "http://www.w3.org/Graphics/SVG/1.1/DTD/svg11.dtd">
<svg width="100%" height="100%" viewBox="0 0 60 48" version="1.1" xmlns="http://www.w3.org/2000/svg" xmlns:xlink="http://www.w3.org/1999/xlink" xml:space="preserve" xmlns:serif="http://www.serif.com/" style="fill-rule:evenodd;clip-rule:evenodd;stroke-linejoin:round;stroke-miterlimit:2;">
    <g transform="matrix(1,0,0,1,-2,-4)">
        <path d="M59,12L42,12L42,7C42,5.354 40.646,4 39,4L25,4C23.354,4 22,5.354 22,7L22,12L5,12C3.354,12 2,13.354 2,15L2,41C2.005,44.838 5.162,47.995 9,48L55,48C58.838,47.995 61.995,44.838 62,41L62,15C62,13.354 60.646,12 59,12ZM24,7C24,6.451 24.451,6 25,6L39,6C39.549,6 40,6.451 40,7L40,12L39,12L39,9C39,7.903 38.097,7 37,7L27,7C25.903,7 25,7.903 25,9L25,12L24,12L24,7ZM37,12L27,12L27,9L37,9L37,12ZM54,14L54,26C54,27.646 52.646,29 51,29L47,29L47,27C47,26.451 46.549,26 46,26L42,26C41.451,26 41,26.451 41,27L41,29L23,29L23,27C23,26.451 22.549,26 22,26L18,26C17.451,26 17,26.451 17,27L17,29L13,29C11.354,29 10,27.646 10,26L10,14L54,14ZM43,34L43,28L45,28L45,34L43,34ZM19,34L19,28L21,28L21,34L19,34ZM60,41C59.997,43.742 57.742,45.997 55,46L9,46C6.258,45.997 4.003,43.742 4,41L4,15C4,14.451 4.451,14 5,14L8,14L8,26C8.003,28.742 10.258,30.997 13,31L17,31L17,35C17,35.549 17.451,36 18,36L22,36C22.549,36 23,35.549 23,35L23,31L41,31L41,35C41,35.549 41.451,36 42,36L46,36C46.549,36 47,35.549 47,35L47,31L51,31C53.742,30.997 55.997,28.742 56,26L56,14L59,14C59.549,14 60,14.451 60,15L60,41Z" style="fill-rule:nonzero;"/>
    </g>
    <g transform="matrix(1,0,0,1,-2,-4)">
        <rect x="8" y="31" width="2" height="2"/>
    </g>
    <g transform="matrix(1,0,0,1,-2,-4)">
        <rect x="8" y="35" width="2" height="2"/>
    </g>
    <g transform="matrix(1,0,0,1,-2,-20)">
        <path d="M10,55L8,55L8,56C8,57.097 8.903,58 10,58L11,58L11,56L10,56L10,55Z" style="fill-rule:nonzero;"/>
    </g>
    <g transform="matrix(1,0,0,1,-2,-4)">
        <rect x="54" y="31" width="2" height="2"/>
    </g>
    <g transform="matrix(1,0,0,1,-2,-4)">
        <rect x="54" y="35" width="2" height="2"/>
    </g>
    <g transform="matrix(1,0,0,1,-2,-20)">
        <path d="M54,56L53,56L53,58L54,58C55.097,58 56,57.097 56,56L56,55L54,55L54,56Z" style="fill-rule:nonzero;"/>
    </g>
    <g transform="matrix(1,0,0,1,-2,-20)">
        <rect x="13" y="56" width="2" height="2"/>
    </g>
    <g transform="matrix(1,0,0,1,-2,-20)">
        <rect x="17" y="56" width="2" height="2"/>
    </g>
    <g transform="matrix(1,0,0,1,-2,-20)">
        <rect x="21" y="56" width="2" height="2"/>
    </g>
    <g transform="matrix(1,0,0,1,-2,-20)">
        <rect x="25" y="56" width="2" height="2"/>
    </g>
    <g transform="matrix(1,0,0,1,-2,-20)">
        <rect x="29" y="56" width="2" height="2"/>
    </g>
    <g transform="matrix(1,0,0,1,-2,-20)">
        <rect x="33" y="56" width="2" height="2"/>
    </g>
    <g transform="matrix(1,0,0,1,-2,-20)">
        <rect x="37" y="56" width="2" height="2"/>
    </g>
    <g transform="matrix(1,0,0,1,-2,-20)">
        <rect x="41" y="56" width="2" height="2"/>
    </g>
    <g transform="matrix(1,0,0,1,-2,-20)">
        <rect x="45" y="56" width="2" height="2"/>
    </g>
    <g transform="matrix(1,0,0,1,-2,-20)">
        <rect x="49" y="56" width="2" height="2"/>
    </g>
</svg>
