<?xml version="1.0" encoding="UTF-8" standalone="no"?>
<!DOCTYPE svg PUBLIC "-//W3C//DTD SVG 1.1//EN" "http://www.w3.org/Graphics/SVG/1.1/DTD/svg11.dtd">
<svg width="100%" height="100%" viewBox="0 0 170 143" version="1.1" xmlns="http://www.w3.org/2000/svg" xmlns:xlink="http://www.w3.org/1999/xlink" xml:space="preserve" xmlns:serif="http://www.serif.com/" style="fill-rule:evenodd;clip-rule:evenodd;stroke-linejoin:round;stroke-miterlimit:1.41421;">
    <g transform="matrix(1,0,0,1,-1365.51,-1842.86)">
        <g transform="matrix(0.977597,0,0,1.5562,43.0143,-887.089)">
            <g transform="matrix(1.93218,0,0,1.21379,1343.15,1739.56)">
                <path d="M90,26.6L66.6,26.6L66.6,19.1C66.6,15.2 63.5,12.1 59.6,12.1L40.4,12.1C36.5,12.1 33.4,15.2 33.4,19.1L33.4,26.6L10,26.6C7.2,26.6 5,28.8 5,31.6L5,82.8C5,85.6 7.2,87.8 10,87.8L90,87.8C92.8,87.8 95,85.6 95,82.8L95,46.8L95,42.8L95,31.6C95,28.9 92.8,26.6 90,26.6ZM37.4,19.1C37.4,17.4 38.7,16.1 40.4,16.1L59.6,16.1C61.3,16.1 62.6,17.4 62.6,19.1L62.6,26.6L37.4,26.6L37.4,19.1ZM10,83.9C9.5,83.9 9,83.4 9,82.9L9,46.9L17,46.9L17,83.9L10,83.9ZM21,83.9L21,46.9L42.5,46.9L42.5,49.4C42.5,51.6 44.3,53.4 46.5,53.4L53.5,53.4C55.7,53.4 57.5,51.6 57.5,49.4L57.5,46.9L79,46.9L79,83.9L21,83.9ZM46.5,49.4L46.5,40.4L53.5,40.4L53.5,49.4L46.5,49.4ZM91,82.9C91,83.4 90.5,83.9 90,83.9L83,83.9L83,46.9L91,46.9L91,82.9ZM91,42.9L57.5,42.9L57.5,40.4C57.5,38.2 55.7,36.4 53.5,36.4L46.5,36.4C44.3,36.4 42.5,38.2 42.5,40.4L42.5,42.9L9,42.9L9,31.6C9,31.1 9.5,30.6 10,30.6L90,30.6C90.5,30.6 91,31.1 91,31.6L91,42.9Z" style="fill:white;fill-rule:nonzero;"/>
            </g>
        </g>
    </g>
</svg>
