<svg viewBox="0 0 430 861" fill="none" xmlns="http://www.w3.org/2000/svg" class="frame">
<path fill-rule="evenodd" clip-rule="evenodd" d="M2.11731 222.674C1.42898 222.853 0.603569 223.31 0.162832 223.961C0.0720509 224.095 0.000244141 224.518 0.000244141 224.641C0.000244141 230.789 0.000244141 249.514 0.000244141 280.818C0.000244141 280.949 0.101315 281.609 0.1632 281.769C0.519856 282.693 1.13955 282.916 2.11731 283.45H3.32706C3.32706 281.768 3.34743 224.319 3.32706 222.674H2.11731Z" fill="white"/>
<path fill-rule="evenodd" clip-rule="evenodd" d="M2.11731 302.201C1.42898 302.379 0.603569 302.837 0.162832 303.487C0.0720509 303.621 0.000244141 304.045 0.000244141 304.168C0.000244141 310.316 0.000244141 329.041 0.000244141 360.345C0.000244141 360.475 0.101315 361.136 0.1632 361.296C0.519856 362.22 1.13955 362.443 2.11731 362.977H3.32706C3.32706 361.294 3.34743 303.845 3.32706 302.201H2.11731Z" fill="white"/>
<path fill-rule="evenodd" clip-rule="evenodd" d="M2.11731 161.898C0.948085 161.898 0.000244141 162.932 0.000244141 164.207V192.564C0.000244141 193.839 0.948085 194.873 2.11731 194.873H3.32706C3.32706 193.138 3.34743 163.594 3.32706 161.898H2.11731Z" fill="white"/>
<path fill-rule="evenodd" clip-rule="evenodd" d="M426.974 255.325C428.143 255.325 429.091 258.415 429.091 262.227V347.022C429.091 350.834 428.143 353.924 426.974 353.924H425.764C425.764 348.738 425.744 260.395 425.764 255.325H426.974Z" fill="white"/>
<mask id="path-5-inside-1_196_332" fill="white">
<path fill-rule="evenodd" clip-rule="evenodd" d="M3.12085 73.8095C3.12085 23.992 26.3183 0 76.9017 0H352.328C402.912 0 426.109 23.992 426.109 73.8095V787.19C426.109 835.316 401.263 861 352.328 861H76.9017C26.3183 861 3.12085 837.008 3.12085 787.19V73.8095ZM133.401 53.0247C117.137 53.0247 110.068 41.2797 110.068 31.6738C110.068 27.3853 110.068 23 102.401 23H70.4012C43.3795 23 27.0679 39.3251 27.0679 66.3689V791.631C27.0679 818.675 43.3795 835 70.4012 835H358.735C385.756 835 402.068 818.675 402.068 791.631V66.3689C402.068 39.3251 385.756 23 358.735 23H326.401C318.735 23 318.735 27.3853 318.735 32.0074C318.735 41.2797 311.666 53.0247 295.401 53.0247H133.401Z"/>
</mask>
<path fill-rule="evenodd" clip-rule="evenodd" d="M3.12085 73.8095C3.12085 23.992 26.3183 0 76.9017 0H352.328C402.912 0 426.109 23.992 426.109 73.8095V787.19C426.109 835.316 401.263 861 352.328 861H76.9017C26.3183 861 3.12085 837.008 3.12085 787.19V73.8095ZM133.401 53.0247C117.137 53.0247 110.068 41.2797 110.068 31.6738C110.068 27.3853 110.068 23 102.401 23H70.4012C43.3795 23 27.0679 39.3251 27.0679 66.3689V791.631C27.0679 818.675 43.3795 835 70.4012 835H358.735C385.756 835 402.068 818.675 402.068 791.631V66.3689C402.068 39.3251 385.756 23 358.735 23H326.401C318.735 23 318.735 27.3853 318.735 32.0074C318.735 41.2797 311.666 53.0247 295.401 53.0247H133.401Z" fill="black"/>
<path d="M76.9017 -2C51.3287 -2 32.2666 4.06335 19.6223 16.815C6.98125 29.5634 1.12085 48.628 1.12085 73.8095H5.12085C5.12085 49.1736 10.8592 31.3334 22.4627 19.6314C34.063 7.93266 51.8914 2 76.9017 2V-2ZM352.328 -2H76.9017V2H352.328V-2ZM428.109 73.8095C428.109 48.628 422.249 29.5634 409.608 16.815C396.963 4.06335 377.901 -2 352.328 -2V2C377.339 2 395.167 7.93266 406.767 19.6314C418.371 31.3334 424.109 49.1736 424.109 73.8095H428.109ZM428.109 787.19V73.8095H424.109V787.19H428.109ZM352.328 863C377.129 863 396.165 856.488 408.989 843.551C421.811 830.616 428.109 811.578 428.109 787.19H424.109C424.109 810.929 417.984 828.795 406.149 840.734C394.317 852.67 376.462 859 352.328 859V863ZM76.9017 863H352.328V859H76.9017V863ZM1.12085 787.19C1.12085 812.372 6.98125 831.437 19.6223 844.185C32.2666 856.937 51.3287 863 76.9017 863V859C51.8914 859 34.063 853.067 22.4627 841.369C10.8592 829.667 5.12085 811.826 5.12085 787.19H1.12085ZM1.12085 73.8095V787.19H5.12085V73.8095H1.12085ZM108.068 31.6738C108.068 36.938 109.997 42.7701 114.162 47.3044C118.366 51.8807 124.747 55.0247 133.401 55.0247V51.0247C125.791 51.0247 120.505 48.2961 117.108 44.5984C113.673 40.8588 112.068 36.0154 112.068 31.6738H108.068ZM102.401 25C105.868 25 106.931 25.9675 107.385 26.7413C108.013 27.8112 108.068 29.3675 108.068 31.6738H112.068C112.068 29.6916 112.123 26.911 110.834 24.7161C109.372 22.2251 106.601 21 102.401 21V25ZM70.4012 25H102.401V21H70.4012V25ZM29.0679 66.3689C29.0679 53.2506 33.0161 42.9625 40.0162 35.9566C47.0161 28.951 57.2949 25 70.4012 25V21C56.4858 21 45.098 25.2115 37.1866 33.1294C29.2754 41.0471 25.0679 52.4434 25.0679 66.3689H29.0679ZM29.0679 791.631V66.3689H25.0679V791.631H29.0679ZM70.4012 833C57.2949 833 47.0161 829.049 40.0162 822.043C33.0161 815.038 29.0679 804.749 29.0679 791.631H25.0679C25.0679 805.557 29.2754 816.953 37.1866 824.871C45.098 832.788 56.4858 837 70.4012 837V833ZM358.735 833H70.4012V837H358.735V833ZM400.068 791.631C400.068 804.749 396.12 815.038 389.12 822.043C382.12 829.049 371.841 833 358.735 833V837C372.65 837 384.038 832.788 391.949 824.871C399.86 816.953 404.068 805.557 404.068 791.631H400.068ZM400.068 66.3689V791.631H404.068V66.3689H400.068ZM358.735 25C371.841 25 382.12 28.951 389.12 35.9566C396.12 42.9625 400.068 53.2506 400.068 66.3689H404.068C404.068 52.4434 399.86 41.0471 391.949 33.1294C384.038 25.2115 372.65 21 358.735 21V25ZM326.401 25H358.735V21H326.401V25ZM320.735 32.0074C320.735 30.8271 320.737 29.8031 320.842 28.8744C320.946 27.9529 321.138 27.2718 321.429 26.764C321.886 25.9651 322.936 25 326.401 25V21C322.199 21 319.416 22.2275 317.957 24.7768C317.29 25.9431 317.002 27.225 316.867 28.4257C316.732 29.6191 316.735 30.8767 316.735 32.0074H320.735ZM295.401 55.0247C312.909 55.0247 320.735 42.2408 320.735 32.0074H316.735C316.735 40.3185 310.423 51.0247 295.401 51.0247V55.0247ZM133.401 55.0247H295.401V51.0247H133.401V55.0247Z" fill="white" mask="url(#path-5-inside-1_196_332)"/>
<mask id="path-7-inside-2_196_332" fill="white">
<path fill-rule="evenodd" clip-rule="evenodd" d="M7.78955 74.0858C7.78955 26.3965 29.3484 4.67181 77.2315 4.67181H352.663C400.546 4.67181 422.104 26.3965 422.104 74.0858V786.914C422.104 832.924 398.886 856.328 352.663 856.328H77.2315C29.3484 856.328 7.78955 834.603 7.78955 786.914V74.0858ZM133.401 53.0247C117.137 53.0247 110.068 41.2797 110.068 31.6738C110.068 27.3853 110.068 23 102.401 23H70.4012C43.3795 23 27.0679 39.3251 27.0679 66.3689V791.631C27.0679 818.675 43.3795 835 70.4012 835H358.735C385.756 835 402.068 818.675 402.068 791.631V66.3689C402.068 39.3251 385.756 23 358.735 23H326.401C318.735 23 318.735 27.3853 318.735 32.0074C318.735 41.2797 311.666 53.0247 295.401 53.0247H133.401Z"/>
</mask>
<path fill-rule="evenodd" clip-rule="evenodd" d="M7.78955 74.0858C7.78955 26.3965 29.3484 4.67181 77.2315 4.67181H352.663C400.546 4.67181 422.104 26.3965 422.104 74.0858V786.914C422.104 832.924 398.886 856.328 352.663 856.328H77.2315C29.3484 856.328 7.78955 834.603 7.78955 786.914V74.0858ZM133.401 53.0247C117.137 53.0247 110.068 41.2797 110.068 31.6738C110.068 27.3853 110.068 23 102.401 23H70.4012C43.3795 23 27.0679 39.3251 27.0679 66.3689V791.631C27.0679 818.675 43.3795 835 70.4012 835H358.735C385.756 835 402.068 818.675 402.068 791.631V66.3689C402.068 39.3251 385.756 23 358.735 23H326.401C318.735 23 318.735 27.3853 318.735 32.0074C318.735 41.2797 311.666 53.0247 295.401 53.0247H133.401Z" fill="black"/>
<path d="M77.2315 2.67181C53.0307 2.67181 35.0454 8.1578 23.1391 20.0822C11.2333 32.006 5.78955 49.9834 5.78955 74.0858H9.78955C9.78955 50.4989 15.1252 33.7693 25.9697 22.9085C36.8135 12.0482 53.5493 6.67181 77.2315 6.67181V2.67181ZM352.663 2.67181H77.2315V6.67181H352.663V2.67181ZM424.104 74.0858C424.104 49.9834 418.661 32.006 406.755 20.0822C394.849 8.1578 376.863 2.67181 352.663 2.67181V6.67181C376.345 6.67181 393.081 12.0482 403.924 22.9085C414.769 33.7693 420.104 50.4989 420.104 74.0858H424.104ZM424.104 786.914V74.0858H420.104V786.914H424.104ZM352.663 858.328C376.089 858.328 394.046 852.395 406.133 840.288C418.219 828.181 424.104 810.232 424.104 786.914H420.104C420.104 809.606 414.381 826.364 403.302 837.462C392.224 848.558 375.459 854.328 352.663 854.328V858.328ZM77.2315 858.328H352.663V854.328H77.2315V858.328ZM5.78955 786.914C5.78955 811.016 11.2333 828.994 23.1391 840.917C35.0454 852.842 53.0307 858.328 77.2315 858.328V854.328C53.5493 854.328 36.8135 848.951 25.9697 838.091C15.1252 827.23 9.78955 810.501 9.78955 786.914H5.78955ZM5.78955 74.0858V786.914H9.78955V74.0858H5.78955ZM108.068 31.6738C108.068 36.938 109.997 42.7701 114.162 47.3044C118.366 51.8807 124.747 55.0247 133.401 55.0247V51.0247C125.791 51.0247 120.505 48.2961 117.108 44.5984C113.673 40.8588 112.068 36.0154 112.068 31.6738H108.068ZM102.401 25C105.868 25 106.931 25.9675 107.385 26.7413C108.013 27.8112 108.068 29.3675 108.068 31.6738H112.068C112.068 29.6916 112.123 26.911 110.834 24.7161C109.372 22.2251 106.601 21 102.401 21V25ZM70.4012 25H102.401V21H70.4012V25ZM29.0679 66.3689C29.0679 53.2506 33.0161 42.9625 40.0162 35.9566C47.0161 28.951 57.2949 25 70.4012 25V21C56.4858 21 45.098 25.2115 37.1866 33.1294C29.2754 41.0471 25.0679 52.4434 25.0679 66.3689H29.0679ZM29.0679 791.631V66.3689H25.0679V791.631H29.0679ZM70.4012 833C57.2949 833 47.0161 829.049 40.0162 822.043C33.0161 815.038 29.0679 804.749 29.0679 791.631H25.0679C25.0679 805.557 29.2754 816.953 37.1866 824.871C45.098 832.788 56.4858 837 70.4012 837V833ZM358.735 833H70.4012V837H358.735V833ZM400.068 791.631C400.068 804.749 396.12 815.038 389.12 822.043C382.12 829.049 371.841 833 358.735 833V837C372.65 837 384.038 832.788 391.949 824.871C399.86 816.953 404.068 805.557 404.068 791.631H400.068ZM400.068 66.3689V791.631H404.068V66.3689H400.068ZM358.735 25C371.841 25 382.12 28.951 389.12 35.9566C396.12 42.9625 400.068 53.2506 400.068 66.3689H404.068C404.068 52.4434 399.86 41.0471 391.949 33.1294C384.038 25.2115 372.65 21 358.735 21V25ZM326.401 25H358.735V21H326.401V25ZM320.735 32.0074C320.735 30.8271 320.737 29.8031 320.842 28.8744C320.946 27.9529 321.138 27.2718 321.429 26.764C321.886 25.9651 322.936 25 326.401 25V21C322.199 21 319.416 22.2275 317.957 24.7768C317.29 25.9431 317.002 27.225 316.867 28.4257C316.732 29.6191 316.735 30.8767 316.735 32.0074H320.735ZM295.401 55.0247C312.909 55.0247 320.735 42.2408 320.735 32.0074H316.735C316.735 40.3185 310.423 51.0247 295.401 51.0247V55.0247ZM133.401 55.0247H295.401V51.0247H133.401V55.0247Z" fill="white" mask="url(#path-7-inside-2_196_332)"/>
<path fill-rule="evenodd" clip-rule="evenodd" d="M259.832 38.7007C263.148 38.7007 265.837 36.0113 265.837 32.6937C265.837 29.3762 263.148 26.6868 259.832 26.6868C256.516 26.6868 253.828 29.3762 253.828 32.6937C253.828 36.0113 256.516 38.7007 259.832 38.7007Z" fill="white"/>
<path d="M187.927 32.7975C187.927 30.903 189.463 29.3672 191.357 29.3672H237.236C239.13 29.3672 240.666 30.903 240.666 32.7975C240.666 34.6919 239.13 36.2277 237.236 36.2277H191.357C189.463 36.2277 187.927 34.6919 187.927 32.7975Z" fill="white"/>
<rect x="151" y="819" width="128" height="4" rx="2" fill="white"/>
<path d="M111.068 31.8969C111.068 36.4692 112.754 41.5598 116.372 45.4981C119.97 49.4154 125.53 52.2478 133.401 52.2478H295.401C311.044 52.2478 317.735 41.0222 317.735 32.2305V32.1998C317.735 31.066 317.735 29.8782 317.861 28.761C317.988 27.6301 318.252 26.4984 318.825 25.4967C320.034 23.3851 322.384 22.2231 326.401 22.2231H358.735C372.448 22.2231 383.558 26.3695 391.242 34.0593C398.925 41.7491 403.068 52.8683 403.068 66.5921V791.854C403.068 805.578 398.925 816.697 391.242 824.387C383.558 832.077 372.448 836.223 358.735 836.223H70.4012C56.688 836.223 45.5775 832.077 37.894 824.387C30.2106 816.697 26.0679 805.578 26.0679 791.854V66.5921C26.0679 52.8683 30.2106 41.7491 37.894 34.0593C45.5775 26.3695 56.688 22.2231 70.4012 22.2231H102.401C106.418 22.2231 108.762 23.3839 109.972 25.4456C111.069 27.3148 111.069 29.7191 111.068 31.7526L111.068 31.8969Z" stroke="white" stroke-width="2"/>
</svg>
