<svg viewBox="0 0 1226 704" fill="none" xmlns="http://www.w3.org/2000/svg" class="frame">
<mask id="path-1-inside-1_186_316" fill="white">
<path fill-rule="evenodd" clip-rule="evenodd" d="M151.984 0C129.901 0 112 17.8823 112 39.9412V671.012C112 675.424 115.58 679 119.997 679H1106C1110.42 679 1114 675.424 1114 671.012V39.9412C1114 17.8823 1096.1 0 1074.02 0H151.984ZM1072.47 50.2998H152.697V625.155H1072.47V50.2998Z"/>
</mask>
<path fill-rule="evenodd" clip-rule="evenodd" d="M151.984 0C129.901 0 112 17.8823 112 39.9412V671.012C112 675.424 115.58 679 119.997 679H1106C1110.42 679 1114 675.424 1114 671.012V39.9412C1114 17.8823 1096.1 0 1074.02 0H151.984ZM1072.47 50.2998H152.697V625.155H1072.47V50.2998Z" fill="black"/>
<path d="M152.697 50.2998V48.2998H150.697V50.2998H152.697ZM1072.47 50.2998H1074.47V48.2998H1072.47V50.2998ZM152.697 625.155H150.697V627.155H152.697V625.155ZM1072.47 625.155V627.155H1074.47V625.155H1072.47ZM114 39.9412C114 18.9889 131.004 2 151.984 2V-2C128.799 -2 110 16.7757 110 39.9412H114ZM114 671.012V39.9412H110V671.012H114ZM119.997 677C116.683 677 114 674.317 114 671.012H110C110 676.53 114.478 681 119.997 681V677ZM1106 677H119.997V681H1106V677ZM1112 671.012C1112 674.317 1109.32 677 1106 677V681C1111.52 681 1116 676.53 1116 671.012H1112ZM1112 39.9412V671.012H1116V39.9412H1112ZM1074.02 2C1095 2 1112 18.9889 1112 39.9412H1116C1116 16.7757 1097.2 -2 1074.02 -2V2ZM151.984 2H1074.02V-2H151.984V2ZM152.697 52.2998H1072.47V48.2998H152.697V52.2998ZM154.697 625.155V50.2998H150.697V625.155H154.697ZM1072.47 623.155H152.697V627.155H1072.47V623.155ZM1070.47 50.2998V625.155H1074.47V50.2998H1070.47Z" fill="white" mask="url(#path-1-inside-1_186_316)"/>
<path d="M145.911 703C46.9086 701.004 24.42 692.754 1 685.036C389.693 685.169 1178.49 685.435 1224.16 685.435C1192.55 699.487 1112.79 703 1076.86 703H625.357H145.911Z" fill="black" stroke="white" stroke-width="2" stroke-linejoin="round"/>
<rect x="1" y="678.649" width="1223.16" height="6.38728" fill="white"/>
</svg>
