<?xml version="1.0" encoding="UTF-8" standalone="no"?>
<!DOCTYPE svg PUBLIC "-//W3C//DTD SVG 1.1//EN" "http://www.w3.org/Graphics/SVG/1.1/DTD/svg11.dtd">
<svg width="100%" height="100%" viewBox="0 0 33 33" version="1.1" xmlns="http://www.w3.org/2000/svg" xmlns:xlink="http://www.w3.org/1999/xlink" xml:space="preserve" xmlns:serif="http://www.serif.com/" style="fill-rule:evenodd;clip-rule:evenodd;stroke-linejoin:round;stroke-miterlimit:1.41421;">
    <g transform="matrix(1.03124,0,0,1.03124,-0.515768,-0.516248)">
        <path d="M32.358,28.194C32.74,27.046 32.31,25.372 31.592,24.559C30.875,23.746 26.312,20.89 25.66,20.732C24.273,20.397 22.819,23.794 21.869,23.679C19.957,23.447 17.123,21.832 14.037,18.963C11.167,15.878 9.553,13.044 9.32,11.131C9.205,10.181 12.602,8.726 12.267,7.339C12.11,6.688 9.255,2.126 8.441,1.409C7.627,0.692 5.954,0.26 4.806,0.644C3.658,1.025 0.44,4.02 0.501,6.288C0.549,8.058 2.004,13.721 10.642,22.359C19.28,30.997 24.944,32.451 26.713,32.499C28.98,32.56 31.975,29.342 32.358,28.194Z" style="fill:white;fill-rule:nonzero;"/>
    </g>
</svg>
