<?xml version="1.0" encoding="UTF-8" standalone="no"?>
<!DOCTYPE svg PUBLIC "-//W3C//DTD SVG 1.1//EN" "http://www.w3.org/Graphics/SVG/1.1/DTD/svg11.dtd">
<svg width="100%" height="100%" viewBox="0 0 152 141" version="1.1" xmlns="http://www.w3.org/2000/svg" xmlns:xlink="http://www.w3.org/1999/xlink" xml:space="preserve" xmlns:serif="http://www.serif.com/" style="fill-rule:evenodd;clip-rule:evenodd;stroke-linejoin:round;stroke-miterlimit:1.41421;">
    <g transform="matrix(1,0,0,1,-884.24,-1845.52)">
        <g transform="matrix(0.977597,0,0,1.5562,43.0143,-887.089)">
            <g transform="matrix(1.69612,1.0655,-1.69612,1.0655,925.384,1696.13)">
                <path d="M71.262,18.755L66.254,18.755C65.426,18.755 64.754,19.426 64.754,20.255L64.754,21.824C64.686,22.423 64.195,22.896 63.578,22.896C62.915,22.896 62.375,22.356 62.375,21.693C62.375,20.864 61.703,20.193 60.875,20.193L57.541,20.193L57.541,17.383C57.541,16.554 56.869,15.883 56.041,15.883L46.484,15.883C45.655,15.883 44.984,16.554 44.984,17.383L44.984,20.193L39.935,20.193C39.191,20.193 38.559,20.739 38.451,21.475C38.011,24.474 35.707,26.829 32.718,27.334L28.488,28.05C27.762,28.173 27.233,28.804 27.238,29.54L27.271,33.89C27.277,34.714 27.947,35.379 28.771,35.379L44.984,35.379L44.984,82.615C44.984,83.443 45.655,84.115 46.484,84.115L56.041,84.115C56.869,84.115 57.541,83.443 57.541,82.615L57.541,35.38L60.875,35.38C61.703,35.38 62.375,34.709 62.375,33.88C62.375,33.217 62.915,32.677 63.578,32.677C64.195,32.677 64.686,33.15 64.754,33.749L64.754,35.476C64.754,36.305 65.426,36.976 66.254,36.976L71.262,36.976C72.09,36.976 72.762,36.305 72.762,35.476L72.762,20.255C72.762,19.426 72.09,18.755 71.262,18.755ZM47.984,18.884L54.541,18.884L54.541,20.194L47.984,20.194L47.984,18.884ZM54.541,81.116L47.984,81.116L47.984,35.38L54.541,35.38L54.541,81.116ZM63.578,29.677C61.789,29.677 60.257,30.801 59.651,32.38L30.26,32.38L30.248,30.796L33.219,30.293C37.058,29.644 40.107,26.861 41.145,23.194L59.651,23.194C60.256,24.773 61.789,25.897 63.578,25.897C63.989,25.897 64.378,25.819 64.754,25.708L64.754,29.866C64.378,29.755 63.989,29.677 63.578,29.677ZM69.762,33.976L67.754,33.976L67.754,21.755L69.762,21.755L69.762,33.976Z" style="fill:white;fill-rule:nonzero;"/>
            </g>
        </g>
    </g>
</svg>
