<svg height='100%' width='100%'  fill="#000000" xmlns="http://www.w3.org/2000/svg" viewBox="0 0 64 64" x="0px" y="0px"><g data-name="Coding"><path d="M61,46H59V15a5.006,5.006,0,0,0-5-5H10a5.006,5.006,0,0,0-5,5V46H3a1,1,0,0,0-1,1v4a3,3,0,0,0,3,3H59a3,3,0,0,0,3-3V47A1,1,0,0,0,61,46ZM7,15a3,3,0,0,1,3-3H54a3,3,0,0,1,3,3V46H7ZM60,51a1,1,0,0,1-1,1H5a1,1,0,0,1-1-1V48H60Z"></path><rect x="28" y="49" width="8" height="2"></rect><path d="M25.293,24.707l1.414-1.414L24.414,21l2.293-2.293-1.414-1.414-3,3a1,1,0,0,0,0,1.414Z"></path><path d="M38.707,24.707l3-3a1,1,0,0,0,0-1.414l-3-3-1.414,1.414L39.586,21l-2.293,2.293Z"></path><rect x="26.615" y="20" width="10.77" height="2.001" transform="translate(0.616 42.909) rotate(-68.193)"></rect><rect x="24" y="28" width="6" height="2"></rect><rect x="22" y="32" width="4" height="2"></rect><rect x="28" y="32" width="4" height="2"></rect><rect x="18" y="36" width="12" height="2"></rect><rect x="20" y="28" width="2" height="2"></rect><rect x="21" y="40" width="12" height="2"></rect><rect x="35" y="40" width="2" height="2"></rect><rect x="34" y="32" width="4" height="2"></rect><rect x="32" y="36" width="4" height="2"></rect><rect x="38" y="36" width="4" height="2"></rect><rect x="32" y="28" width="8" height="2"></rect><rect x="39" y="40" width="6" height="2"></rect></g></svg>
