<svg xmlns="http://www.w3.org/2000/svg" viewBox="0 0 64 64" x="0px" y="0px"><g><path d="M11,34a3,3,0,1,0-3-3A3,3,0,0,0,11,34Zm0-4a1,1,0,1,1-1,1A1,1,0,0,1,11,30Z"></path><rect x="19" y="26" width="4" height="2"></rect><rect x="19" y="30" width="4" height="2"></rect><path d="M53,38a3,3,0,1,0-3-3A3,3,0,0,0,53,38Zm0-4a1,1,0,1,1-1,1A1,1,0,0,1,53,34Z"></path><path d="M61,54H59V29a1,1,0,0,0-1-1H49V19a1,1,0,0,0-1-1H36a1,1,0,0,0-1,1v7H27V21a1,1,0,0,0-1-1H16a1,1,0,0,0-1,1v3H6a1,1,0,0,0-1,1V54H3a1,1,0,0,0-1,1v4a1,1,0,0,0,1,1H61a1,1,0,0,0,1-1V55A1,1,0,0,0,61,54ZM37,54V27H47V54ZM27,54V51h8v3Zm30-5H49V48h8ZM47,25H37V24H47ZM35,49H27V48h8Zm14,2h8v3H49Zm8-21V46H49V30ZM47,20v2H37V20ZM35,28V46H27V28ZM17,22h8V54H17ZM7,48h8v2H7Zm8-22V46H7V26ZM7,52h8v2H7Zm53,6H4V56H60Z"></path></g></svg>