<svg xmlns="http://www.w3.org/2000/svg" viewBox="0 0 64 64" x="0px" y="0px"><g><path d="M61,15H58V12a1,1,0,0,0-1-1H36a4.982,4.982,0,0,0-4,2.031A4.982,4.982,0,0,0,28,11H7a1,1,0,0,0-1,1v3H3a1,1,0,0,0-1,1V52a1,1,0,0,0,1,1H61a1,1,0,0,0,1-1V16A1,1,0,0,0,61,15ZM36,13H56V47H36a4.948,4.948,0,0,0-3,1.026V16A3,3,0,0,1,36,13ZM8,13H28a3,3,0,0,1,3,3V48.026A4.948,4.948,0,0,0,28,47H8ZM4,17H6V51H4ZM8,51V49H28a3.006,3.006,0,0,1,2.829,2Zm28-2H56v2H33.171A3.006,3.006,0,0,1,36,49Zm24,2H58V17h2Z"></path><path d="M40,31.224V39a1,1,0,0,0,1.447.9L45,38.118,48.553,39.9A1,1,0,0,0,50,39V31.223a8,8,0,1,0-10,0Zm8,6.158L45.447,36.1a1,1,0,0,0-.894,0L42,37.382V32.42c.148.061.3.108.454.158.067.023.132.049.2.069a7.853,7.853,0,0,0,.962.224c.125.021.25.037.377.053.256.031.514.051.772.058.08,0,.156.018.236.018s.157-.016.236-.018c.258-.007.516-.027.772-.058.127-.016.253-.032.378-.053a8.151,8.151,0,0,0,.957-.222c.071-.022.14-.05.211-.073.149-.05.3-.1.446-.156ZM45,19a6,6,0,0,1,3.422,10.924,6.086,6.086,0,0,1-5.215.792,5.71,5.71,0,0,1-1.638-.8A6,6,0,0,1,45,19Z"></path><path d="M45,29a4,4,0,1,0-4-4A4,4,0,0,0,45,29Zm0-6a2,2,0,1,1-2,2A2,2,0,0,1,45,23Z"></path><rect x="12" y="20" width="12" height="2"></rect><rect x="12" y="26" width="12" height="2"></rect><rect x="12" y="32" width="12" height="2"></rect><rect x="12" y="38" width="12" height="2"></rect></g></svg>