<?xml version="1.0" encoding="UTF-8" standalone="no"?>
<!DOCTYPE svg PUBLIC "-//W3C//DTD SVG 1.1//EN" "http://www.w3.org/Graphics/SVG/1.1/DTD/svg11.dtd">
<svg width="100%" height="100%" viewBox="0 0 95 78" version="1.1" xmlns="http://www.w3.org/2000/svg" xmlns:xlink="http://www.w3.org/1999/xlink" xml:space="preserve" xmlns:serif="http://www.serif.com/" style="fill-rule:evenodd;clip-rule:evenodd;stroke-linejoin:round;stroke-miterlimit:1.41421;">
    <g transform="matrix(1,0,0,1,-2.5,-11.1)">
        <path d="M14.7,88.9C12.4,88.9 10.2,87.8 8.8,85.8C7.1,83.2 7.2,80 9,77.5C11.1,74.6 12.9,71.1 14.1,68.4C6.6,62.1 2.5,54.2 2.5,45.7C2.5,26.6 23.8,11.1 50,11.1C76.2,11.1 97.5,26.6 97.5,45.7C97.5,64.8 76.2,80.3 50,80.3C45.9,80.3 41.9,79.9 38,79.2C32.6,82.4 25,86.4 16.6,88.6C16,88.8 15.3,88.9 14.7,88.9ZM50,18.951C28.3,18.951 10.219,31.1 10.219,45.7C10.219,52.4 14.293,58.963 21.193,63.863C22.693,64.963 23.5,66.8 22.8,68.5C21.8,71.1 19.8,75.6 17.2,79.8C24.7,77.4 31.5,73.5 35,71.3C35.9,70.7 37,70.6 38,70.8C42,71.7 46.023,72.349 50.023,72.349C71.723,72.349 89.842,60.178 89.842,45.578C89.842,30.978 71.7,18.951 50,18.951Z" style="fill-rule:nonzero;"/>
    </g>
</svg>
