<?xml version="1.0" encoding="UTF-8"?>
<svg width="100pt" height="100pt" version="1.1" viewBox="0 0 100 100" xmlns="http://www.w3.org/2000/svg">
    <g>
        <path d="m15.625 71.875c-2.5273 0-4.8086 1.5234-5.7734 3.8594-0.96875 2.3359-0.43359 5.0234 1.3555 6.8086 1.7852 1.7891 4.4727 2.3242 6.8086 1.3555 2.3359-0.96484 3.8594-3.2461 3.8594-5.7734 0-1.6562-0.66016-3.2461-1.832-4.418s-2.7617-1.832-4.418-1.832zm0 9.375c-1.2656 0-2.4023-0.76172-2.8867-1.9297-0.48438-1.168-0.21484-2.5117 0.67578-3.4062 0.89453-0.89062 2.2383-1.1602 3.4062-0.67578 1.168 0.48438 1.9297 1.6211 1.9297 2.8867 0 0.82812-0.32812 1.625-0.91406 2.2109-0.58594 0.58594-1.3828 0.91406-2.2109 0.91406z"/>
        <path d="m50 71.875h-21.875c-1.7266 0-3.125 1.3984-3.125 3.125v6.25c0 0.82812 0.32812 1.625 0.91406 2.2109 0.58594 0.58594 1.3828 0.91406 2.2109 0.91406h21.875c0.82812 0 1.625-0.32812 2.2109-0.91406 0.58594-0.58594 0.91406-1.3828 0.91406-2.2109v-6.25c0-0.82812-0.32812-1.625-0.91406-2.2109-0.58594-0.58594-1.3828-0.91406-2.2109-0.91406zm-21.875 9.375v-6.25h21.875v6.25z"/>
        <path d="m64.062 71.875h-6.25c-0.86328 0-1.5625 0.69922-1.5625 1.5625v9.375c0 0.41406 0.16406 0.8125 0.45703 1.1055s0.69141 0.45703 1.1055 0.45703h6.25c0.41406 0 0.8125-0.16406 1.1055-0.45703s0.45703-0.69141 0.45703-1.1055v-9.375c0-0.41406-0.16406-0.8125-0.45703-1.1055s-0.69141-0.45703-1.1055-0.45703zm-1.5625 9.375h-3.125v-6.25h3.125z"/>
        <path d="m76.562 71.875h-6.25c-0.86328 0-1.5625 0.69922-1.5625 1.5625v9.375c0 0.41406 0.16406 0.8125 0.45703 1.1055s0.69141 0.45703 1.1055 0.45703h6.25c0.41406 0 0.8125-0.16406 1.1055-0.45703s0.45703-0.69141 0.45703-1.1055v-9.375c0-0.41406-0.16406-0.8125-0.45703-1.1055s-0.69141-0.45703-1.1055-0.45703zm-1.5625 9.375h-3.125v-6.25h3.125z"/>
        <path d="m82.812 71.875c-0.86328 0-1.5625 0.69922-1.5625 1.5625v9.375c0 0.41406 0.16406 0.8125 0.45703 1.1055s0.69141 0.45703 1.1055 0.45703h6.25c0.41406 0 0.8125-0.16406 1.1055-0.45703s0.45703-0.69141 0.45703-1.1055v-9.375c0-0.41406-0.16406-0.8125-0.45703-1.1055s-0.69141-0.45703-1.1055-0.45703zm4.6875 9.375h-3.125v-6.25h3.125z"/>
        <path d="m15.625 43.75c-2.5273 0-4.8086 1.5234-5.7734 3.8594-0.96875 2.3359-0.43359 5.0234 1.3555 6.8086 1.7852 1.7891 4.4727 2.3242 6.8086 1.3555 2.3359-0.96484 3.8594-3.2461 3.8594-5.7734 0-1.6562-0.66016-3.2461-1.832-4.418s-2.7617-1.832-4.418-1.832zm0 9.375c-1.2656 0-2.4023-0.76172-2.8867-1.9297-0.48438-1.168-0.21484-2.5117 0.67578-3.4062 0.89453-0.89062 2.2383-1.1602 3.4062-0.67578 1.168 0.48438 1.9297 1.6211 1.9297 2.8867 0 0.82812-0.32812 1.625-0.91406 2.2109-0.58594 0.58594-1.3828 0.91406-2.2109 0.91406z"/>
        <path d="m50 43.75h-21.875c-1.7266 0-3.125 1.3984-3.125 3.125v6.25c0 0.82812 0.32812 1.625 0.91406 2.2109 0.58594 0.58594 1.3828 0.91406 2.2109 0.91406h21.875c0.82812 0 1.625-0.32812 2.2109-0.91406 0.58594-0.58594 0.91406-1.3828 0.91406-2.2109v-6.25c0-0.82812-0.32812-1.625-0.91406-2.2109-0.58594-0.58594-1.3828-0.91406-2.2109-0.91406zm-21.875 9.375v-6.25h21.875v6.25z"/>
        <path d="m64.062 43.75h-6.25c-0.86328 0-1.5625 0.69922-1.5625 1.5625v9.375c0 0.41406 0.16406 0.8125 0.45703 1.1055s0.69141 0.45703 1.1055 0.45703h6.25c0.41406 0 0.8125-0.16406 1.1055-0.45703s0.45703-0.69141 0.45703-1.1055v-9.375c0-0.41406-0.16406-0.8125-0.45703-1.1055s-0.69141-0.45703-1.1055-0.45703zm-1.5625 9.375h-3.125v-6.25h3.125z"/>
        <path d="m76.562 43.75h-6.25c-0.86328 0-1.5625 0.69922-1.5625 1.5625v9.375c0 0.41406 0.16406 0.8125 0.45703 1.1055s0.69141 0.45703 1.1055 0.45703h6.25c0.41406 0 0.8125-0.16406 1.1055-0.45703s0.45703-0.69141 0.45703-1.1055v-9.375c0-0.41406-0.16406-0.8125-0.45703-1.1055s-0.69141-0.45703-1.1055-0.45703zm-1.5625 9.375h-3.125v-6.25h3.125z"/>
        <path d="m82.812 43.75c-0.86328 0-1.5625 0.69922-1.5625 1.5625v9.375c0 0.41406 0.16406 0.8125 0.45703 1.1055s0.69141 0.45703 1.1055 0.45703h6.25c0.41406 0 0.8125-0.16406 1.1055-0.45703s0.45703-0.69141 0.45703-1.1055v-9.375c0-0.41406-0.16406-0.8125-0.45703-1.1055s-0.69141-0.45703-1.1055-0.45703zm4.6875 9.375h-3.125v-6.25h3.125z"/>
        <path d="m92.188 34.375c2.5898 0 4.6875-2.0977 4.6875-4.6875v-15.625c0-2.5898-2.0977-4.6875-4.6875-4.6875h-84.375c-2.5898 0-4.6875 2.0977-4.6875 4.6875v15.625c0 2.5898 2.0977 4.6875 4.6875 4.6875h1.5625v3.125h-1.5625c-2.5898 0-4.6875 2.0977-4.6875 4.6875v15.625c0 2.5898 2.0977 4.6875 4.6875 4.6875h1.5625v3.125h-1.5625c-2.5898 0-4.6875 2.0977-4.6875 4.6875v15.625c0 2.5898 2.0977 4.6875 4.6875 4.6875h1.5625v4.6875c0 0.41406 0.16406 0.8125 0.45703 1.1055s0.69141 0.45703 1.1055 0.45703h9.375c0.41406 0 0.8125-0.16406 1.1055-0.45703s0.45703-0.69141 0.45703-1.1055v-4.6875h56.25v4.6875c0 0.41406 0.16406 0.8125 0.45703 1.1055s0.69141 0.45703 1.1055 0.45703h9.375c0.41406 0 0.8125-0.16406 1.1055-0.45703s0.45703-0.69141 0.45703-1.1055v-4.6875h1.5625c2.5898 0 4.6875-2.0977 4.6875-4.6875v-15.625c0-2.5898-2.0977-4.6875-4.6875-4.6875h-1.5625v-3.125h1.5625c2.5898 0 4.6875-2.0977 4.6875-4.6875v-15.625c0-2.5898-2.0977-4.6875-4.6875-4.6875h-1.5625v-3.125zm-85.938-4.6875v-15.625c0-0.86328 0.69922-1.5625 1.5625-1.5625h84.375c0.41406 0 0.8125 0.16406 1.1055 0.45703s0.45703 0.69141 0.45703 1.1055v15.625c0 0.41406-0.16406 0.8125-0.45703 1.1055s-0.69141 0.45703-1.1055 0.45703h-84.375c-0.86328 0-1.5625-0.69922-1.5625-1.5625zm15.625 7.8125v-3.125h56.25v3.125zm-9.375-3.125h6.25v3.125h-6.25zm0 28.125h6.25v3.125h-6.25zm65.625 0v3.125h-56.25v-3.125zm-59.375 31.25h-6.25v-3.125h6.25zm68.75 0h-6.25v-3.125h6.25zm6.25-23.438v15.625c0 0.41406-0.16406 0.8125-0.45703 1.1055s-0.69141 0.45703-1.1055 0.45703h-84.375c-0.86328 0-1.5625-0.69922-1.5625-1.5625v-15.625c0-0.86328 0.69922-1.5625 1.5625-1.5625h84.375c0.41406 0 0.8125 0.16406 1.1055 0.45703s0.45703 0.69141 0.45703 1.1055zm-6.25-4.6875h-6.25v-3.125h6.25zm6.25-23.438v15.625c0 0.41406-0.16406 0.8125-0.45703 1.1055s-0.69141 0.45703-1.1055 0.45703h-84.375c-0.86328 0-1.5625-0.69922-1.5625-1.5625v-15.625c0-0.86328 0.69922-1.5625 1.5625-1.5625h84.375c0.41406 0 0.8125 0.16406 1.1055 0.45703s0.45703 0.69141 0.45703 1.1055zm-6.25-4.6875h-6.25v-3.125h6.25z"/>
        <path d="m15.625 28.125c2.5273 0 4.8086-1.5234 5.7734-3.8594 0.96875-2.3359 0.43359-5.0234-1.3555-6.8086-1.7852-1.7891-4.4727-2.3242-6.8086-1.3555-2.3359 0.96484-3.8594 3.2461-3.8594 5.7734 0 1.6562 0.66016 3.2461 1.832 4.418s2.7617 1.832 4.418 1.832zm0-9.375c1.2656 0 2.4023 0.76172 2.8867 1.9297 0.48438 1.168 0.21484 2.5117-0.67578 3.4062-0.89453 0.89062-2.2383 1.1602-3.4062 0.67578-1.168-0.48438-1.9297-1.6211-1.9297-2.8867 0-1.7266 1.3984-3.125 3.125-3.125z"/>
        <path d="m28.125 28.125h21.875c0.82812 0 1.625-0.32812 2.2109-0.91406 0.58594-0.58594 0.91406-1.3828 0.91406-2.2109v-6.25c0-0.82812-0.32812-1.625-0.91406-2.2109-0.58594-0.58594-1.3828-0.91406-2.2109-0.91406h-21.875c-1.7266 0-3.125 1.3984-3.125 3.125v6.25c0 0.82812 0.32812 1.625 0.91406 2.2109 0.58594 0.58594 1.3828 0.91406 2.2109 0.91406zm0-9.375h21.875v6.25h-21.875z"/>
        <path d="m57.812 28.125h6.25c0.41406 0 0.8125-0.16406 1.1055-0.45703s0.45703-0.69141 0.45703-1.1055v-9.375c0-0.41406-0.16406-0.8125-0.45703-1.1055s-0.69141-0.45703-1.1055-0.45703h-6.25c-0.86328 0-1.5625 0.69922-1.5625 1.5625v9.375c0 0.41406 0.16406 0.8125 0.45703 1.1055s0.69141 0.45703 1.1055 0.45703zm1.5625-9.375h3.125v6.25h-3.125z"/>
        <path d="m70.312 28.125h6.25c0.41406 0 0.8125-0.16406 1.1055-0.45703s0.45703-0.69141 0.45703-1.1055v-9.375c0-0.41406-0.16406-0.8125-0.45703-1.1055s-0.69141-0.45703-1.1055-0.45703h-6.25c-0.86328 0-1.5625 0.69922-1.5625 1.5625v9.375c0 0.41406 0.16406 0.8125 0.45703 1.1055s0.69141 0.45703 1.1055 0.45703zm1.5625-9.375h3.125v6.25h-3.125z"/>
        <path d="m82.812 28.125h6.25c0.41406 0 0.8125-0.16406 1.1055-0.45703s0.45703-0.69141 0.45703-1.1055v-9.375c0-0.41406-0.16406-0.8125-0.45703-1.1055s-0.69141-0.45703-1.1055-0.45703h-6.25c-0.86328 0-1.5625 0.69922-1.5625 1.5625v9.375c0 0.41406 0.16406 0.8125 0.45703 1.1055s0.69141 0.45703 1.1055 0.45703zm1.5625-9.375h3.125v6.25h-3.125z"/>
    </g>
</svg>
