<?xml version="1.0" encoding="UTF-8" standalone="no"?>
<!DOCTYPE svg PUBLIC "-//W3C//DTD SVG 1.1//EN" "http://www.w3.org/Graphics/SVG/1.1/DTD/svg11.dtd">
<svg width="100%" height="100%" viewBox="0 0 97 100" version="1.1" xmlns="http://www.w3.org/2000/svg" xmlns:xlink="http://www.w3.org/1999/xlink" xml:space="preserve" xmlns:serif="http://www.serif.com/" style="fill-rule:evenodd;clip-rule:evenodd;stroke-linejoin:round;stroke-miterlimit:1.41421;">
    <g transform="matrix(1,0,0,1,-2715,-652.586)">
        <g transform="matrix(0.977597,0,0,1.5562,2185.01,-2107.09)">
            <g transform="matrix(0.879765,0,0,0.879765,29.1859,234.135)">
                <g transform="matrix(1.87535,0,0,1.17809,579.297,1748.39)">
                    <path d="M62,4.191C61.995,2.442 60.558,1.005 58.809,1L5.191,1C3.442,1.005 2.005,2.442 2,4.191L2,11.809C2.001,12.626 2.318,13.411 2.883,14C2.318,14.589 2.001,15.374 2,16.191L2,23.809C2.001,24.626 2.318,25.411 2.883,26C2.318,26.589 2.001,27.374 2,28.191L2,35.809C2.001,36.626 2.318,37.411 2.883,38C2.318,38.589 2.001,39.374 2,40.191L2,47.809C2.001,48.626 2.318,49.411 2.883,50C2.318,50.589 2.001,51.374 2,52.191L2,59.809C2.005,61.558 3.442,62.995 5.191,63L58.809,63C60.558,62.995 61.995,61.558 62,59.809L62,52.191C61.999,51.374 61.682,50.589 61.117,50C61.682,49.411 61.999,48.626 62,47.809L62,40.191C61.999,39.374 61.682,38.589 61.117,38C61.682,37.411 61.999,36.626 62,35.809L62,28.191C61.999,27.374 61.682,26.589 61.117,26C61.682,25.411 61.999,24.626 62,23.809L62,16.191C61.999,15.374 61.682,14.589 61.117,14C61.682,13.411 61.999,12.626 62,11.809L62,4.191ZM4,4.191C4.001,3.538 4.538,3.001 5.191,3L58.809,3C59.462,3.001 59.999,3.538 60,4.191L60,11.809C59.999,12.462 59.462,12.999 58.809,13L5.191,13C4.538,12.999 4.001,12.462 4,11.809L4,4.191ZM60,16.191L60,23.809C59.999,24.462 59.462,24.999 58.809,25L5.191,25C4.538,24.999 4.001,24.462 4,23.809L4,16.191C4.001,15.538 4.538,15.001 5.191,15L58.809,15C59.462,15.001 59.999,15.538 60,16.191ZM60,28.191L60,35.809C59.999,36.462 59.462,36.999 58.809,37L5.191,37C4.538,36.999 4.001,36.462 4,35.809L4,28.191C4.001,27.538 4.538,27.001 5.191,27L58.809,27C59.462,27.001 59.999,27.538 60,28.191ZM60,40.191L60,47.809C59.999,48.462 59.462,48.999 58.809,49L5.191,49C4.538,48.999 4.001,48.462 4,47.809L4,40.191C4.001,39.538 4.538,39.001 5.191,39L58.809,39C59.462,39.001 59.999,39.538 60,40.191ZM60,59.809C59.999,60.462 59.462,60.999 58.809,61L5.191,61C4.538,60.999 4.001,60.462 4,59.809L4,52.191C4.001,51.538 4.538,51.001 5.191,51L58.809,51C59.462,51.001 59.999,51.538 60,52.191L60,59.809Z" style=";fill-rule:nonzero;"/>
                </g>
                <g transform="matrix(1.87535,0,0,1.17809,579.297,1748.39)">
                    <path d="M53,11L57,11C57.549,11 58,10.549 58,10L58,6C58,5.451 57.549,5 57,5L53,5C52.451,5 52,5.451 52,6L52,10C52,10.549 52.451,11 53,11ZM54,7L56,7L56,9L54,9L54,7Z" style=";fill-rule:nonzero;"/>
                </g>
                <g transform="matrix(1.87535,0,0,1.17809,579.297,1748.39)">
                    <path d="M53,23L57,23C57.549,23 58,22.549 58,22L58,18C58,17.451 57.549,17 57,17L53,17C52.451,17 52,17.451 52,18L52,22C52,22.549 52.451,23 53,23ZM54,19L56,19L56,21L54,21L54,19Z" style=";fill-rule:nonzero;"/>
                </g>
                <g transform="matrix(1.87535,0,0,1.17809,579.297,1748.39)">
                    <path d="M53,35L57,35C57.549,35 58,34.549 58,34L58,30C58,29.451 57.549,29 57,29L53,29C52.451,29 52,29.451 52,30L52,34C52,34.549 52.451,35 53,35ZM54,31L56,31L56,33L54,33L54,31Z" style=";fill-rule:nonzero;"/>
                </g>
                <g transform="matrix(1.87535,0,0,1.17809,579.297,1748.39)">
                    <path d="M53,47L57,47C57.549,47 58,46.549 58,46L58,42C58,41.451 57.549,41 57,41L53,41C52.451,41 52,41.451 52,42L52,46C52,46.549 52.451,47 53,47ZM54,43L56,43L56,45L54,45L54,43Z" style=";fill-rule:nonzero;"/>
                </g>
                <g transform="matrix(1.87535,0,0,1.17809,579.297,1748.39)">
                    <path d="M57,53L53,53C52.451,53 52,53.451 52,54L52,58C52,58.549 52.451,59 53,59L57,59C57.549,59 58,58.549 58,58L58,54C58,53.451 57.549,53 57,53ZM56,57L54,57L54,55L56,55L56,57Z" style=";fill-rule:nonzero;"/>
                </g>
                <g transform="matrix(1.87535,0,0,1.17809,579.297,1748.39)">
                    <path d="M7,12C7.549,12 8,11.549 8,11L8,5C8,4.451 7.549,4 7,4C6.451,4 6,4.451 6,5L6,11C6,11.549 6.451,12 7,12Z" style=";fill-rule:nonzero;"/>
                </g>
                <g transform="matrix(1.87535,0,0,1.17809,579.297,1748.39)">
                    <path d="M10,12C10.549,12 11,11.549 11,11L11,5C11,4.451 10.549,4 10,4C9.451,4 9,4.451 9,5L9,11C9,11.549 9.451,12 10,12Z" style=";fill-rule:nonzero;"/>
                </g>
                <g transform="matrix(1.87535,0,0,1.17809,579.297,1748.39)">
                    <path d="M13,12C13.549,12 14,11.549 14,11L14,5C14,4.451 13.549,4 13,4C12.451,4 12,4.451 12,5L12,11C12,11.549 12.451,12 13,12Z" style=";fill-rule:nonzero;"/>
                </g>
                <g transform="matrix(1.87535,0,0,1.17809,579.297,1748.39)">
                    <path d="M7,24C7.549,24 8,23.549 8,23L8,17C8,16.451 7.549,16 7,16C6.451,16 6,16.451 6,17L6,23C6,23.549 6.451,24 7,24Z" style=";fill-rule:nonzero;"/>
                </g>
                <g transform="matrix(1.87535,0,0,1.17809,579.297,1748.39)">
                    <path d="M10,24C10.549,24 11,23.549 11,23L11,17C11,16.451 10.549,16 10,16C9.451,16 9,16.451 9,17L9,23C9,23.549 9.451,24 10,24Z" style=";fill-rule:nonzero;"/>
                </g>
                <g transform="matrix(1.87535,0,0,1.17809,579.297,1748.39)">
                    <path d="M13,24C13.549,24 14,23.549 14,23L14,17C14,16.451 13.549,16 13,16C12.451,16 12,16.451 12,17L12,23C12,23.549 12.451,24 13,24Z" style=";fill-rule:nonzero;"/>
                </g>
                <g transform="matrix(1.87535,0,0,1.17809,579.297,1748.39)">
                    <path d="M7,36C7.549,36 8,35.549 8,35L8,29C8,28.451 7.549,28 7,28C6.451,28 6,28.451 6,29L6,35C6,35.549 6.451,36 7,36Z" style=";fill-rule:nonzero;"/>
                </g>
                <g transform="matrix(1.87535,0,0,1.17809,579.297,1748.39)">
                    <path d="M10,36C10.549,36 11,35.549 11,35L11,29C11,28.451 10.549,28 10,28C9.451,28 9,28.451 9,29L9,35C9,35.549 9.451,36 10,36Z" style=";fill-rule:nonzero;"/>
                </g>
                <g transform="matrix(1.87535,0,0,1.17809,579.297,1748.39)">
                    <path d="M13,36C13.549,36 14,35.549 14,35L14,29C14,28.451 13.549,28 13,28C12.451,28 12,28.451 12,29L12,35C12,35.549 12.451,36 13,36Z" style=";fill-rule:nonzero;"/>
                </g>
                <g transform="matrix(1.87535,0,0,1.17809,579.297,1748.39)">
                    <path d="M7,48C7.549,48 8,47.549 8,47L8,41C8,40.451 7.549,40 7,40C6.451,40 6,40.451 6,41L6,47C6,47.549 6.451,48 7,48Z" style=";fill-rule:nonzero;"/>
                </g>
                <g transform="matrix(1.87535,0,0,1.17809,579.297,1748.39)">
                    <path d="M10,48C10.549,48 11,47.549 11,47L11,41C11,40.451 10.549,40 10,40C9.451,40 9,40.451 9,41L9,47C9,47.549 9.451,48 10,48Z" style=";fill-rule:nonzero;"/>
                </g>
                <g transform="matrix(1.87535,0,0,1.17809,579.297,1748.39)">
                    <path d="M13,48C13.549,48 14,47.549 14,47L14,41C14,40.451 13.549,40 13,40C12.451,40 12,40.451 12,41L12,47C12,47.549 12.451,48 13,48Z" style=";fill-rule:nonzero;"/>
                </g>
                <g transform="matrix(1.87535,0,0,1.17809,579.297,1748.39)">
                    <path d="M7,52C6.451,52 6,52.451 6,53L6,59C6,59.549 6.451,60 7,60C7.549,60 8,59.549 8,59L8,53C8,52.451 7.549,52 7,52Z" style=";fill-rule:nonzero;"/>
                </g>
                <g transform="matrix(1.87535,0,0,1.17809,579.297,1748.39)">
                    <path d="M10,52C9.451,52 9,52.451 9,53L9,59C9,59.549 9.451,60 10,60C10.549,60 11,59.549 11,59L11,53C11,52.451 10.549,52 10,52Z" style=";fill-rule:nonzero;"/>
                </g>
                <g transform="matrix(1.87535,0,0,1.17809,579.297,1748.39)">
                    <path d="M13,52C12.451,52 12,52.451 12,53L12,59C12,59.549 12.451,60 13,60C13.549,60 14,59.549 14,59L14,53C14,52.451 13.549,52 13,52Z" style=";fill-rule:nonzero;"/>
                </g>
            </g>
        </g>
    </g>
</svg>
