<?xml version="1.0" encoding="UTF-8"?>
<svg width="100pt" height="100pt" version="1.1" viewBox="0 0 100 100" xmlns="http://www.w3.org/2000/svg">
 <g>
  <path d="m46.875 35.938c5.1758 0 9.375-4.1992 9.375-9.375s-4.1992-9.375-9.375-9.375h-3.2227c0.76562-6.2305-3.207-12.066-9.2891-13.633-6.0781-1.5664-12.379 1.6211-14.719 7.4492-0.29688-0.042968-0.59375-0.066406-0.89453-0.066406-3.4531 0-6.25 2.7969-6.25 6.25-5.1758 0-9.375 4.1992-9.375 9.375s4.1992 9.375 9.375 9.375zm-40.625-9.375c0-3.4531 2.7969-6.25 6.25-6.25h1.8516c0.50391 0 0.98047-0.24609 1.2734-0.66016 0.29297-0.41406 0.36719-0.94531 0.19531-1.4219-0.35547-0.95312-0.22266-2.0234 0.36328-2.8594 0.58594-0.83203 1.5469-1.3242 2.5664-1.3086 0.4375 0 0.87109 0.097656 1.2695 0.28125 0.42188 0.1875 0.90625 0.17969 1.3203-0.019531 0.41797-0.19922 0.72266-0.57422 0.83594-1.0195 0.58203-2.4883 2.1484-4.6289 4.3438-5.9336 2.1953-1.3047 4.8281-1.6562 7.2891-0.97266 2.4609 0.67969 4.5352 2.3359 5.75 4.582 1.2109 2.25 1.4531 4.8906 0.67188 7.3242-0.14062 0.47266-0.050781 0.98437 0.24609 1.3789 0.29297 0.39453 0.75781 0.62891 1.25 0.62891h5.1484c3.4531 0 6.25 2.7969 6.25 6.25s-2.7969 6.25-6.25 6.25h-34.375c-3.4531 0-6.25-2.7969-6.25-6.25z"/>
  <path d="m34.375 17.188h3.125v3.125h-3.125z"/>
  <path d="m28.125 17.188h3.125v3.125h-3.125z"/>
  <path d="m93.75 75c0.82812 0 1.625-0.32812 2.2109-0.91406 0.58594-0.58594 0.91406-1.3828 0.91406-2.2109v-12.5c0-0.82812-0.32812-1.625-0.91406-2.2109-0.58594-0.58594-1.3828-0.91406-2.2109-0.91406h-40.625c-1.7266 0-3.125 1.3984-3.125 3.125v12.5c0 0.82812 0.32812 1.625 0.91406 2.2109 0.58594 0.58594 1.3828 0.91406 2.2109 0.91406h1.5625v3.125h-1.5625c-1.7266 0-3.125 1.3984-3.125 3.125v12.5c0 0.82812 0.32812 1.625 0.91406 2.2109 0.58594 0.58594 1.3828 0.91406 2.2109 0.91406h40.625c0.82812 0 1.625-0.32812 2.2109-0.91406 0.58594-0.58594 0.91406-1.3828 0.91406-2.2109v-12.5c0-0.82812-0.32812-1.625-0.91406-2.2109-0.58594-0.58594-1.3828-0.91406-2.2109-0.91406h-1.5625v-3.125zm-40.625-15.625h40.625v12.5h-40.625zm10.938 18.75v-3.125h18.75v3.125zm-6.25-3.125h3.125v3.125h-3.125zm35.938 18.75h-40.625v-12.5h40.625zm-4.6875-15.625h-3.125v-3.125h3.125z"/>
  <path d="m85.938 60.938c-1.8945 0-3.6055 1.1406-4.332 2.8945-0.72266 1.75-0.32422 3.7656 1.0156 5.1094 1.3438 1.3398 3.3594 1.7383 5.1094 1.0156 1.7539-0.72656 2.8945-2.4375 2.8945-4.332 0-2.5898-2.0977-4.6875-4.6875-4.6875zm0 6.25c-0.63281 0-1.2031-0.37891-1.4453-0.96484-0.23828-0.58203-0.10547-1.2539 0.33984-1.7031 0.44922-0.44531 1.1211-0.57812 1.7031-0.33984 0.58594 0.24219 0.96484 0.8125 0.96484 1.4453 0 0.41406-0.16406 0.8125-0.45703 1.1055s-0.69141 0.45703-1.1055 0.45703z"/>
  <path d="m75 64.062h3.125v3.125h-3.125z"/>
  <path d="m68.75 64.062h3.125v3.125h-3.125z"/>
  <path d="m62.5 64.062h3.125v3.125h-3.125z"/>
  <path d="m56.25 64.062h3.125v3.125h-3.125z"/>
  <path d="m85.938 92.188c1.8945 0 3.6055-1.1406 4.332-2.8945 0.72266-1.75 0.32422-3.7656-1.0156-5.1094-1.3438-1.3398-3.3594-1.7383-5.1094-1.0156-1.7539 0.72656-2.8945 2.4375-2.8945 4.332 0 2.5898 2.0977 4.6875 4.6875 4.6875zm0-6.25c0.63281 0 1.2031 0.37891 1.4453 0.96484 0.23828 0.58203 0.10547 1.2539-0.33984 1.7031-0.44922 0.44531-1.1211 0.57812-1.7031 0.33984-0.58594-0.24219-0.96484-0.8125-0.96484-1.4453 0-0.86328 0.69922-1.5625 1.5625-1.5625z"/>
  <path d="m75 85.938h3.125v3.125h-3.125z"/>
  <path d="m68.75 85.938h3.125v3.125h-3.125z"/>
  <path d="m62.5 85.938h3.125v3.125h-3.125z"/>
  <path d="m56.25 85.938h3.125v3.125h-3.125z"/>
  <path d="m48.438 10.938h3.125v3.125h-3.125z"/>
  <path d="m54.703 14.34 0.54297-3.0781 3.0742 0.54297-0.54297 3.0781z"/>
  <path d="m60.824 15.695 1.0703-2.9375 2.9375 1.0703-1.0703 2.9375z"/>
  <path d="m66.613 18.098 1.5625-2.707 2.707 1.5625-1.5625 2.707z"/>
  <path d="m71.902 21.465 2.0078-2.3906 2.3906 2.0078-2.0078 2.3906z"/>
  <path d="m76.527 25.703 2.3945-2.0078 2.0078 2.3945-2.3945 2.0078z"/>
  <path d="m80.34 30.676 2.7031-1.5625 1.5625 2.7031-2.7031 1.5625z"/>
  <path d="m83.234 36.238 2.9336-1.0664 1.0703 2.9375-2.9336 1.0664z"/>
  <path d="m85.117 42.219 3.0781-0.54297 0.54297 3.0781-3.0781 0.54297z"/>
  <path d="m85.938 48.438h3.125v3.125h-3.125z"/>
  <path d="m41.68 88.199 0.54297-3.0781 3.0742 0.54297-0.54297 3.0781z"/>
  <path d="m35.172 86.172 1.0703-2.9375 2.9375 1.0703-1.0703 2.9375z"/>
  <path d="m29.117 83.051 1.5625-2.707 2.707 1.5625-1.5625 2.707z"/>
  <path d="m23.695 78.918 2.0078-2.3906 2.3906 2.0078-2.0078 2.3906z"/>
  <path d="m19.07 73.91 2.3945-2.0078 2.0078 2.3945-2.3945 2.0078z"/>
  <path d="m15.391 68.176 2.7031-1.5625 1.5625 2.7031-2.7031 1.5625z"/>
  <path d="m12.762 61.891 2.9336-1.0664 1.0703 2.9375-2.9336 1.0664z"/>
  <path d="m11.262 55.246 3.0781-0.54297 0.54297 3.0781-3.0781 0.54297z"/>
  <path d="m10.938 48.438h3.125v3.125h-3.125z"/>
  <path d="m11.258 44.754 0.54297-3.0781 3.0781 0.54297-0.54297 3.0781z"/>
  <path d="m20.312 50c-0.003906-3.5469 0.63281-7.0664 1.875-10.391l-2.9258-1.0938c-3.5547 9.5352-2.4883 20.176 2.8867 28.816 5.375 8.6367 14.449 14.297 24.57 15.324l0.3125-3.1094c-7.3359-0.71094-14.141-4.1328-19.082-9.5977-4.9414-5.4688-7.6641-12.582-7.6367-19.949z"/>
  <path d="m82.656 53.281c0.10938-1.0781 0.15625-2.1875 0.15625-3.2812 0.003906-7.2773-2.4102-14.348-6.8672-20.102-4.4531-5.7539-10.695-9.8594-17.742-11.676l-0.78125 3.0234c6.375 1.6445 12.023 5.3594 16.055 10.566 4.0312 5.2031 6.2148 11.605 6.2109 18.188 0 0.99219-0.046875 1.9922-0.14844 2.9688z"/>
 </g>
</svg>
