<?xml version="1.0" encoding="UTF-8"?>
<svg width="100pt" height="100pt" version="1.1" viewBox="0 0 100 100" xmlns="http://www.w3.org/2000/svg">
 <g>
  <path d="m10.938 23.438c0-0.86328 0.69922-1.5625 1.5625-1.5625h51.562v-3.125h-51.562c-2.5898 0-4.6875 2.0977-4.6875 4.6875v45.312h-3.125c-0.86328 0-1.5625 0.69922-1.5625 1.5625v4.6875c0 0.82812 0.32812 1.625 0.91406 2.2109 0.58594 0.58594 1.3828 0.91406 2.2109 0.91406h28.125v-3.125h-28.125v-3.125h28.125v-3.125h-23.438z"/>
  <path d="m73.438 50h3.125v3.125h-3.125z"/>
  <path d="m71.875 46.875h18.75c2.5898 0 4.6875-2.0977 4.6875-4.6875v-34.375c0-2.5898-2.0977-4.6875-4.6875-4.6875h-18.75c-2.5898 0-4.6875 2.0977-4.6875 4.6875v34.375c0 2.5898 2.0977 4.6875 4.6875 4.6875zm18.75-3.125h-18.75c-0.86328 0-1.5625-0.69922-1.5625-1.5625v-4.6875h21.875v4.6875c0 0.41406-0.16406 0.8125-0.45703 1.1055s-0.69141 0.45703-1.1055 0.45703zm-18.75-37.5h18.75c0.41406 0 0.8125 0.16406 1.1055 0.45703s0.45703 0.69141 0.45703 1.1055v26.562h-21.875v-26.562c0-0.86328 0.69922-1.5625 1.5625-1.5625z"/>
  <path d="m79.688 39.062h3.125v3.125h-3.125z"/>
  <path d="m45.312 39.062c-0.007812-6.8984-5.6016-12.492-12.5-12.5-0.86328 0-1.5625 0.69922-1.5625 1.5625v10.938c0 0.41406 0.16406 0.8125 0.45703 1.1055s0.69141 0.45703 1.1055 0.45703h10.938c0.41406 0 0.8125-0.16406 1.1055-0.45703s0.45703-0.69141 0.45703-1.1055zm-10.938-1.5625v-7.6836c3.9297 0.67188 7.0117 3.7539 7.6836 7.6836z"/>
  <path d="m39.062 42.188h-9.375v-9.375c0-0.41406-0.16406-0.8125-0.45703-1.1055s-0.69141-0.45703-1.1055-0.45703c-5.0547 0-9.6133 3.0469-11.547 7.7148-1.9375 4.6719-0.86719 10.051 2.707 13.625 3.5742 3.5742 8.9531 4.6445 13.625 2.707 4.668-1.9336 7.7148-6.4922 7.7148-11.547 0-0.41406-0.16406-0.8125-0.45703-1.1055s-0.69141-0.45703-1.1055-0.45703zm-10.938 10.938c-4.8789 0.003906-8.9414-3.7305-9.3516-8.5898-0.40625-4.8594 2.9805-9.2227 7.7891-10.031v9.2461c0 0.41406 0.16406 0.8125 0.45703 1.1055s0.69141 0.45703 1.1055 0.45703h9.2461c-0.76953 4.5078-4.6719 7.8086-9.2461 7.8125z"/>
  <path d="m51.562 26.562h-3.125c-0.41406 0-0.8125 0.16406-1.1055 0.45703l-3.125 3.125 2.2109 2.2109 2.668-2.668h2.4766z"/>
  <path d="m54.688 26.562h6.25v3.125h-6.25z"/>
  <path d="m54.688 32.812h6.25v3.125h-6.25z"/>
  <path d="m14.062 60.938h18.75v3.125h-18.75z"/>
  <path d="m42.188 46.875h9.375v3.125h-9.375z"/>
  <path d="m53.125 48.438c0 1.8945 1.1406 3.6055 2.8945 4.332 1.75 0.72266 3.7656 0.32422 5.1094-1.0156 1.3398-1.3438 1.7383-3.3594 1.0156-5.1094-0.72656-1.7539-2.4375-2.8945-4.332-2.8945-2.5898 0-4.6875 2.0977-4.6875 4.6875zm4.6875-1.5625c0.63281 0 1.2031 0.37891 1.4453 0.96484 0.23828 0.58203 0.10547 1.2539-0.33984 1.7031-0.44922 0.44531-1.1211 0.57812-1.7031 0.33984-0.58594-0.24219-0.96484-0.8125-0.96484-1.4453 0-0.86328 0.69922-1.5625 1.5625-1.5625z"/>
  <path d="m79.688 10.938h9.375v3.125h-9.375z"/>
  <path d="m79.688 17.188h9.375v3.125h-9.375z"/>
  <path d="m79.688 23.438h3.125v3.125h-3.125z"/>
  <path d="m85.938 23.438h3.125v3.125h-3.125z"/>
  <path d="m92.188 56.25h-50c-2.5898 0-4.6875 2.0977-4.6875 4.6875v31.25c0 2.5898 2.0977 4.6875 4.6875 4.6875h50c2.5898 0 4.6875-2.0977 4.6875-4.6875v-31.25c0-2.5898-2.0977-4.6875-4.6875-4.6875zm-51.562 35.938v-31.25c0-0.86328 0.69922-1.5625 1.5625-1.5625h42.188v34.375h-42.188c-0.86328 0-1.5625-0.69922-1.5625-1.5625zm53.125 0c0 0.41406-0.16406 0.8125-0.45703 1.1055s-0.69141 0.45703-1.1055 0.45703h-4.6875v-34.375h4.6875c0.41406 0 0.8125 0.16406 1.1055 0.45703s0.45703 0.69141 0.45703 1.1055z"/>
  <path d="m89.062 75h3.125v3.125h-3.125z"/>
  <path d="m78.125 85.938v-17.188h-3.125v17.188h-3.125v-12.5h-3.125v12.5h-3.125v-9.375h-3.125v9.375h-3.125v-14.062h-3.125v14.062h-3.125v-6.25h-3.125v6.25h-3.125v-20.312h-3.125v21.875c0 0.41406 0.16406 0.8125 0.45703 1.1055s0.69141 0.45703 1.1055 0.45703h35.938v-3.125z"/>
 </g>
</svg>
