<?xml version="1.0" encoding="UTF-8" standalone="no"?>
<!DOCTYPE svg PUBLIC "-//W3C//DTD SVG 1.1//EN" "http://www.w3.org/Graphics/SVG/1.1/DTD/svg11.dtd">
<svg width="100%" height="100%" viewBox="0 0 67 110" version="1.1" xmlns="http://www.w3.org/2000/svg" xmlns:xlink="http://www.w3.org/1999/xlink" xml:space="preserve" xmlns:serif="http://www.serif.com/" style="fill-rule:evenodd;clip-rule:evenodd;stroke-linejoin:round;stroke-miterlimit:1.41421;">
    <g transform="matrix(1,0,0,1,-2730.39,-892.352)">
        <g transform="matrix(0.977597,0,0,1.5562,2185.01,-2107.09)">
            <g transform="matrix(0.916667,0,0,0.916667,50.6029,176.522)">
                <g transform="matrix(2.04583,0,0,1.28519,508.375,1907.5)">
                    <path d="M58,32L58,30L51,30C48.258,29.997 46.003,27.742 46,25L46,14C45.996,10.162 42.838,7.004 39,7L33.91,7C33.425,4.126 30.912,2 27.997,2C24.707,2 22,4.707 22,7.997C22,7.998 22,7.999 22,8L22,35C22,35.549 22.451,36 23,36L24,36L24,53C24,53.549 24.451,54 25,54L27,54L27,61C27,61.549 27.451,62 28,62C28.549,62 29,61.549 29,61L29,54L31,54C31.549,54 32,53.549 32,53L32,36L33,36C33.549,36 34,35.549 34,35L34,9L39,9C41.742,9.003 43.997,11.258 44,14L44,25C44.004,28.838 47.162,31.996 51,32L58,32ZM30,40L28,40L28,42L30,42L30,44L28,44L28,46L30,46L30,52L26,52L26,44L28,44L28,42L26,42L26,40L28,40L28,38L26,38L26,36L30,36L30,40ZM32,34L24,34L24,30L32,30L32,34ZM32,28L24,28L24,8C24,7.997 24,7.994 24,7.992C24,5.802 25.802,4 27.992,4C29.808,4 31.407,5.24 31.858,7L28,7L28,9L32,9L32,28Z" style="fill:white;fill-rule:nonzero;"/>
                </g>
                <g transform="matrix(2.04583,0,0,1.28519,508.375,1907.5)">
                    <rect x="44" y="53" width="2" height="2" style="fill:white;"/>
                </g>
                <g transform="matrix(2.04583,0,0,1.28519,508.375,1907.5)">
                    <rect x="44" y="57" width="2" height="2" style="fill:white;"/>
                </g>
                <g transform="matrix(2.04583,0,0,1.28519,508.375,1907.5)">
                    <rect x="42" y="55" width="2" height="2" style="fill:white;"/>
                </g>
                <g transform="matrix(2.04583,0,0,1.28519,508.375,1907.5)">
                    <rect x="46" y="55" width="2" height="2" style="fill:white;"/>
                </g>
                <g transform="matrix(2.04583,0,0,1.28519,508.375,1907.5)">
                    <rect x="36" y="48" width="2" height="2" style="fill:white;"/>
                </g>
                <g transform="matrix(2.04583,0,0,1.28519,508.375,1907.5)">
                    <rect x="36" y="52" width="2" height="2" style="fill:white;"/>
                </g>
                <g transform="matrix(2.04583,0,0,1.28519,508.375,1907.5)">
                    <rect x="34" y="50" width="2" height="2" style="fill:white;"/>
                </g>
                <g transform="matrix(2.04583,0,0,1.28519,508.375,1907.5)">
                    <rect x="38" y="50" width="2" height="2" style="fill:white;"/>
                </g>
            </g>
        </g>
    </g>
</svg>
