<?xml version="1.0" encoding="UTF-8"?>
<svg width="100pt" height="100pt" version="1.1" viewBox="0 0 100 100" xmlns="http://www.w3.org/2000/svg">
    <g>
        <path d="m95.312 54.688h-3.125v-4.6875c0-0.41406-0.16406-0.8125-0.45703-1.1055s-0.69141-0.45703-1.1055-0.45703v-0.92188l1.1094-1.0938c0.28906-0.29688 0.44922-0.69531 0.45312-1.1094v-25c0-5.1758-4.1992-9.375-9.375-9.375s-9.375 4.1992-9.375 9.375v25c0.003906 0.41406 0.16406 0.8125 0.45312 1.1094l1.1094 1.0938v0.92188c-0.86328 0-1.5625 0.69922-1.5625 1.5625v4.6875h-6.25v-4.6875c0-0.41406-0.16406-0.8125-0.45703-1.1055s-0.69141-0.45703-1.1055-0.45703v-0.92188l1.1094-1.0938c0.28906-0.29688 0.44922-0.69531 0.45312-1.1094v-14.062c0-4.3164-3.4961-7.8125-7.8125-7.8125s-7.8125 3.4961-7.8125 7.8125v14.062c0.003906 0.41406 0.16406 0.8125 0.45312 1.1094l1.1094 1.0938v0.92188c-0.86328 0-1.5625 0.69922-1.5625 1.5625v4.6875h-3.125v-4.6875c0-0.41406-0.16406-0.8125-0.45703-1.1055s-0.69141-0.45703-1.1055-0.45703v-0.92188l1.1094-1.0938c0.28906-0.29688 0.44922-0.69531 0.45312-1.1094v-14.062c0-4.3164-3.4961-7.8125-7.8125-7.8125s-7.8125 3.4961-7.8125 7.8125v14.062c0.003906 0.41406 0.16406 0.8125 0.45312 1.1094l1.1094 1.0938v0.92188c-0.86328 0-1.5625 0.69922-1.5625 1.5625v4.6875h-6.25v-4.6875c0-0.41406-0.16406-0.8125-0.45703-1.1055s-0.69141-0.45703-1.1055-0.45703v-0.92188l1.1094-1.0938c0.28906-0.29688 0.44922-0.69531 0.45312-1.1094v-25c0-5.1758-4.1992-9.375-9.375-9.375s-9.375 4.1992-9.375 9.375v25c0.003906 0.41406 0.16406 0.8125 0.45312 1.1094l1.1094 1.0938v0.92188c-0.86328 0-1.5625 0.69922-1.5625 1.5625v4.6875h-3.125c-0.86328 0-1.5625 0.69922-1.5625 1.5625v25c0 0.41406 0.16406 0.8125 0.45703 1.1055s0.69141 0.45703 1.1055 0.45703h6.5312c-0.52344 1.4375-0.30859 3.0391 0.56641 4.2891 0.87891 1.2539 2.3125 1.9961 3.8398 1.9961s2.9609-0.74219 3.8398-1.9961c0.875-1.25 1.0898-2.8516 0.56641-4.2891h59.938c-0.52344 1.4375-0.30859 3.0391 0.56641 4.2891 0.87891 1.2539 2.3125 1.9961 3.8398 1.9961s2.9609-0.74219 3.8398-1.9961c0.875-1.25 1.0898-2.8516 0.56641-4.2891h6.5312c0.41406 0 0.8125-0.16406 1.1055-0.45703s0.45703-0.69141 0.45703-1.1055v-25c0-0.41406-0.16406-0.8125-0.45703-1.1055s-0.69141-0.45703-1.1055-0.45703zm-18.75-34.375c0-3.4531 2.7969-6.25 6.25-6.25s6.25 2.7969 6.25 6.25v24.359l-1.1094 1.0938c-0.28906 0.29688-0.44922 0.69531-0.45312 1.1094v1.5625h-9.375v-1.5625c-0.003906-0.41406-0.16406-0.8125-0.45312-1.1094l-1.1094-1.0938zm0 31.25h12.5v3.125h-12.5zm-21.875-20.312c0-2.5898 2.0977-4.6875 4.6875-4.6875s4.6875 2.0977 4.6875 4.6875v13.422l-1.1094 1.0938c-0.28906 0.29688-0.44922 0.69531-0.45312 1.1094v1.5625h-6.25v-1.5625c-0.003906-0.41406-0.16406-0.8125-0.45312-1.1094l-1.1094-1.0938zm0 20.312h9.375v3.125h-9.375zm-18.75-20.312c0-2.5898 2.0977-4.6875 4.6875-4.6875s4.6875 2.0977 4.6875 4.6875v13.422l-1.1094 1.0938c-0.28906 0.29688-0.44922 0.69531-0.45312 1.1094v1.5625h-6.25v-1.5625c-0.003906-0.41406-0.16406-0.8125-0.45312-1.1094l-1.1094-1.0938zm0 20.312h9.375v3.125h-9.375zm-25-31.25c0-3.4531 2.7969-6.25 6.25-6.25s6.25 2.7969 6.25 6.25v24.359l-1.1094 1.0938c-0.28906 0.29688-0.44922 0.69531-0.45312 1.1094v1.5625h-9.375v-1.5625c-0.003906-0.41406-0.16406-0.8125-0.45312-1.1094l-1.1094-1.0938zm0 31.25h12.5v3.125h-12.5zm4.6875 34.375c-0.63281 0-1.2031-0.37891-1.4453-0.96484-0.23828-0.58203-0.10547-1.2539 0.33984-1.7031 0.44922-0.44531 1.1211-0.57812 1.7031-0.33984 0.58594 0.24219 0.96484 0.8125 0.96484 1.4453 0 0.41406-0.16406 0.8125-0.45703 1.1055s-0.69141 0.45703-1.1055 0.45703zm68.75 0c-0.63281 0-1.2031-0.37891-1.4453-0.96484-0.23828-0.58203-0.10547-1.2539 0.33984-1.7031 0.44922-0.44531 1.1211-0.57812 1.7031-0.33984 0.58594 0.24219 0.96484 0.8125 0.96484 1.4453 0 0.41406-0.16406 0.8125-0.45703 1.1055s-0.69141 0.45703-1.1055 0.45703zm9.375-6.25h-87.5v-21.875h87.5z"/>
        <path d="m50 60.938c-3.1602 0-6.0078 1.9023-7.2188 4.8242-1.207 2.918-0.53906 6.2773 1.6953 8.5117 2.2344 2.2344 5.5938 2.9023 8.5117 1.6953 2.9219-1.2109 4.8242-4.0586 4.8242-7.2188-0.003906-4.3125-3.5-7.8086-7.8125-7.8125zm0 12.5c-1.8945 0-3.6055-1.1406-4.332-2.8945-0.72266-1.75-0.32422-3.7656 1.0156-5.1094 1.3438-1.3398 3.3594-1.7383 5.1094-1.0156 1.7539 0.72656 2.8945 2.4375 2.8945 4.332 0 2.5898-2.0977 4.6875-4.6875 4.6875z"/>
        <path d="m29.688 60.938h-15.625c-0.86328 0-1.5625 0.69922-1.5625 1.5625v12.5c0 0.41406 0.16406 0.8125 0.45703 1.1055s0.69141 0.45703 1.1055 0.45703h15.625c0.41406 0 0.8125-0.16406 1.1055-0.45703s0.45703-0.69141 0.45703-1.1055v-12.5c0-0.41406-0.16406-0.8125-0.45703-1.1055s-0.69141-0.45703-1.1055-0.45703zm-1.5625 3.125v6.2969c-1.457-1.9922-3.7812-3.1719-6.25-3.1719s-4.793 1.1797-6.25 3.1719v-6.2969zm-1.8516 9.375h-8.7969c0.65234-1.8711 2.4141-3.125 4.3984-3.125s3.7461 1.2539 4.3984 3.125z"/>
        <path d="m85.938 60.938h-15.625c-0.86328 0-1.5625 0.69922-1.5625 1.5625v12.5c0 0.41406 0.16406 0.8125 0.45703 1.1055s0.69141 0.45703 1.1055 0.45703h15.625c0.41406 0 0.8125-0.16406 1.1055-0.45703s0.45703-0.69141 0.45703-1.1055v-12.5c0-0.41406-0.16406-0.8125-0.45703-1.1055s-0.69141-0.45703-1.1055-0.45703zm-1.5625 3.125v6.2969c-1.457-1.9922-3.7812-3.1719-6.25-3.1719s-4.793 1.1797-6.25 3.1719v-6.2969zm-1.8516 9.375h-8.7969c0.65234-1.8711 2.4141-3.125 4.3984-3.125s3.7461 1.2539 4.3984 3.125z"/>
    </g>
</svg>
