<svg height='100pt' width='100pt'  fill="#000000" xmlns="http://www.w3.org/2000/svg" viewBox="0 0 64 64" x="0px" y="0px"><g><path d="M57,2H7A5,5,0,0,0,2,7V57a5,5,0,0,0,5,5H57a5,5,0,0,0,5-5V7A5,5,0,0,0,57,2Zm3,55a3.009,3.009,0,0,1-3,3H7a3.009,3.009,0,0,1-3-3V11.96H60ZM60,9.96H4V7A3.009,3.009,0,0,1,7,4H57a3.009,3.009,0,0,1,3,3Z"></path><rect x="8" y="6" width="2" height="2"></rect><rect x="12" y="6" width="2" height="2"></rect><rect x="16" y="6" width="2" height="2"></rect><path d="M30.88,32a29.622,29.622,0,0,0,2.43-2.15c2.49-2.49,3.35-4.46,2.55-5.85s-2.95-1.64-6.35-.72a30.766,30.766,0,0,0-3.07,1.03C25.72,19.63,24.27,16,22,16s-3.72,3.63-4.44,8.31a30.766,30.766,0,0,0-3.07-1.03c-3.4-.91-5.54-.67-6.35.72s.06,3.36,2.55,5.85A29.622,29.622,0,0,0,13.12,32a29.622,29.622,0,0,0-2.43,2.15C8.2,36.64,7.34,38.61,8.14,40a3.075,3.075,0,0,0,2.9,1.26,13.761,13.761,0,0,0,3.45-.54,30.766,30.766,0,0,0,3.07-1.03C18.28,44.37,19.73,48,22,48s3.72-3.63,4.44-8.31a30.766,30.766,0,0,0,3.07,1.03,13.761,13.761,0,0,0,3.45.54A3.075,3.075,0,0,0,35.86,40c.8-1.39-.06-3.36-2.55-5.85A29.622,29.622,0,0,0,30.88,32ZM13.97,38.79c-3.03.81-4,.37-4.09.21s.01-1.22,2.23-3.44a28.846,28.846,0,0,1,2.64-2.31c.73.54,1.51,1.07,2.32,1.59.05.96.12,1.9.22,2.82A30.4,30.4,0,0,1,13.97,38.79Zm3.04-6.39c-.2-.13-.38-.27-.57-.4.19-.13.37-.27.57-.4-.01.13-.01.27-.01.4S17,32.27,17.01,32.4Zm.06-3.24c-.81.52-1.59,1.05-2.32,1.59a28.846,28.846,0,0,1-2.64-2.31C9.89,26.22,9.78,25.16,9.88,25c.05-.09.37-.27,1.16-.27a11.886,11.886,0,0,1,2.93.48,30.4,30.4,0,0,1,3.32,1.13C17.19,27.26,17.12,28.2,17.07,29.16Zm7.77-1.29c-.11-.06-.22-.13-.34-.2s-.23-.13-.35-.2c.22-.1.43-.19.64-.29C24.81,27.4,24.83,27.64,24.84,27.87ZM22,18c.64,0,1.88,2.41,2.54,7.09-.83.37-1.68.78-2.54,1.22-.86-.44-1.71-.85-2.54-1.22C20.12,20.41,21.36,18,22,18Zm-2.79,9.18c.21.1.42.19.64.29-.12.07-.23.13-.35.2s-.23.14-.34.2C19.17,27.64,19.19,27.4,19.21,27.18Zm-.05,8.95c.11.06.22.13.34.2s.23.13.35.2c-.22.1-.43.19-.64.29C19.19,36.6,19.17,36.36,19.16,36.13ZM22,46c-.64,0-1.88-2.41-2.54-7.09.83-.37,1.68-.78,2.54-1.22.86.44,1.71.85,2.54,1.22C23.88,43.59,22.64,46,22,46Zm2.79-9.18c-.21-.1-.42-.19-.64-.29.12-.07.23-.13.35-.2s.23-.14.34-.2C24.83,36.36,24.81,36.6,24.79,36.82ZM22,35a3,3,0,1,1,3-3A3.009,3.009,0,0,1,22,35Zm8.03-9.79a11.886,11.886,0,0,1,2.93-.48c.79,0,1.11.18,1.16.27.1.16-.01,1.22-2.23,3.44a28.846,28.846,0,0,1-2.64,2.31c-.73-.54-1.51-1.07-2.32-1.59-.05-.96-.12-1.9-.22-2.82A30.4,30.4,0,0,1,30.03,25.21ZM26.99,31.6c.2.13.38.27.57.4-.19.13-.37.27-.57.4.01-.13.01-.27.01-.4S27,31.73,26.99,31.6ZM34.12,39c-.09.16-1.06.6-4.09-.21a30.4,30.4,0,0,1-3.32-1.13c.1-.92.17-1.86.22-2.82.81-.52,1.59-1.05,2.32-1.59a28.846,28.846,0,0,1,2.64,2.31C34.11,37.78,34.22,38.84,34.12,39Z"></path><rect x="46" y="18" width="10" height="2"></rect><rect x="42" y="18" width="2" height="2"></rect><rect x="42" y="23" width="14" height="2"></rect><rect x="42" y="28" width="14" height="2"></rect><rect x="42" y="33" width="14" height="2"></rect><path d="M30.707,44.293l-1.414,1.414,5,5A1,1,0,0,0,35,51h5V49H35.414Z"></path><rect x="46" y="49" width="10" height="2"></rect><rect x="42" y="54" width="14" height="2"></rect><rect x="42" y="49" width="2" height="2"></rect></g></svg>
