<svg height='100pt' width='100pt'  fill="#000000" xmlns="http://www.w3.org/2000/svg" viewBox="0 0 64 64" x="0px" y="0px"><g data-name="Idea-Art And Design-Light Bulb-Sketch-Graphic"><path d="M56,14a6.007,6.007,0,0,0-5.91,5H45v2h5V53a1,1,0,0,0,2,0,4,4,0,1,1,4,4H8a4,4,0,1,1,4-4,1,1,0,0,0,2,0V21h5V19H13.91A6,6,0,0,0,2,20V53a6,6,0,0,0,6,6H56a6,6,0,0,0,6-6V20A6,6,0,0,0,56,14ZM4,20a4,4,0,0,1,8,0V48.53a5.979,5.979,0,0,0-8,.01ZM60,48.54a5.979,5.979,0,0,0-8-.01V20a4,4,0,0,1,8,0Z"></path><path d="M37.53,19.77A7.983,7.983,0,0,0,37.61,8.3,8,8,0,0,0,26.39,19.7,5.155,5.155,0,0,1,27.96,23H26v2h2v2a2.006,2.006,0,0,0,2,2h4a2.006,2.006,0,0,0,2-2V25h2V23H36.04A5,5,0,0,1,37.53,19.77ZM34,27H30V25h4Zm.01-4H29.99a7.147,7.147,0,0,0-2.2-4.73A5.947,5.947,0,0,1,26,13.78,6.073,6.073,0,0,1,31.9,8a5.991,5.991,0,0,1,4.25,10.32A7.021,7.021,0,0,0,34.01,23Z"></path><path d="M31,16.816V21h2V16.816A3,3,0,0,0,35,14H33a1,1,0,0,1-2,0H29A3,3,0,0,0,31,16.816Z"></path><rect x="31" y="2" width="2" height="2"></rect><rect x="25.5" y="3.474" width="2" height="2" transform="translate(1.314 13.85) rotate(-30.002)"></rect><rect x="21.474" y="7.5" width="2" height="2" transform="translate(3.875 23.712) rotate(-59.998)"></rect><rect x="20" y="13" width="2" height="2"></rect><rect x="21.474" y="18.5" width="2" height="2" transform="translate(-6.739 13.85) rotate(-30.002)"></rect><rect x="40.526" y="18.5" width="2" height="2" transform="translate(3.875 45.712) rotate(-59.998)"></rect><rect x="42" y="13" width="2" height="2"></rect><rect x="40.526" y="7.5" width="2" height="2" transform="translate(1.312 21.898) rotate(-29.995)"></rect><rect x="36.5" y="3.474" width="2" height="2" transform="translate(14.878 34.715) rotate(-60.005)"></rect><path d="M29,37h2V34a1,1,0,0,0-1-1H18a1,1,0,0,0-1,1V46a1,1,0,0,0,1,1h3V45H19V35H29Z"></path><path d="M31,46V43H29v2H27v2h3A1,1,0,0,0,31,46Z"></path><rect x="23" y="39" width="2" height="2"></rect><rect x="27" y="39" width="2" height="2"></rect><rect x="35" y="47" width="2" height="2"></rect><rect x="35" y="51" width="2" height="2"></rect><rect x="31" y="51" width="2" height="2"></rect><rect x="27" y="51" width="2" height="2"></rect><rect x="23" y="43" width="2" height="2"></rect><rect x="23" y="47" width="2" height="2"></rect><rect x="23" y="51" width="2" height="2"></rect><path d="M47,40a7,7,0,1,0-7,7A7.008,7.008,0,0,0,47,40ZM35,40a5,5,0,1,1,5,5A5.006,5.006,0,0,1,35,40Z"></path></g></svg>
