<?xml version="1.0" encoding="UTF-8" standalone="no"?>
<!DOCTYPE svg PUBLIC "-//W3C//DTD SVG 1.1//EN" "http://www.w3.org/Graphics/SVG/1.1/DTD/svg11.dtd">
<svg width="100%" height="100%" viewBox="0 0 100 117" version="1.1" xmlns="http://www.w3.org/2000/svg" xmlns:xlink="http://www.w3.org/1999/xlink" xml:space="preserve" xmlns:serif="http://www.serif.com/" style="fill-rule:evenodd;clip-rule:evenodd;stroke-linejoin:round;stroke-miterlimit:1.41421;">
    <g transform="matrix(1,0,0,1,-2721.5,-168.998)">
        <g transform="matrix(0.977597,0,0,1.5562,2185.01,-2107.09)">
            <g transform="matrix(3.29973,0,0,2.07288,492.685,1433.58)">
                <path d="M45.75,18L44,18L44,17.5C44,16.673 43.327,16 42.5,16L42,16C41.982,16 41.968,16.008 41.95,16.01C41.722,14.866 40.711,14 39.5,14L19.5,14C18.122,14 17,15.122 17,16.5L17,20.5C17,21.878 18.122,23 19.5,23L21,23L21,25C21,25.276 21.224,25.5 21.5,25.5C21.776,25.5 22,25.276 22,25L22,23L23,23L23,27C23,27.276 23.224,27.5 23.5,27.5C23.776,27.5 24,27.276 24,27L24,23L39.5,23C40.711,23 41.722,22.134 41.95,20.99C41.968,20.992 41.982,21 42,21L42.5,21C43.327,21 44,20.327 44,19.5L44,19L45.75,19C46.439,19 47,19.673 47,20.5L47,25.5C47,26.327 46.327,27 45.5,27L32.5,27C31.122,27 30,28.122 30,29.5L30,33L28.5,33C27.673,33 27,33.673 27,34.5L27,48.5C27,49.327 27.673,50 28.5,50L32.5,50C33.327,50 34,49.327 34,48.5L34,45.5L34,43.5L34,34.5C34,33.673 33.327,33 32.5,33L31,33L31,29.5C31,28.673 31.673,28 32.5,28L45.5,28C46.879,28 48,26.878 48,25.5L48,20.5C48,19.122 46.99,18 45.75,18ZM41,20.5C41,21.327 40.327,22 39.5,22L19.5,22C18.673,22 18,21.327 18,20.5L18,16.5C18,15.673 18.673,15 19.5,15L39.5,15C40.327,15 41,15.673 41,16.5L41,20.5ZM43,19.5C43,19.775 42.775,20 42.5,20L42,20L42,17L42.5,17C42.775,17 43,17.224 43,17.5L43,19.5ZM33,45L28,45L28,44L33,44L33,45ZM32.5,49L28.5,49C28.224,49 28,48.775 28,48.5L28,46L33,46L33,48.5C33,48.775 32.776,49 32.5,49ZM32.5,34C32.776,34 33,34.225 33,34.5L33,43L28,43L28,34.5C28,34.225 28.224,34 28.5,34L32.5,34Z" style="fill:white;fill-rule:nonzero;"/>
            </g>
        </g>
    </g>
</svg>
