<?xml version="1.0" encoding="UTF-8" standalone="no"?>
<!DOCTYPE svg PUBLIC "-//W3C//DTD SVG 1.1//EN" "http://www.w3.org/Graphics/SVG/1.1/DTD/svg11.dtd">
<svg width="100%" height="100%" viewBox="0 0 100 72" version="1.1" xmlns="http://www.w3.org/2000/svg" xmlns:xlink="http://www.w3.org/1999/xlink" xml:space="preserve" xmlns:serif="http://www.serif.com/" style="fill-rule:evenodd;clip-rule:evenodd;stroke-linejoin:round;stroke-miterlimit:1.41421;">
    <g transform="matrix(1,0,0,1,0,-14.0793)">
        <path d="M95.82,54.18L14.05,54.18C11.757,54.18 9.87,52.293 9.87,50C9.87,47.707 11.757,45.82 14.05,45.82L95.82,45.82C98.113,45.82 100,47.707 100,50C100,52.293 98.113,54.18 95.82,54.18Z" style="fill:white;fill-rule:nonzero;"/>
    </g>
    <g transform="matrix(1,0,0,1,0,-14.0793)">
        <path d="M35.73,85.92C34.594,85.911 33.509,85.437 32.73,84.61L0,50L32.69,15.39C33.479,14.554 34.58,14.079 35.73,14.079C38.023,14.079 39.911,15.967 39.911,18.26C39.911,19.327 39.502,20.354 38.77,21.13L11.5,50L38.77,78.87C39.474,79.64 39.865,80.647 39.865,81.691C39.865,83.952 38.031,85.824 35.77,85.87L35.73,85.92Z" style="fill:white;fill-rule:nonzero;"/>
    </g>
</svg>
