<?xml version="1.0" encoding="UTF-8" standalone="no"?>
<!DOCTYPE svg PUBLIC "-//W3C//DTD SVG 1.1//EN" "http://www.w3.org/Graphics/SVG/1.1/DTD/svg11.dtd">
<svg width="100%" height="100%" viewBox="0 0 3884 418" version="1.1" xmlns="http://www.w3.org/2000/svg" xmlns:xlink="http://www.w3.org/1999/xlink" xml:space="preserve" xmlns:serif="http://www.serif.com/" style="fill-rule:evenodd;clip-rule:evenodd;stroke-linecap:round;stroke-linejoin:round;stroke-miterlimit:1.5;">
    <g transform="matrix(1,0,0,1,977,-2718.4)">
        <g transform="matrix(0.977597,0,0,1.5562,48.0143,274.911)">
            <g transform="matrix(0.356831,0,0,0.229497,-687.557,1380.14)">
                <ellipse cx="2567.5" cy="1689" rx="21.5" ry="21" style="fill:none;stroke:white;stroke-width:11.33px;"/>
            </g>
        </g>
        <g transform="matrix(0.977597,0,0,1.5562,48.0143,274.911)">
            <g transform="matrix(0.356831,0,0,0.229497,-351.008,1380.14)">
                <ellipse cx="2567.5" cy="1689" rx="21.5" ry="21" style="fill:none;stroke:white;stroke-width:11.33px;"/>
            </g>
        </g>
        <g transform="matrix(0.977597,0,0,1.5562,48.0143,274.911)">
            <g transform="matrix(0.356831,0,0,0.229497,-50.782,1380.14)">
                <ellipse cx="2567.5" cy="1689" rx="21.5" ry="21" style="fill:none;stroke:white;stroke-width:11.33px;"/>
            </g>
        </g>
        <g transform="matrix(0.977597,0,0,1.5562,48.0143,274.911)">
            <g transform="matrix(1.06829,0,0,0.642593,-2785.23,689.493)">
                <path d="M2566,1678L2814,1678" style="fill:none;stroke:white;stroke-width:3px;"/>
            </g>
        </g>
        <g transform="matrix(0.977597,0,0,1.5562,48.0143,274.911)">
            <g transform="matrix(1.29518,0,0,0.642593,-3087.16,689.493)">
                <path d="M2566,1678L2814,1678" style="fill:none;stroke:white;stroke-width:3px;"/>
            </g>
        </g>
        <g transform="matrix(0.977597,0,0,1.5562,48.0143,274.911)">
            <g transform="matrix(1.60449,0,0,0.642593,-3623.34,593.747)">
                <path d="M2566,1678L2814,1678" style="fill:none;stroke:white;stroke-width:3px;"/>
            </g>
        </g>
        <g transform="matrix(0.977597,0,0,1.5562,48.0143,274.911)">
            <g transform="matrix(1.60449,0,0,0.642593,-3210.08,593.747)">
                <path d="M2566,1678L2814,1678" style="fill:none;stroke:white;stroke-width:3px;"/>
            </g>
        </g>
        <g transform="matrix(0.977597,0,0,1.5562,48.0143,274.911)">
            <g transform="matrix(0.288726,0,0,0.642593,405.533,498.001)">
                <path d="M2566,1678L2814,1678" style="fill:none;stroke:white;stroke-width:3px;"/>
            </g>
        </g>
        <g transform="matrix(0.977597,0,0,1.5562,48.0143,274.911)">
            <g transform="matrix(1.14868,0,0,0.642593,-2374.67,689.493)">
                <path d="M2566,1678L2814,1678" style="fill:none;stroke:white;stroke-width:3px;"/>
            </g>
        </g>
        <g transform="matrix(0.977597,0,0,1.5562,48.0143,274.911)">
            <g transform="matrix(4.22155,0,0,0.642593,-9959.45,689.493)">
                <path d="M2566,1678L2814,1678" style="fill:none;stroke:white;stroke-width:3px;"/>
            </g>
        </g>
        <g transform="matrix(0.977597,0,0,1.5562,48.0143,274.911)">
            <g transform="matrix(4.04217,0,0,0.642593,-8452.21,689.493)">
                <path d="M2566,1678L2814,1678" style="fill:none;stroke:white;stroke-width:3px;"/>
            </g>
        </g>
        <g transform="matrix(0.977597,0,0,1.5562,48.0143,274.911)">
            <g transform="matrix(0.585702,0,0,0.642593,-595.87,593.747)">
                <path d="M2566,1678C2742.78,1677.82 2758.87,1529.94 2974.68,1529" style="fill:none;stroke:white;stroke-width:3px;"/>
            </g>
        </g>
        <g transform="matrix(0.977597,0,0,1.5562,48.0143,274.911)">
            <g transform="matrix(0.585702,0,0,0.642593,-1264.59,689.493)">
                <path d="M2566,1678C2742.78,1677.82 2758.87,1529.94 2974.68,1529" style="fill:none;stroke:white;stroke-width:3px;"/>
            </g>
        </g>
        <g transform="matrix(0.977597,0,0,1.5562,48.0143,274.911)">
            <g transform="matrix(0.356831,0,0,0.229497,-430.053,1284.4)">
                <ellipse cx="2567.5" cy="1689" rx="21.5" ry="21" style="fill:none;stroke:white;stroke-width:11.33px;"/>
            </g>
        </g>
        <g transform="matrix(0.977597,0,0,1.5562,48.0143,274.911)">
            <g transform="matrix(0.356831,0,0,0.229497,-16.7846,1284.4)">
                <ellipse cx="2567.5" cy="1689" rx="21.5" ry="21" style="fill:none;stroke:white;stroke-width:11.33px;"/>
            </g>
        </g>
        <g transform="matrix(0.977597,0,0,1.5562,48.0143,274.911)">
            <g transform="matrix(0.356831,0,0,0.229497,396.474,1284.4)">
                <ellipse cx="2567.5" cy="1689" rx="21.5" ry="21" style="fill:none;stroke:white;stroke-width:11.33px;"/>
            </g>
        </g>
        <g transform="matrix(0.977597,0,0,1.5562,48.0143,274.911)">
            <g transform="matrix(0.356831,0,0,0.229497,309.516,1188.65)">
                <ellipse cx="2567.5" cy="1689" rx="21.5" ry="21" style="fill:none;stroke:white;stroke-width:11.33px;"/>
            </g>
        </g>
        <g transform="matrix(0.977597,0,0,1.5562,48.0143,274.911)">
            <g transform="matrix(1.02125,0,0,0.641545,219.382,1782.22)">
                <g>
                    <text x="0px" y="23.851px" style="font-family:'SFProText-Bold', 'SF Pro Text';font-weight:700;font-size:32.052px;fill:white;">School</text>
                    <text x="0px" y="61.185px" style="font-family:'SFProText-Regular', 'SF Pro Text';font-size:21.333px;fill:white;">Yl채neen yht<tspan x="118.281px " y="61.185px ">e</tspan>n채isk<tspan x="182.167px " y="61.185px ">o</tspan>ulu</text>
                </g>
            </g>
        </g>
        <g transform="matrix(0.977597,0,0,1.5562,48.0143,274.911)">
            <g transform="matrix(1.02125,0,0,0.641545,474.85,1685.7)">
                <g>
                    <text x="0px" y="23.851px" style="font-family:'SFProText-Bold', 'SF Pro Text';font-weight:700;font-size:32.052px;fill:white;">Summer J<tspan x="161.623px " y="23.851px ">o</tspan>b</text>
                    <text x="0px" y="61.185px" style="font-family:'SFProText-Light', 'SF Pro Text';font-weight:300;font-size:21.333px;fill:white;">Summer tr<tspan x="103.979px " y="61.185px ">a</tspan>inee at</text>
                    <text x="0px" y="82.518px" style="font-family:'SFProText-Light', 'SF Pro Text';font-weight:300;font-size:21.333px;fill:white;">Mepu Oy</text>
                </g>
            </g>
        </g>
        <g transform="matrix(0.977597,0,0,1.5562,48.0143,274.911)">
            <g transform="matrix(1.02125,0,0,0.641545,891.708,1685.7)">
                <g>
                    <text x="0px" y="23.851px" style="font-family:'SFProText-Bold', 'SF Pro Text';font-weight:700;font-size:32.052px;fill:white;">Summer J<tspan x="161.623px " y="23.851px ">o</tspan>b</text>
                    <text x="0px" y="61.185px" style="font-family:'SFProText-Regular', 'SF Pro Text';font-size:21.333px;fill:white;">Softw<tspan x="57.875px 69.646px 77.458px " y="61.185px 61.185px 61.185px ">are</tspan> de<tspan x="120.75px 131.896px " y="61.185px 61.185px ">ve</tspan>loper</text>
                    <text x="0px" y="82.518px" style="font-family:'SFProText-Regular', 'SF Pro Text';font-size:21.333px;fill:white;">trainee at Int<tspan x="127.031px " y="82.518px ">o</tspan>palo Oy</text>
                </g>
            </g>
        </g>
        <g transform="matrix(0.977597,0,0,1.5562,48.0143,274.911)">
            <g transform="matrix(1.02125,0,0,0.641545,1304.97,1685.7)">
                <g>
                    <text x="0px" y="23.851px" style="font-family:'SFProText-Bold', 'SF Pro Text';font-weight:700;font-size:32.052px;fill:white;">P<tspan x="20.972px 39.877px 54.526px 67.438px 82.65px " y="23.851px 23.851px 23.851px 23.851px 23.851px ">art-t</tspan>ime<tspan x="154.204px 166.772px " y="23.851px 23.851px ">/F</tspan>ull time</text>
                    <text x="0px" y="61.185px" style="font-family:'SFProText-Regular', 'SF Pro Text';font-size:21.333px;fill:white;">Junior softw<tspan x="123.833px 135.604px 143.417px " y="61.185px 61.185px 61.185px ">are</tspan> de<tspan x="186.708px 197.854px " y="61.185px 61.185px ">ve</tspan>loper at</text>
                    <text x="0px" y="82.518px" style="font-family:'SFProText-Regular', 'SF Pro Text';font-size:21.333px;fill:white;">Neur<tspan x="48.292px " y="82.518px ">o</tspan> Ev<tspan x="90.771px " y="82.518px ">e</tspan>nt Labs Oy</text>
                </g>
            </g>
        </g>
        <g transform="matrix(0.977597,0,0,1.5562,48.0143,274.911)">
            <g transform="matrix(1.02125,0,0,0.641545,1218.01,1589.95)">
                <g>
                    <text x="0px" y="23.851px" style="font-family:'SFProText-Bold', 'SF Pro Text';font-weight:700;font-size:32.052px;fill:white;">Ent<tspan x="53.149px 72.415px 86.516px 107.237px 120.791px " y="23.851px 23.851px 23.851px 23.851px 23.851px ">erpre</tspan>neur</text>
                    <text x="0px" y="61.22px" style="font-family:'SFProText-Regular', 'SF Pro Text';font-size:21.368px;fill:white;">Call me if y<tspan x="110.92px " y="61.22px ">o</tspan>u need an<tspan x="221.935px " y="61.22px ">y</tspan>thing!</text>
                </g>
            </g>
        </g>
        <g transform="matrix(0.977597,0,0,1.5562,48.0143,274.911)">
            <g transform="matrix(1.02125,0,0,0.641545,557.485,1782.73)">
                <g>
                    <text x="0px" y="23.851px" style="font-family:'SFProText-Bold', 'SF Pro Text';font-weight:700;font-size:32.052px;fill:white;">High School</text>
                    <text x="0px" y="61.185px" style="font-family:'SFProText-Regular', 'SF Pro Text';font-size:21.333px;fill:white;">S채kyl채n seudun lukio</text>
                </g>
            </g>
        </g>
        <g transform="matrix(0.977597,0,0,1.5562,48.0143,274.911)">
            <g transform="matrix(1.02125,0,0,0.641545,865.383,1782.73)">
                <g>
                    <text x="0px" y="23.851px" style="font-family:'SFProText-Bold', 'SF Pro Text';font-weight:700;font-size:32.052px;fill:white;">Univ<tspan x="71.648px 90.914px 104.467px " y="23.851px 23.851px 23.851px ">ers</tspan>ity</text>
                    <text x="0px" y="61.185px" style="font-family:'SFProText-Regular', 'SF Pro Text';font-size:21.333px;fill:white;">T<tspan x="11.333px " y="61.185px ">a</tspan>mper<tspan x="74.667px " y="61.185px ">e</tspan> Univ<tspan x="137.448px 149.635px 157.552px " y="61.185px 61.185px 61.185px ">ers</tspan>ity of</text>
                    <text x="0px" y="82.518px" style="font-family:'SFProText-Regular', 'SF Pro Text';font-size:21.333px;fill:white;">T<tspan x="11.438px " y="82.518px ">e</tspan>chnology</text>
                </g>
            </g>
        </g>
        <g transform="matrix(3.95161,0,0,1,-11114.8,1347.9)">
            <path d="M2566,1678L2814,1678" style="fill:none;stroke:white;stroke-width:1.39px;"/>
        </g>
    </g>
</svg>
