<?xml version="1.0" encoding="UTF-8" standalone="no"?>
<!DOCTYPE svg PUBLIC "-//W3C//DTD SVG 1.1//EN" "http://www.w3.org/Graphics/SVG/1.1/DTD/svg11.dtd">
<svg width="100%" height="100%" viewBox="0 0 980 980" version="1.1" xmlns="http://www.w3.org/2000/svg" xmlns:xlink="http://www.w3.org/1999/xlink" xml:space="preserve" xmlns:serif="http://www.serif.com/" style="fill-rule:evenodd;clip-rule:evenodd;stroke-linejoin:round;stroke-miterlimit:1.41421;">
    <path d="M735,0C870.22,0 980,109.781 980,245L980,735C980,870.219 870.219,980 735,980L245,980C109.781,980 0,870.219 0,735L0,245C0,109.781 109.78,0 245,0L735,0ZM820,733.983L581.589,504.017L489,581.278L396.411,504.017L158,733.983L820,733.983ZM616,477.596L852.047,271.017L852.047,706.017L616,477.596ZM364,477.596L127.953,271.017L127.953,706.017L364,477.596ZM488,526.017L158,246.017L818,246.017L488,526.017Z" style="fill:white;"/>
</svg>
