<?xml version="1.0" encoding="UTF-8" standalone="no"?>
<!DOCTYPE svg PUBLIC "-//W3C//DTD SVG 1.1//EN" "http://www.w3.org/Graphics/SVG/1.1/DTD/svg11.dtd">
<svg width="100%" height="100%" viewBox="0 0 54 54" version="1.1" xmlns="http://www.w3.org/2000/svg" xmlns:xlink="http://www.w3.org/1999/xlink" xml:space="preserve" xmlns:serif="http://www.serif.com/" style="fill-rule:evenodd;clip-rule:evenodd;stroke-linejoin:round;stroke-miterlimit:1.41421;">
    <g>
        <g transform="matrix(1.08,0,0,1.08,-1.836,-1.296)">
            <path d="M49.7,16.5C51,19.6 51.7,22.8 51.7,26.2C51.7,29.6 51,32.8 49.7,35.9C48.4,39 46.6,41.6 44.4,43.9C42.2,46.1 39.5,47.9 36.4,49.2C33.3,50.5 30.1,51.2 26.7,51.2C23.3,51.2 20.1,50.5 17,49.2C13.9,47.9 11.3,46.1 9,43.9C6.8,41.7 5,39 3.7,35.9C2.4,32.8 1.7,29.6 1.7,26.2C1.7,22.8 2.4,19.6 3.7,16.5C5,13.4 6.8,10.8 9,8.5C11.2,6.3 13.9,4.5 17,3.2C20.1,1.9 23.3,1.2 26.7,1.2C30.1,1.2 33.3,1.9 36.4,3.2C39.5,4.5 42.1,6.3 44.4,8.5C46.6,10.8 48.3,13.5 49.7,16.5ZM34.8,37.7L38.9,18.4C39.1,17.6 39,17 38.6,16.6C38.2,16.2 37.8,16.2 37.2,16.4L13.1,25.7C12.6,25.9 12.2,26.1 12,26.4C11.8,26.7 11.8,26.9 11.9,27.1C12,27.3 12.3,27.5 12.8,27.6L19,29.5L33.3,20.5C33.7,20.2 34,20.2 34.2,20.3C34.3,20.4 34.3,20.5 34.1,20.7L22.5,31.3L22,37.7C22.4,37.7 22.8,37.5 23.3,37.1L26.3,34.2L32.5,38.8C33.8,39.5 34.5,39.1 34.8,37.7Z" style="fill-rule:nonzero;"/>
        </g>
    </g>
</svg>
