<?xml version="1.0" encoding="UTF-8" standalone="no"?>
<!DOCTYPE svg PUBLIC "-//W3C//DTD SVG 1.1//EN" "http://www.w3.org/Graphics/SVG/1.1/DTD/svg11.dtd">
<svg width="100%" height="100%" viewBox="0 0 732 777" version="1.1" xmlns="http://www.w3.org/2000/svg" xmlns:xlink="http://www.w3.org/1999/xlink" xml:space="preserve" xmlns:serif="http://www.serif.com/" style="fill-rule:evenodd;clip-rule:evenodd;stroke-linejoin:round;stroke-miterlimit:1.41421;">
    <rect x="0" y="0" width="731.177" height="776.866" style="fill-opacity:0.01"/>
    <path id="path3" d="M432.623,299.586C432.623,299.586 427.177,248.81 376.797,247.4C326.417,245.99 300.543,285.482 300.543,341.899C300.543,398.316 329.138,443.452 378.157,443.452C427.177,443.452 432.623,387.035 432.623,387.035L526.576,392.676C526.576,392.676 532.108,443.63 492.792,482.505C453.475,521.377 405.217,527.728 371.516,527.464C337.815,527.195 291.089,527.992 245.903,481.712C200.717,435.432 193.049,390.473 193.049,346.309C193.049,302.143 201.618,243.636 255.345,199.269C291.859,169.121 328.874,158.013 365.895,158.013C520.446,158.013 530.826,300.557 530.826,300.557L432.623,299.586Z" style="fill:white;fill-rule:nonzero;"/>
    <g id="g7" transform="matrix(1,0,0,1,-132.125,-197.583)">
        <path id="path9" d="M400.974,256.588L452.622,256.588L452.705,274.51L450.236,274.51C449.431,268.1 447.109,263.761 443.282,261.497C441.136,260.249 437.925,259.567 433.653,259.455L433.653,306.261C433.653,309.533 434.203,311.703 435.308,312.773C436.409,313.843 438.707,314.38 442.198,314.38L442.198,316.636L411.62,316.636L411.62,314.38C414.971,314.38 417.198,313.838 418.306,312.752C419.407,311.669 419.957,309.504 419.957,306.26L419.957,259.454C415.772,259.566 412.557,260.248 410.327,261.496C406.222,263.814 403.904,268.153 403.374,274.509L400.901,274.509L400.974,256.588Z" style="fill:white;fill-rule:nonzero;"/>
        <path id="path11" d="M463.48,314.381C465.771,314.27 467.39,313.935 468.338,313.385C469.935,312.455 470.725,310.707 470.725,308.133L470.725,265.091C470.725,262.591 470.011,260.897 468.595,260.004C467.725,259.488 466.022,259.1 463.48,258.839L463.48,256.583L492.505,256.583L492.505,258.839C489.996,258.983 488.245,259.33 487.272,259.872C485.652,260.789 484.846,262.529 484.846,265.086L484.846,283.524L505.286,283.524L505.286,265.086C505.286,262.529 504.516,260.805 502.98,259.914C502.032,259.368 500.259,259.008 497.659,258.839L497.659,256.583L526.852,256.583L526.852,258.839C524.342,259.037 522.623,259.413 521.702,259.958C520.162,260.855 519.399,262.562 519.399,265.09L519.399,308.132C519.399,310.731 520.251,312.495 521.953,313.425C522.928,313.974 524.566,314.293 526.852,314.38L526.852,316.636L497.659,316.636L497.659,314.38C500.116,314.293 501.864,313.946 502.897,313.338C504.488,312.413 505.286,310.677 505.286,308.136L505.286,287.657L484.846,287.657L484.846,308.136C484.846,310.768 485.707,312.545 487.439,313.47C488.445,313.991 490.136,314.296 492.505,314.379L492.505,316.635L463.48,316.635L463.48,314.381Z" style="fill:white;fill-rule:nonzero;"/>
        <path id="path13" d="M536.045,316.638L536.045,314.382C538.506,314.295 540.25,313.948 541.281,313.34C542.875,312.415 543.672,310.679 543.672,308.138L543.672,265.096C543.672,262.509 542.847,260.774 541.204,259.881C540.254,259.34 538.535,258.992 536.045,258.848L536.045,256.597L585.476,256.597L585.476,274.514L583.381,274.514C582.289,268.787 580.442,264.866 577.832,262.754C575.22,260.642 570.468,259.585 563.57,259.585C560.946,259.585 559.279,259.869 558.564,260.432C557.853,260.998 557.49,262.118 557.49,263.795L557.49,284.361C562.378,284.419 565.692,283.502 567.426,281.605C569.155,279.717 570.484,276.25 571.401,271.212L573.58,271.212L573.58,301.241L571.4,301.241C570.791,296.179 569.538,292.613 567.656,290.543C565.767,288.477 562.382,287.44 557.499,287.44L557.499,308.96C557.499,310.84 557.965,312.122 558.902,312.802C559.836,313.484 561.759,313.823 564.664,313.823C570.136,313.823 574.604,312.723 578.063,310.525C581.525,308.331 584.601,304.207 587.283,298.162L589.667,298.162L586.189,316.645L536.044,316.645L536.044,316.638L536.045,316.638Z" style="fill:white;fill-rule:nonzero;"/>
    </g>
    <g id="g17" transform="matrix(1,0,0,1,-132.125,-197.583)">
        <path id="path19" d="M142.125,820.558C144.941,820.355 146.84,819.744 147.797,818.715C148.763,817.69 149.246,815.599 149.246,812.442L149.246,773.136C149.246,769.798 148.755,767.69 147.777,766.814C146.8,765.934 144.913,765.335 142.125,765.021L142.125,762.764L169.726,762.764C177.042,762.764 182.608,763.995 186.417,766.45C190.235,768.913 192.138,773.136 192.138,779.12C192.138,782.045 191.392,784.785 189.9,787.343C188.404,789.901 185.942,791.962 182.504,793.525C179.907,794.624 177.314,795.293 174.717,795.525C172.116,795.76 168.266,795.872 163.156,795.872L163.156,812.442C163.156,815.714 163.686,817.855 164.748,818.867C165.809,819.88 167.791,820.446 170.696,820.558L170.696,822.814L142.129,822.814L142.129,820.558L142.125,820.558ZM173.372,790.967C176.08,789.174 177.437,785.31 177.437,779.389C177.437,775.339 176.778,772.066 175.466,769.578C174.154,767.091 171.636,765.851 167.926,765.851C166.222,765.851 164.998,766.058 164.26,766.479C163.518,766.901 163.151,767.714 163.151,768.926L163.151,792.793C168.261,792.703 171.668,792.095 173.372,790.967Z" style="fill:white;fill-rule:nonzero;"/>
        <path id="path21" d="M196.414,820.558C199.318,820.413 201.301,819.847 202.363,818.867C203.423,817.884 203.954,815.744 203.954,812.442L203.954,773.136C203.954,769.711 203.328,767.484 202.071,766.442C201.233,765.756 199.346,765.281 196.418,765.021L196.418,762.764L224.02,762.764C229.744,762.764 234.379,763.384 237.926,764.632C244.795,767.144 248.226,771.673 248.226,778.21C248.226,783.041 246.431,786.846 242.832,789.623C240.084,791.706 237.167,793.037 234.096,793.611L252.331,818.908C252.802,819.602 253.305,820.053 253.835,820.275C254.365,820.49 255.023,820.631 255.805,820.689L255.805,822.813L237.906,822.813L217.892,795.049L217.856,795.049L217.856,812.442C217.856,815.566 218.358,817.673 219.364,818.755C220.369,819.841 222.38,820.441 225.396,820.557L225.396,822.813L196.41,822.813L196.41,820.557L196.414,820.557L196.414,820.558ZM229.899,789.732C232.313,788.19 233.522,784.604 233.522,778.992C233.522,775.554 233.06,772.831 232.142,770.835C230.55,767.45 227.646,765.756 223.429,765.756C221.135,765.756 219.636,766.054 218.922,766.649C218.211,767.248 217.857,768.219 217.857,769.574L217.857,792.181C223.473,792.095 227.486,791.277 229.899,789.732Z" style="fill:white;fill-rule:nonzero;"/>
        <path id="path23" d="M313.697,770.095C319.589,776.029 322.537,783.665 322.537,793.004C322.537,802.351 319.593,809.987 313.697,815.913C307.944,821.698 300.756,824.591 292.123,824.591C282.968,824.591 275.492,821.425 269.716,815.091C264.326,809.133 261.63,801.934 261.63,793.487C261.63,784.173 264.451,776.516 270.091,770.532C275.788,764.458 283.128,761.421 292.123,761.421C300.78,761.418 307.973,764.31 313.697,770.095ZM305.36,809.756C306.64,805.475 307.286,799.888 307.286,793.004C307.286,783.549 305.926,776.417 303.197,771.616C300.468,766.81 296.775,764.414 292.104,764.414C285.617,764.414 281.169,768.414 278.763,776.434C277.503,780.682 276.877,786.211 276.877,793.004C276.877,799.921 277.519,805.5 278.803,809.756C281.181,817.648 285.613,821.598 292.099,821.598C298.538,821.599 302.954,817.648 305.36,809.756Z" style="fill:white;fill-rule:nonzero;"/>
        <path id="path25" d="M338.877,770.963C344.578,764.748 351.846,761.637 360.698,761.637C364.244,761.637 367.779,762.327 371.297,763.699C374.812,765.07 377.005,765.752 377.871,765.752C378.797,765.752 379.535,765.426 380.089,764.76C380.644,764.094 381.11,763.083 381.469,761.724L383.855,761.724L383.855,782.504L381.676,782.504C379.61,777.996 377.504,774.434 375.353,771.831C371.337,767.03 366.781,764.633 361.699,764.633C356.17,764.633 352.137,767.12 349.595,772.096C347.054,777.075 345.785,784.071 345.785,793.096C345.785,800.501 346.962,807.109 349.323,812.906C351.68,818.703 356.241,821.604 363.002,821.604C366.661,821.604 369.118,820.81 370.375,819.219C371.101,818.326 371.464,816.963 371.464,815.145L371.464,805.769C371.464,803.075 370.671,801.315 369.079,800.472C368.046,799.951 365.951,799.666 362.8,799.603L362.8,797.352L392.201,797.352L392.201,799.603C389.241,799.719 387.278,800.343 386.317,801.455C385.355,802.567 384.868,804.658 384.868,807.719L384.868,819.046C382.969,820.26 379.898,821.472 375.654,822.687C371.409,823.901 366.662,824.517 361.412,824.517C351.894,824.517 344.282,821.406 338.586,815.187C333.28,809.373 330.631,802.079 330.631,793.319C330.624,784.459 333.376,777.013 338.877,770.963Z" style="fill:white;fill-rule:nonzero;"/>
        <path id="path27" d="M397.475,820.558C400.379,820.413 402.362,819.847 403.423,818.867C404.487,817.884 405.019,815.744 405.019,812.442L405.019,773.136C405.019,769.711 404.389,767.484 403.132,766.442C402.299,765.756 400.411,765.281 397.48,765.021L397.48,762.764L425.082,762.764C430.807,762.764 435.442,763.384 438.988,764.632C445.858,767.144 449.292,771.673 449.292,778.21C449.292,783.041 447.493,786.846 443.895,789.623C441.146,791.706 438.234,793.037 435.162,793.611L453.393,818.908C453.868,819.602 454.371,820.053 454.901,820.275C455.427,820.49 456.09,820.631 456.867,820.689L456.867,822.813L438.967,822.813L418.953,795.049L418.917,795.049L418.917,812.442C418.917,815.566 419.42,817.673 420.424,818.755C421.43,819.841 423.441,820.441 426.46,820.557L426.46,822.813L397.471,822.813L397.471,820.557L397.475,820.557L397.475,820.558ZM430.964,789.732C433.378,788.19 434.587,784.604 434.587,778.992C434.587,775.554 434.129,772.831 433.207,770.835C431.616,767.45 428.711,765.756 424.495,765.756C422.201,765.756 420.705,766.054 419.987,766.649C419.277,767.248 418.922,768.219 418.922,769.574L418.922,792.181C424.534,792.095 428.551,791.277 430.964,789.732Z" style="fill:white;fill-rule:nonzero;"/>
        <path id="path29" d="M461.482,820.558C463.548,820.413 465.211,819.442 466.464,817.648C467.274,816.521 468.435,814.033 469.942,810.181L489.003,761.55L491.39,761.55L510.529,808.231C512.684,813.466 514.288,816.843 515.352,818.367C516.413,819.88 517.921,820.615 519.872,820.557L519.872,822.813L492.103,822.813L492.103,820.557C494.899,820.445 496.734,820.193 497.616,819.821C498.494,819.441 498.932,818.494 498.932,816.953C498.932,816.26 498.709,815.205 498.265,813.788C497.987,812.949 497.608,811.933 497.133,810.751L494.95,805.371L475.69,805.371C474.433,808.9 473.624,811.202 473.26,812.267C472.503,814.557 472.127,816.223 472.127,817.264C472.127,818.536 472.954,819.462 474.6,820.037C475.574,820.355 477.042,820.529 478.997,820.558L478.997,822.814L461.492,822.814L461.492,820.558L461.482,820.558ZM493.687,801.855L485.433,781.297L484.715,781.297L476.968,801.855L493.687,801.855Z" style="fill:white;fill-rule:nonzero;"/>
        <path id="path31" d="M524.942,820.558C528.21,820.529 530.332,819.933 531.312,818.756C532.287,817.587 532.777,815.831 532.777,813.483L532.777,771.27C532.777,768.856 532.215,767.27 531.097,766.51C529.984,765.745 528.001,765.253 525.154,765.018L525.154,762.762L546.764,762.762L563.65,803.898L564.36,803.898L581.142,762.762L602.768,762.762L602.768,765.018C599.864,765.253 597.885,765.808 596.821,766.684C595.759,767.56 595.229,769.712 595.229,773.134L595.229,812.44C595.229,815.712 595.759,817.853 596.821,818.865C597.885,819.878 599.864,820.443 602.768,820.555L602.768,822.811L574.286,822.811L574.286,820.555C576.826,820.468 578.737,820.026 580.026,819.237C581.302,818.439 581.949,816.695 581.949,814.006L581.949,770.576L581.323,770.576L560.299,822.815L557.998,822.815L536.764,771.617L536.38,771.617L536.38,811.794C536.38,814.753 536.916,816.922 537.98,818.286C539.037,819.654 541.383,820.41 545.017,820.555L545.017,822.811L524.952,822.811L524.952,820.559L524.942,820.559L524.942,820.558Z" style="fill:white;fill-rule:nonzero;"/>
        <path id="path33" d="M607.8,820.558C611.067,820.529 613.188,819.933 614.165,818.756C615.143,817.587 615.634,815.831 615.634,813.483L615.634,771.27C615.634,768.856 615.072,767.27 613.958,766.51C612.838,765.745 610.854,765.253 608.006,765.018L608.006,762.762L629.621,762.762L646.502,803.898L647.212,803.898L664,762.761L685.626,762.761L685.626,765.017C682.721,765.252 680.738,765.807 679.678,766.683C678.616,767.559 678.084,769.711 678.084,773.133L678.084,812.439C678.084,815.711 678.616,817.852 679.678,818.864C680.739,819.877 682.721,820.442 685.626,820.554L685.626,822.81L657.143,822.81L657.143,820.554C659.679,820.467 661.594,820.025 662.877,819.236C664.159,818.438 664.805,816.694 664.805,814.005L664.805,770.575L664.18,770.575L643.157,822.814L640.854,822.814L619.616,771.616L619.237,771.616L619.237,811.793C619.237,814.752 619.768,816.921 620.833,818.285C621.894,819.653 624.236,820.409 627.873,820.554L627.873,822.81L607.808,822.81L607.808,820.558L607.8,820.558Z" style="fill:white;fill-rule:nonzero;"/>
        <path id="path35" d="M690.859,820.558C693.292,820.5 695.031,820.194 696.096,819.648C697.827,818.723 698.693,816.941 698.693,814.31L698.693,771.27C698.693,768.658 697.868,766.906 696.219,766.013C695.214,765.468 693.427,765.137 690.862,765.022L690.862,762.765L720.853,762.765L720.853,765.022C718.174,765.137 716.333,765.456 715.324,765.976C713.649,766.865 712.811,768.629 712.811,771.274L712.811,814.314C712.811,816.802 713.482,818.459 714.822,819.306C716.158,820.14 718.169,820.562 720.853,820.562L720.853,822.818L690.862,822.818L690.862,820.558L690.859,820.558Z" style="fill:white;fill-rule:nonzero;"/>
        <path id="path37" d="M726.133,820.558C729.316,820.471 731.37,819.842 732.291,818.673C733.216,817.504 733.672,815.772 733.672,813.483L733.672,771.401C731.047,768.36 729.432,766.574 728.816,766.042C728.202,765.509 727.37,765.166 726.303,765.021L726.303,762.764L744.486,762.764L773.974,799.888L774.394,799.888L774.394,773.785C774.394,770.777 773.867,768.632 772.815,767.343C771.753,766.054 769.647,765.285 766.475,765.021L766.475,762.764L784.91,762.764L784.91,765.021C782.228,765.484 780.431,766.099 779.528,766.876C778.618,767.649 778.169,769.392 778.169,772.091L778.169,824.458L775.778,824.458L738.037,776.951L737.454,776.951L737.454,811.785C737.454,814.521 737.812,816.454 738.539,817.583C739.685,819.422 742.03,820.405 745.58,820.549L745.58,822.805L726.14,822.805L726.14,820.557L726.133,820.557L726.133,820.558Z" style="fill:white;fill-rule:nonzero;"/>
        <path id="path39" d="M799.98,770.963C805.675,764.748 812.949,761.637 821.801,761.637C825.348,761.637 828.88,762.327 832.404,763.699C835.923,765.07 838.109,765.752 838.979,765.752C839.895,765.752 840.638,765.426 841.197,764.76C841.756,764.094 842.214,763.083 842.576,761.724L844.967,761.724L844.967,782.504L842.793,782.504C840.723,777.996 838.616,774.434 836.465,771.831C832.449,767.03 827.888,764.633 822.807,764.633C817.277,764.633 813.245,767.12 810.703,772.096C808.164,777.075 806.891,784.071 806.891,793.096C806.891,800.501 808.072,807.109 810.429,812.906C812.786,818.703 817.347,821.604 824.109,821.604C827.767,821.604 830.223,820.81 831.481,819.219C832.207,818.326 832.573,816.963 832.573,815.145L832.573,805.769C832.573,803.075 831.781,801.315 830.179,800.472C829.147,799.951 827.052,799.666 823.905,799.603L823.905,797.352L853.302,797.352L853.302,799.603C850.341,799.719 848.387,800.343 847.421,801.455C846.459,802.567 845.973,804.658 845.973,807.719L845.973,819.046C844.075,820.26 841.002,821.472 836.759,822.687C832.513,823.901 827.767,824.517 822.521,824.517C812.999,824.517 805.387,821.406 799.687,815.187C794.381,809.373 791.736,802.079 791.736,793.319C791.73,784.459 794.479,777.013 799.98,770.963Z" style="fill:white;fill-rule:nonzero;"/>
        <path id="path41" d="M243.327,909.416C245.669,909.33 247.345,909.011 248.35,908.462C250.054,907.532 250.904,905.772 250.904,903.16L250.904,860.128C250.904,857.541 250.093,855.805 248.474,854.913C247.524,854.368 245.805,854.025 243.324,853.88L243.324,851.624L273.315,851.624L273.315,853.88C269.824,853.996 267.499,854.5 266.338,855.392C265.177,856.285 264.603,858.478 264.603,861.995L264.603,903.986C264.603,905.962 265.098,907.259 266.087,907.899C267.081,908.536 269.015,908.858 271.887,908.858C277.058,908.858 281.39,907.676 284.896,905.321C288.395,902.966 291.423,898.371 293.964,891.544L296.477,891.544L292.998,911.676L243.324,911.676L243.324,909.415L243.327,909.415L243.327,909.416Z" style="fill:white;fill-rule:nonzero;"/>
        <path id="path43" d="M302.946,909.416C305.012,909.271 306.675,908.301 307.928,906.507C308.738,905.379 309.899,902.891 311.403,899.04L330.464,850.408L332.849,850.408L351.993,897.09C354.143,902.325 355.748,905.701 356.808,907.226C357.869,908.738 359.377,909.474 361.332,909.415L361.332,911.672L333.562,911.672L333.562,909.415C336.354,909.304 338.189,909.052 339.07,908.68C339.948,908.3 340.391,907.353 340.391,905.812C340.391,905.118 340.164,904.064 339.721,902.646C339.442,901.807 339.063,900.791 338.588,899.609L336.406,894.229L317.147,894.229C315.89,897.758 315.08,900.06 314.717,901.125C313.964,903.415 313.589,905.08 313.589,906.121C313.589,907.393 314.411,908.319 316.059,908.893C317.036,909.212 318.5,909.385 320.459,909.414L320.459,911.671L302.95,911.671L302.95,909.414L302.946,909.414L302.946,909.416ZM335.147,890.714L326.897,870.157L326.175,870.157L318.431,890.714L335.147,890.714Z" style="fill:white;fill-rule:nonzero;"/>
        <path id="path45" d="M367.128,909.416C370.312,909.33 372.366,908.701 373.284,907.532C374.209,906.363 374.665,904.631 374.665,902.342L374.665,860.26C372.039,857.218 370.42,855.434 369.81,854.9C369.196,854.367 368.358,854.025 367.297,853.88L367.297,851.624L385.476,851.624L414.964,888.748L415.387,888.748L415.387,862.645C415.387,859.637 414.856,857.492 413.799,856.203C412.742,854.917 410.635,854.145 407.468,853.881L407.468,851.625L425.899,851.625L425.899,853.881C423.222,854.344 421.423,854.96 420.522,855.736C419.608,856.508 419.161,858.253 419.161,860.95L419.161,913.317L416.775,913.317L379.033,865.81L378.443,865.81L378.443,900.643C378.443,903.379 378.805,905.313 379.536,906.44C380.681,908.279 383.023,909.263 386.574,909.407L386.574,911.663L367.138,911.663L367.138,909.415L367.128,909.415L367.128,909.416Z" style="fill:white;fill-rule:nonzero;"/>
        <path id="path47" d="M441.496,859.822C447.193,853.607 454.465,850.495 463.317,850.495C466.864,850.495 470.399,851.185 473.913,852.557C477.431,853.929 479.625,854.61 480.491,854.61C481.412,854.61 482.154,854.284 482.708,853.618C483.263,852.953 483.73,851.94 484.088,850.58L486.475,850.58L486.475,871.361L484.296,871.361C482.23,866.853 480.124,863.291 477.973,860.688C473.956,855.886 469.4,853.49 464.318,853.49C458.789,853.49 454.756,855.977 452.214,860.953C449.673,865.932 448.401,872.927 448.401,881.953C448.401,889.357 449.582,895.965 451.944,901.763C454.301,907.56 458.861,910.461 465.622,910.461C469.281,910.461 471.738,909.668 472.995,908.077C473.721,907.184 474.084,905.821 474.084,904.002L474.084,894.626C474.084,891.932 473.29,890.171 471.699,889.329C470.665,888.808 468.571,888.523 465.42,888.461L465.42,886.209L494.82,886.209L494.82,888.461C491.861,888.576 489.898,889.2 488.936,890.312C487.975,891.424 487.488,893.514 487.488,896.576L487.488,907.902C485.589,909.117 482.516,910.328 478.273,911.543C474.028,912.758 469.281,913.374 464.032,913.374C454.509,913.374 446.902,910.263 441.205,904.044C435.899,898.23 433.25,890.937 433.25,882.176C433.242,873.317 435.995,865.871 441.496,859.822Z" style="fill:white;fill-rule:nonzero;"/>
        <path id="path49" d="M529.599,851.624L529.599,853.88C526.276,853.996 524.058,854.528 522.937,855.475C521.824,856.43 521.261,858.599 521.261,861.996L521.261,891.773C521.261,896.293 521.78,899.785 522.814,902.248C524.688,906.822 528.274,909.111 533.581,909.111C540.171,909.111 544.622,906.582 546.939,901.516C548.22,898.735 548.866,894.843 548.866,889.83L548.866,862.644C548.866,859.462 548.301,857.268 547.172,856.069C546.042,854.871 543.829,854.139 540.534,853.875L540.534,851.619L559.38,851.619L559.38,853.875C556.642,854.424 554.839,855.098 553.958,855.896C553.076,856.689 552.642,858.524 552.642,861.384L552.642,889.805C552.642,897.354 550.874,903.184 547.361,907.292C543.841,911.399 538.312,913.449 530.773,913.449C520.912,913.449 514.172,910.399 510.54,904.288C508.613,901.044 507.651,896.863 507.651,891.739L507.651,861.995C507.651,858.657 507.223,856.557 506.375,855.689C505.525,854.834 503.602,854.226 500.618,853.879L500.618,851.623L529.599,851.623L529.599,851.624Z" style="fill:white;fill-rule:nonzero;"/>
        <path id="path51" d="M565.131,909.416C567.196,909.271 568.86,908.301 570.12,906.507C570.928,905.379 572.087,902.891 573.599,899.04L592.655,850.408L595.046,850.408L614.186,897.09C616.336,902.325 617.943,905.701 619.01,907.226C620.067,908.738 621.573,909.474 623.528,909.415L623.528,911.672L595.757,911.672L595.757,909.415C598.553,909.304 600.388,909.052 601.269,908.68C602.148,908.3 602.586,907.353 602.586,905.812C602.586,905.118 602.358,904.064 601.92,902.646C601.636,901.807 601.262,900.791 600.787,899.609L598.604,894.229L579.344,894.229C578.083,897.758 577.274,900.06 576.91,901.125C576.152,903.415 575.78,905.08 575.78,906.121C575.78,907.393 576.603,908.319 578.252,908.893C579.224,909.212 580.69,909.385 582.648,909.414L582.648,911.671L565.139,911.671L565.139,909.414L565.131,909.414L565.131,909.416ZM597.335,890.714L589.085,870.157L588.363,870.157L580.616,890.714L597.335,890.714Z" style="fill:white;fill-rule:nonzero;"/>
        <path id="path53" d="M639.326,859.822C645.027,853.607 652.295,850.495 661.147,850.495C664.693,850.495 668.228,851.185 671.751,852.557C675.269,853.929 677.455,854.61 678.325,854.61C679.247,854.61 679.984,854.284 680.542,853.618C681.101,852.953 681.56,851.94 681.924,850.58L684.313,850.58L684.313,871.361L682.139,871.361C680.073,866.853 677.962,863.291 675.811,860.688C671.795,855.886 667.235,853.49 662.153,853.49C656.624,853.49 652.591,855.977 650.049,860.953C647.508,865.932 646.236,872.927 646.236,881.953C646.236,889.357 647.416,895.965 649.779,901.763C652.133,907.56 656.692,910.461 663.454,910.461C667.112,910.461 669.568,909.668 670.825,908.077C671.552,907.184 671.919,905.821 671.919,904.002L671.919,894.626C671.919,891.932 671.125,890.171 669.529,889.329C668.496,888.808 666.398,888.523 663.25,888.461L663.25,886.209L692.647,886.209L692.647,888.461C689.686,888.576 687.731,889.2 686.766,890.312C685.805,891.424 685.323,893.514 685.323,896.576L685.323,907.902C683.419,909.117 680.348,910.328 676.102,911.543C671.862,912.758 667.115,913.374 661.866,913.374C652.344,913.374 644.732,910.263 639.035,904.044C633.725,898.23 631.081,890.937 631.081,882.176C631.076,873.317 633.824,865.871 639.326,859.822Z" style="fill:white;fill-rule:nonzero;"/>
        <path id="path55" d="M698.446,911.673L698.446,909.416C700.903,909.33 702.646,908.982 703.679,908.375C705.276,907.45 706.069,905.714 706.069,903.172L706.069,860.131C706.069,857.544 705.244,855.809 703.601,854.916C702.651,854.371 700.932,854.028 698.446,853.883L698.446,851.631L747.873,851.631L747.873,869.545L745.782,869.545C744.685,863.817 742.839,859.9 740.23,857.789C737.621,855.677 732.865,854.62 725.967,854.62C723.343,854.62 721.676,854.905 720.961,855.467C720.25,856.033 719.892,857.153 719.892,858.83L719.892,879.396C724.775,879.453 728.089,878.536 729.822,876.639C731.552,874.75 732.882,871.28 733.799,866.247L735.978,866.247L735.978,896.276L733.799,896.276C733.189,891.217 731.936,887.652 730.054,885.582C728.166,883.516 724.78,882.483 719.897,882.483L719.897,904.007C719.897,905.879 720.363,907.16 721.3,907.842C722.234,908.524 724.156,908.863 727.062,908.863C732.534,908.863 737.003,907.763 740.461,905.566C743.924,903.372 746.999,899.248 749.68,893.198L752.065,893.198L748.587,911.682L698.446,911.682L698.446,911.673Z" style="fill:white;fill-rule:nonzero;"/>
    </g>
</svg>
