<?xml version="1.0" encoding="UTF-8" standalone="no"?>
<!DOCTYPE svg PUBLIC "-//W3C//DTD SVG 1.1//EN" "http://www.w3.org/Graphics/SVG/1.1/DTD/svg11.dtd">
<svg width="100%" height="100%" viewBox="0 0 406 282" version="1.1" xmlns="http://www.w3.org/2000/svg" xmlns:xlink="http://www.w3.org/1999/xlink" xml:space="preserve" xmlns:serif="http://www.serif.com/" style="fill-rule:evenodd;clip-rule:evenodd;stroke-linejoin:round;stroke-miterlimit:1.41421;">
    <g transform="matrix(1,0,0,1,-66.5288,-115)">
        <path d="M296,245L338,245L338,207L296,207L296,245ZM246,245L288,245L288,207L246,207L246,245ZM197,245L239,245L239,207L197,207L197,245ZM148,245L189,245L189,207L148,207L148,245ZM98,245L140,245L140,207L98,207L98,245ZM148,199L189,199L189,161L148,161L148,199ZM197,199L239,199L239,161L197,161L197,199ZM246,199L288,199L288,161L246,161L246,199ZM246,153L288,153L288,115L246,115L246,153ZM472,228C472,228 454,211 417,217C413,188 382,171 382,171C382,171 353,206 374,245C368,248 358,252 343,252L68,252C63,271 63,397 201,397C300,397 374,351 409,267C461,271 472,228 472,228Z" style="fill:white;fill-rule:nonzero;"/>
    </g>
</svg>
