<?xml version="1.0" encoding="UTF-8" standalone="no"?>
<!DOCTYPE svg PUBLIC "-//W3C//DTD SVG 1.1//EN" "http://www.w3.org/Graphics/SVG/1.1/DTD/svg11.dtd">
<svg width="100%" height="100%" viewBox="0 0 2270 2500" version="1.1" xmlns="http://www.w3.org/2000/svg" xmlns:xlink="http://www.w3.org/1999/xlink" xml:space="preserve" xmlns:serif="http://www.serif.com/" style="fill-rule:evenodd;clip-rule:evenodd;stroke-linejoin:round;stroke-miterlimit:1.41421;">
    <rect x="0" y="0" width="2270" height="2500" style="fill-opacity:0.0117647;"/>
    <g>
        <path d="M1033.09,31.738C1094.81,-3.59 1175.19,-3.75 1236.86,31.738C1547.1,207.039 1857.44,382.066 2167.62,557.473C2225.97,590.337 2264.99,655.266 2264.4,722.491L2264.4,1777.17C2264.83,1847.18 2221.95,1913.66 2160.4,1945.78C1851.18,2120.12 1542.12,2294.66 1232.95,2469C1169.96,2505.02 1087.95,2502.24 1026.92,2463.27C934.22,2409.53 841.356,2356.05 748.644,2302.37C729.699,2291.07 708.342,2282.08 694.965,2263.72C706.791,2247.78 727.934,2245.79 745.115,2238.83C783.812,2226.53 819.353,2206.77 854.902,2187.61C863.892,2181.45 874.867,2183.81 883.484,2189.32C962.757,2234.77 1041.33,2281.54 1120.87,2326.56C1137.84,2336.36 1155.02,2323.35 1169.52,2315.27C1472.96,2143.77 1776.77,1972.92 2080.16,1801.37C2091.4,1795.96 2097.62,1784.03 2096.7,1771.71C2096.91,1423.79 2096.76,1075.82 2096.81,727.899C2098.09,713.927 2090.01,701.082 2077.38,695.363C1769.23,521.826 1461.24,348.023 1153.15,174.441C1142.25,166.946 1127.78,166.925 1116.85,174.388C808.759,348.023 500.824,521.986 192.73,695.514C180.142,701.241 171.693,713.874 173.191,727.899C173.245,1075.82 173.191,1423.79 173.191,1771.76C172.1,1784.04 178.809,1795.77 189.947,1801.05C272.163,1847.67 354.486,1893.96 436.755,1940.43C483.103,1965.37 540.009,1980.19 591.073,1961.08C636.135,1944.92 667.722,1898.94 666.862,1851.09C667.287,1505.2 666.649,1159.26 667.181,813.431C666.055,798.076 680.621,785.39 695.55,786.835C735.053,786.569 774.61,786.303 814.113,786.941C830.603,786.569 841.95,803.103 839.911,818.573C839.752,1166.65 840.337,1514.73 839.645,1862.81C839.752,1955.58 801.64,2056.52 715.833,2101.91C610.124,2156.67 479.468,2145.05 375.035,2092.54C284.628,2047.42 198.351,1994.17 109.548,1945.82C47.837,1913.88 5.168,1847.14 5.603,1777.18L5.603,722.491C4.956,653.874 45.532,587.766 105.691,555.381C414.858,380.904 723.972,206.294 1033.09,31.738Z" style="fill:white;fill-rule:nonzero;"/>
        <path d="M1302.8,762.323C1437.64,753.644 1582,757.181 1703.33,823.608C1797.28,874.512 1849.36,981.348 1851.02,1085.72C1848.39,1099.8 1833.68,1107.56 1820.24,1106.6C1781.12,1106.54 1741.99,1107.13 1702.86,1106.33C1686.27,1106.97 1676.62,1091.67 1674.54,1077C1663.3,1027.06 1636.06,977.598 1589.06,953.511C1516.91,917.385 1433.25,919.202 1354.57,919.956C1297.13,923.005 1235.36,927.979 1186.7,961.755C1149.34,987.34 1138,1038.99 1151.33,1080.59C1163.9,1110.45 1198.38,1120.09 1226.59,1128.97C1389.09,1171.47 1561.29,1167.24 1720.68,1223.17C1786.68,1245.98 1851.23,1290.3 1873.82,1359.4C1903.37,1452 1890.42,1562.69 1824.53,1637.04C1771.1,1698.22 1693.28,1731.52 1615.66,1749.6C1512.41,1772.62 1405.26,1773.21 1300.4,1762.99C1201.8,1751.75 1099.19,1725.84 1023.08,1658.66C957.988,1602.14 926.197,1514.09 929.353,1429.1C930.106,1414.74 944.397,1404.73 958.147,1405.91C997.544,1405.59 1036.94,1405.49 1076.34,1405.97C1092.07,1404.84 1103.74,1418.44 1104.55,1433.27C1111.82,1480.85 1129.7,1530.79 1171.19,1559C1251.26,1610.66 1351.73,1607.12 1443.41,1608.56C1519.37,1605.19 1604.64,1604.18 1666.62,1553.97C1699.33,1525.34 1709.02,1477.43 1700.18,1436.21C1690.6,1401.42 1654.2,1385.2 1622.94,1374.6C1462.53,1323.86 1288.4,1342.27 1129.54,1284.88C1065.04,1262.09 1002.68,1219 977.899,1152.74C943.324,1058.96 959.167,942.97 1031.96,871.135C1102.93,799.681 1205.39,772.163 1302.8,762.314L1302.8,762.323Z" style="fill:white;fill-rule:nonzero;"/>
    </g>
</svg>
