<?xml version="1.0" encoding="UTF-8" standalone="no"?>
<!DOCTYPE svg PUBLIC "-//W3C//DTD SVG 1.1//EN" "http://www.w3.org/Graphics/SVG/1.1/DTD/svg11.dtd">
<svg width="100%" height="100%" viewBox="0 0 42 45" version="1.1" xmlns="http://www.w3.org/2000/svg" xmlns:xlink="http://www.w3.org/1999/xlink" xml:space="preserve" xmlns:serif="http://www.serif.com/" style="fill-rule:evenodd;clip-rule:evenodd;stroke-linejoin:round;stroke-miterlimit:1.41421;">
    <g transform="matrix(1.14422,0,0,1.09422,0,0)">
        <rect x="0" y="0" width="36" height="41" style="fill-opacity:0.01;"/>
    </g>
    <g transform="matrix(1,0,0,1,-4.404,-3.008)">
        <path d="M23.811,3.008L6.898,34.385L19.291,29.072L23.811,3.008ZM26.189,3.008L29.93,24.514L36.293,21.787L26.189,3.008ZM25.002,7.846L21.484,28.133L28.041,25.322L25.002,7.846ZM37.246,23.553L30.281,26.537L32.449,39L45.596,39L37.246,23.553ZM28.393,27.348L21.076,30.482L19.6,39L30.42,39L28.393,27.348ZM18.883,31.424L10.102,35.186L10.42,39L17.568,39L18.883,31.424ZM8.164,36.018L5.367,37.215L4.404,39L8.412,39L8.164,36.018ZM4.531,41L9.029,46.398L8.58,41L4.531,41ZM10.588,41L11.102,47.168L16.031,47.871L17.223,41L10.588,41ZM32.797,41L33.99,47.869L39.174,47.129L38.152,41L32.797,41ZM40.18,41L41.063,46.287L45.469,41L40.18,41Z" style="fill:white;fill-rule:nonzero;"/>
    </g>
</svg>
