<?xml version="1.0" encoding="UTF-8" standalone="no"?>
<!DOCTYPE svg PUBLIC "-//W3C//DTD SVG 1.1//EN" "http://www.w3.org/Graphics/SVG/1.1/DTD/svg11.dtd">
<svg width="100%" height="100%" viewBox="0 0 409 460" version="1.1" xmlns="http://www.w3.org/2000/svg" xmlns:xlink="http://www.w3.org/1999/xlink" xml:space="preserve" xmlns:serif="http://www.serif.com/" style="fill-rule:evenodd;clip-rule:evenodd;stroke-linejoin:round;stroke-miterlimit:2;">
    <g transform="matrix(1,0,0,1,0,0.000673078)">
        <g transform="matrix(1,0,0,1,0,-0.000673078)">
            <rect x="0" y="0" width="409" height="460" style="fill-opacity:0.01;"/>
        </g>
        <path id="Combined-Shape" d="M221.405,3.967L221.838,4.211L390.635,101.665C400.704,108.463 407.723,120.144 408.295,131.797L408.315,132.289L408.315,327.199C407.889,339.331 401.804,350.197 391.103,357.506L390.635,357.822L221.838,455.276C212.257,460.809 196.668,460.89 186.91,455.52L186.477,455.276L17.68,357.822C7.582,351.202 0.948,340.584 0.036,327.758L0,327.199L0,132.289C0,121.196 7.765,107.61 17.33,101.872L17.68,101.665L186.477,4.211C196.058,-1.322 211.648,-1.403 221.405,3.967ZM68.053,229.744C71.43,371.589 250.736,414.42 319.963,301.309L322.027,297.834L263.124,263.75C223.832,326.647 137.056,295.911 136.104,229.744C139.241,158.668 225.805,137.347 262.038,193.993L263.12,195.733L322.023,161.649C245.259,38.161 67.253,96.844 68.053,229.744ZM303.782,191.154L292.564,191.154L290.693,208.736L280,208.736L280,219.57L289.54,219.57L287.885,235.128L276.859,235.128L276.859,245.962L286.733,245.962L284.688,265.192L296.117,265.192L298.107,245.962L310.763,245.962L308.718,265.192L320.147,265.192L322.137,245.962L332.949,245.962L332.949,235.128L323.258,235.128L324.869,219.57L336.09,219.57L336.09,208.736L325.991,208.736L327.812,191.154L316.594,191.154L314.723,208.736L301.961,208.736L303.782,191.154ZM313.57,219.57L311.915,235.128L299.228,235.128L300.839,219.57L313.57,219.57Z"/>
    </g>
</svg>
