<?xml version="1.0" encoding="UTF-8" standalone="no"?>
<!DOCTYPE svg PUBLIC "-//W3C//DTD SVG 1.1//EN" "http://www.w3.org/Graphics/SVG/1.1/DTD/svg11.dtd">
<svg width="100%" height="100%" viewBox="0 0 306 344" version="1.1" xmlns="http://www.w3.org/2000/svg" xmlns:xlink="http://www.w3.org/1999/xlink" xml:space="preserve" xmlns:serif="http://www.serif.com/" style="fill-rule:evenodd;clip-rule:evenodd;stroke-linejoin:round;stroke-miterlimit:2;">
    <rect x="0" y="0" width="306" height="344" style="fill-opacity:0.01;"/>
    <path id="Combined-Shape" d="M165.869,2.939L166.25,3.153L292.75,76.113C300.275,81.188 305.527,89.898 305.981,98.598L306,99.04L306,244.961C305.681,254.019 301.145,262.134 293.166,267.606L292.75,267.887L166.25,340.847C159.089,344.978 147.447,345.05 140.131,341.061L139.75,340.847L13.25,267.887C5.703,262.944 0.737,255.025 0.033,245.457L0,244.961L0,99.04C0,90.763 5.78,80.633 12.915,76.311L13.25,76.113L139.75,3.153C146.911,-0.978 158.553,-1.05 165.869,2.939ZM153,70.175C96.757,70.175 51,115.932 51,172.175C51,228.418 96.757,274.175 153,274.175C189.294,274.175 223.142,254.644 241.334,223.203L197.191,197.66C188.085,213.399 171.152,223.175 153,223.175C124.878,223.175 102,200.296 102,172.175C102,144.053 124.878,121.175 153,121.175C171.15,121.175 188.083,130.951 197.188,146.687L241.331,121.143C223.139,89.705 189.292,70.175 153,70.175ZM286.166,155.175L274.834,155.175L274.834,166.508L263.5,166.508L263.5,177.841L274.834,177.841L274.834,189.175L286.166,189.175L286.166,177.841L297.5,177.841L297.5,166.508L286.166,166.508L286.166,155.175ZM243.666,155.175L232.334,155.175L232.334,166.508L221,166.508L221,177.841L232.334,177.841L232.334,189.175L243.666,189.175L243.666,177.841L255,177.841L255,166.508L243.666,166.508L243.666,155.175Z"/>
</svg>
