<?xml version="1.0" encoding="UTF-8" standalone="no"?>
<!DOCTYPE svg PUBLIC "-//W3C//DTD SVG 1.1//EN" "http://www.w3.org/Graphics/SVG/1.1/DTD/svg11.dtd">
<svg width="100%" height="100%" viewBox="0 0 306 345" version="1.1" xmlns="http://www.w3.org/2000/svg" xmlns:xlink="http://www.w3.org/1999/xlink" xml:space="preserve" xmlns:serif="http://www.serif.com/" style="fill-rule:evenodd;clip-rule:evenodd;stroke-linejoin:round;stroke-miterlimit:1.41421;">
    <rect x="0" y="0" width="306" height="344.35" style="fill-opacity:0.01;"/>
    <path d="M197.178,197.681L153,172.175L197.178,146.669L197.177,146.669L241.331,121.143C223.139,89.705 189.292,70.175 153,70.175C96.757,70.175 51,115.932 51,172.175C51,190.736 55.984,208.156 64.683,223.165L3.893,258.263C1.491,254.104 0,249.417 0,245.209L0,99.14C0,90.725 5.962,80.397 13.25,76.19L139.75,3.156C147.037,-1.052 158.963,-1.052 166.25,3.156L292.75,76.19C296.393,78.294 299.706,81.927 302.108,86.087L302.108,86.088C304.51,90.247 306,94.932 306,99.14L306,245.209C306,249.417 304.508,254.103 302.107,258.262L243.289,224.303L197.191,197.66L197.178,197.681L302.107,258.262C299.706,262.422 296.394,266.055 292.75,268.159L166.25,341.193C158.963,345.401 147.037,345.401 139.75,341.193L13.25,268.159C9.607,266.056 6.294,262.422 3.893,258.263L64.683,223.165L108.842,197.67C104.492,190.165 102,181.456 102,172.175C102,144.053 124.878,121.175 153,121.175C171.143,121.175 188.07,130.944 197.177,146.669L153,172.175L108.842,197.67L64.683,223.165C82.344,253.636 115.318,274.175 153,274.175C189.294,274.175 223.142,254.644 241.334,223.203L197.178,197.681ZM197.178,197.681C188.069,213.408 171.144,223.175 153,223.175C134.159,223.175 117.672,212.905 108.842,197.67L153,172.175L197.178,197.681ZM243.666,155.175L232.334,155.175L232.334,166.508L221,166.508L221,177.841L232.334,177.841L232.334,189.175L243.666,189.175L243.666,177.841L255,177.841L255,166.508L243.666,166.508L243.666,155.175ZM286.166,155.175L274.834,155.175L274.834,166.508L263.5,166.508L263.5,177.841L274.834,177.841L274.834,189.175L286.166,189.175L286.166,177.841L297.5,177.841L297.5,166.508L286.166,166.508L286.166,155.175Z" style=".svg?sprite;fill-rule:nonzero;"/>
</svg>
