<svg xmlns="http://www.w3.org/2000/svg" viewBox="0 0 64 64" x="0px" y="0px"><g data-name="Browser-Online Learning"><path d="M55,2H5A3,3,0,0,0,2,5V49a3,3,0,0,0,3,3H32.52L36,56.351V61a1,1,0,0,0,1,1H51a1,1,0,0,0,1-1V56.192L53.677,52H55a3,3,0,0,0,3-3V5A3,3,0,0,0,55,2ZM5,4H55a1,1,0,0,1,1,1v5H4V5A1,1,0,0,1,5,4ZM52,50.808l-1.929,4.82A1.012,1.012,0,0,0,50,56v4H38V56a1,1,0,0,0-.219-.625L34,50.649V40a1,1,0,0,1,2,0v6h2V28a1,1,0,0,1,2,0V42h2V38a1,1,0,0,1,2,0v4h2V39a1,1,0,0,1,2,0v3h2V40a1,1,0,0,1,2,0ZM55,50H54V40a3,3,0,0,0-3-3,2.967,2.967,0,0,0-1.471.4,2.955,2.955,0,0,0-4-1A2.94,2.94,0,0,0,42,35.184V28a3,3,0,0,0-6,0v9.184A2.966,2.966,0,0,0,35,37a3,3,0,0,0-3,3V50H5a1,1,0,0,1-1-1V12H56V49A1,1,0,0,1,55,50Z"></path><path d="M13.474,28.851a1,1,0,0,0,.973.044l6-3a1,1,0,0,0,0-1.79l-6-3A1,1,0,0,0,13,22v6A1,1,0,0,0,13.474,28.851ZM15,23.618,17.764,25,15,26.382Z"></path><rect x="6" y="6" width="2" height="2"></rect><rect x="10" y="6" width="2" height="2"></rect><rect x="14" y="6" width="2" height="2"></rect><path d="M20,36a3,3,0,0,0-2.816,2H8v2h9.184a2.982,2.982,0,0,0,5.632,0H26V38H22.816A3,3,0,0,0,20,36Zm0,4a1,1,0,1,1,1-1A1,1,0,0,1,20,40Z"></path><path d="M25,16H9a1,1,0,0,0-1,1V33a1,1,0,0,0,1,1H25a1,1,0,0,0,1-1V17A1,1,0,0,0,25,16ZM24,32H10V18H24Z"></path><rect x="32" y="16" width="20" height="2"></rect><rect x="32" y="20" width="6" height="2"></rect><rect x="40" y="20" width="12" height="2"></rect><rect x="32" y="24" width="2" height="2"></rect><rect x="44" y="24" width="8" height="2"></rect></g></svg>