<?xml version="1.0" encoding="UTF-8" standalone="no"?>
<!DOCTYPE svg PUBLIC "-//W3C//DTD SVG 1.1//EN" "http://www.w3.org/Graphics/SVG/1.1/DTD/svg11.dtd">
<svg width="100%" height="100%" viewBox="0 0 291 410" version="1.1" xmlns="http://www.w3.org/2000/svg" xmlns:xlink="http://www.w3.org/1999/xlink" xml:space="preserve" xmlns:serif="http://www.serif.com/" style="fill-rule:evenodd;clip-rule:evenodd;stroke-linejoin:round;stroke-miterlimit:1.41421;">
    <g id="g3013" transform="matrix(1,0,0,1,-59.7064,0)">
        <g transform="matrix(1.08582,0,0,1.02657,59.7064,0)">
            <rect x="0" y="0" width="268" height="399" style="fill-opacity:0.01"/>
        </g>
        <g id="polygon2989" transform="matrix(1,0,0,1,59.7064,0)">
            <path d="M290.188,80.496L263.751,376.655L144.916,409.6L26.409,376.702L0,80.496L290.188,80.496ZM235.972,141.044L54,141.044L57.302,177.373L196.159,177.373L192.853,214.574L60.542,214.574L63.798,250.902L189.703,250.902L185.486,298.017L144.935,308.965L104.476,298.04L101.889,269.066L65.421,269.066L70.511,326.107L144.927,346.766L219.444,326.107L219.99,319.97L228.527,224.329L229.413,214.574L235.972,141.044ZM60.542,214.574L63.798,250.902L60.542,214.574ZM54,141.044L57.302,177.373L54,141.044Z" style=".svg?sprite;fill-rule:nonzero;"/>
        </g>
        <path id="path2999" d="M128,0L172,0L172,18.4L146.4,18.4L146.4,36.8L172,36.8L172,55.2L128,55.2L128,0Z" style=".svg?sprite;fill-rule:nonzero;"/>
        <path id="path3001" d="M180.8,0L224.8,0L224.8,16L199.2,16L199.2,19.2L224.8,19.2L224.8,56L180.8,56L180.8,39.2L206.4,39.2L206.4,36L180.8,36L180.8,0Z" style=".svg?sprite;fill-rule:nonzero;"/>
        <path id="path3003" d="M233.6,0L277.6,0L277.6,16L252,16L252,19.2L277.6,19.2L277.6,56L233.6,56L233.6,39.2L259.2,39.2L259.2,36L233.6,36L233.6,0Z" style=".svg?sprite;fill-rule:nonzero;"/>
    </g>
</svg>
