<?xml version="1.0" encoding="UTF-8" standalone="no"?>
<!DOCTYPE svg PUBLIC "-//W3C//DTD SVG 1.1//EN" "http://www.w3.org/Graphics/SVG/1.1/DTD/svg11.dtd">
<svg width="100%" height="100%" viewBox="0 0 12 12" version="1.1" xmlns="http://www.w3.org/2000/svg" xmlns:xlink="http://www.w3.org/1999/xlink" xml:space="preserve" xmlns:serif="http://www.serif.com/" style="fill-rule:evenodd;clip-rule:evenodd;stroke-linejoin:round;stroke-miterlimit:2;">
    <circle cx="5.859" cy="5.859" r="5.859" style="fill-opacity:0.01;"/>
    <g id="footer-sample-full-1" transform="matrix(1,0,0,1,-0.140625,-0.140625)">
        <path d="M6,0.141C9.239,0.141 11.859,2.761 11.859,6C11.859,9.239 9.239,11.859 6,11.859C2.761,11.859 0.141,9.239 0.141,6C0.141,2.761 2.761,0.141 6,0.141ZM6,0.346C9.125,0.346 11.654,2.875 11.654,6C11.654,9.125 9.125,11.654 6,11.654C2.875,11.654 0.346,9.125 0.346,6C0.346,2.875 2.875,0.346 6,0.346Z"/>
    </g>
    <g transform="matrix(1,0,0,1,-0.140625,-0.140625)">
        <path d="M9.002,8.488C8.796,9.125 8.488,9.598 8.056,9.947C7.624,10.297 7.049,10.482 6.329,10.544L6.185,9.598C6.658,9.536 7.007,9.433 7.234,9.269C7.316,9.207 7.48,9.022 7.48,9.022L5.774,3.553L7.192,3.553L8.179,7.645L9.228,3.553L10.605,3.553L9.002,8.488L9.002,8.488ZM4.047,3.368C4.376,3.368 4.684,3.41 4.931,3.512C5.198,3.615 5.445,3.759 5.692,3.965L5.116,4.746C4.951,4.623 4.787,4.54 4.643,4.479C4.499,4.417 4.314,4.396 4.15,4.396C3.451,4.396 3.101,4.931 3.101,6.021C3.101,6.576 3.183,6.966 3.368,7.192C3.553,7.439 3.8,7.542 4.15,7.542C4.314,7.542 4.479,7.521 4.623,7.46C4.766,7.398 4.931,7.316 5.137,7.192L5.712,8.015C5.239,8.405 4.705,8.59 4.088,8.59C3.595,8.59 3.183,8.488 2.813,8.282C2.464,8.076 2.176,7.768 1.991,7.377C1.806,6.987 1.703,6.535 1.703,6C1.703,5.486 1.806,5.013 1.991,4.623C2.176,4.211 2.464,3.903 2.813,3.677C3.163,3.492 3.574,3.368 4.047,3.368L4.047,3.368Z" style="fill-rule:nonzero;"/>
    </g>
</svg>
