<svg xmlns="http://www.w3.org/2000/svg" viewBox="0 0 48 48" x="0px" y="0px"><title>Down-Load-Cloud</title>
    <g>
        <path d="M32.112,17.053A9.768,9.768,0,0,0,22.963,11a9.68,9.68,0,0,0-9.814,9.335A6.021,6.021,0,0,0,9,26a6.1,6.1,0,0,0,6.186,6H19V30H15.186A4.1,4.1,0,0,1,11,26a4.047,4.047,0,0,1,3.355-3.917,1,1,0,0,0,.813-1.037c-.01-.182-.02-.364-.02-.546A7.671,7.671,0,0,1,22.963,13a7.85,7.85,0,0,1,7.478,5.314,1,1,0,0,0,.937.7A5.629,5.629,0,0,1,37,24.5a5.471,5.471,0,0,1-5.248,5.48c-.76.02-1.734.02-2.465.02H29v2h.259c.749,0,1.759,0,2.544-.021A7.484,7.484,0,0,0,39,24.5,7.617,7.617,0,0,0,32.112,17.053Z">
        </path>
        <path d="M25,32.585V25H23v7.585l-1.121-1.121-1.414,1.414,2.828,2.829a1,1,0,0,0,1.414,0l2.828-2.829-1.414-1.414Z">
        </path>
    </g>
</svg>