<?xml version="1.0" encoding="UTF-8" standalone="no"?>
<!DOCTYPE svg PUBLIC "-//W3C//DTD SVG 1.1//EN" "http://www.w3.org/Graphics/SVG/1.1/DTD/svg11.dtd">
<svg width="100%" height="100%" viewBox="0 0 1667 2500" version="1.1" xmlns="http://www.w3.org/2000/svg" xmlns:xlink="http://www.w3.org/1999/xlink" xml:space="preserve" xmlns:serif="http://www.serif.com/" style="fill-rule:evenodd;clip-rule:evenodd;stroke-linejoin:round;stroke-miterlimit:2;">
    <rect x="0" y="0" width="1666.83" height="2500" style="fill-opacity:0.01;"/>
    <path id="path0_fill" d="M1250.17,0C1480.17,0 1666.83,186.667 1666.83,416.667C1666.83,646.667 1480.17,833.333 1250.17,833.333L833.5,833.333L833.5,2083.33C833.5,2313.33 646.833,2500 416.833,2500C186.833,2500 0.167,2313.33 0.167,2083.33C0.167,1853.33 186.833,1666.67 416.833,1666.67L415.486,1666.66C186.087,1665.92 0.167,1479.54 0.167,1250C0.167,1020 186.833,833.333 416.833,833.333L415.486,833.331C186.087,832.586 0.167,646.207 0.167,416.667C0.167,186.667 186.833,0 416.833,0L1250.17,0ZM1666.83,1250C1666.83,1480 1480.17,1666.67 1250.17,1666.67C1020.17,1666.67 833.5,1480 833.5,1250C833.5,1020 1020.17,833.333 1250.17,833.333C1480.17,833.333 1666.83,1020 1666.83,1250Z" style="fill-rule:nonzero;"/>
</svg>
