<?xml version="1.0" encoding="UTF-8" standalone="no"?>
<!DOCTYPE svg PUBLIC "-//W3C//DTD SVG 1.1//EN" "http://www.w3.org/Graphics/SVG/1.1/DTD/svg11.dtd">
<svg width="100%" height="100%" viewBox="0 0 1666 1341" version="1.1" xmlns="http://www.w3.org/2000/svg" xmlns:xlink="http://www.w3.org/1999/xlink" xml:space="preserve" xmlns:serif="http://www.serif.com/" style="fill-rule:evenodd;clip-rule:evenodd;stroke-linejoin:round;stroke-miterlimit:2;">
    <rect x="0" y="0" width="1665.93" height="1340.91" style="fill-opacity:0.01;"/>
    <g id="Group" transform="matrix(1,0,0,1,-0.98406,-0.00350159)">
        <g id="Combined-Shape">
            <path d="M342.1,220.2C580,-49.3 991.3,-75 1260.8,162.9L1260.38,166.518L1263.4,163.5C1357.45,246.858 1425.33,355.699 1458.99,476.826L1460,480.5C1590.4,568.7 1668.1,716.3 1666.9,874.1C1664.9,1133.9 1452.6,1342.9 1192.8,1340.9L831,1340.9L828.699,1338.6L468.7,1338.6C367.225,1339.1 268.396,1306.56 187.156,1245.94L184.7,1244.1L185.199,1242.1L184.7,1242.6C70.751,1155.08 3.259,1020.33 1.039,876.85L0.992,872.5C0.045,707.524 84.032,561.889 211.981,477.13L211.99,477.141C208.568,478.028 205.196,479.149 201.9,480.5C228.1,384.1 276,295 342.1,220.2ZM1059.1,369.2C910.3,248.8 693.5,265.3 564.7,406.8C563.456,406.558 562.029,406.992 560.51,407.889C672.144,429.691 773.283,491.626 843.6,583.7L633.8,793.5C615.6,753.4 583.5,721.2 543.4,703.1C452.4,662 345.2,702.5 304.1,793.5C263,884.5 303.5,991.7 394.5,1032.8L394.413,1032.89C417.797,1043.46 443.051,1049 468.7,1049L830.5,1049L830.499,1051.71L831,1051.2L1192.8,1051.2C1292.7,1051.2 1373.7,970.2 1373.7,870.3C1373.7,770.4 1292.7,689.4 1192.8,689.4L1192.8,653.3C1194.88,543.809 1147.15,439.297 1063.22,369.199L1059.1,369.2Z" style="fill-rule:nonzero;"/>
        </g>
    </g>
</svg>
