<?xml version="1.0" encoding="UTF-8" standalone="no"?>
<!DOCTYPE svg PUBLIC "-//W3C//DTD SVG 1.1//EN" "http://www.w3.org/Graphics/SVG/1.1/DTD/svg11.dtd">
<svg width="100%" height="100%" viewBox="0 0 210 194" version="1.1" xmlns="http://www.w3.org/2000/svg" xmlns:xlink="http://www.w3.org/1999/xlink" xml:space="preserve" xmlns:serif="http://www.serif.com/" style="fill-rule:evenodd;clip-rule:evenodd;stroke-linejoin:round;stroke-miterlimit:2;">
    <path id="Fill-4" d="M143.702,74.734L166.974,3.109C168.171,-0.577 173.385,-0.576 174.582,3.109L209.596,110.873C210.667,114.169 209.494,117.78 206.69,119.817L105.061,193.655L105.062,193.655L105.061,193.655L105.061,193.655L105.061,193.655L3.433,119.817C0.628,117.78 -0.545,114.169 0.527,110.873L35.541,3.109C36.738,-0.576 41.952,-0.577 43.149,3.109L66.421,74.734L66.421,74.734L66.421,74.734L143.701,74.734L143.701,74.734L143.702,74.734ZM105.061,193.655L105.062,193.655L105.061,193.655L105.061,193.655ZM105.061,193.655L105.061,193.655L105.061,193.655Z"/>
</svg>
