<?xml version="1.0" encoding="UTF-8" standalone="no"?>
<!DOCTYPE svg PUBLIC "-//W3C//DTD SVG 1.1//EN" "http://www.w3.org/Graphics/SVG/1.1/DTD/svg11.dtd">
<svg width="100%" height="100%" viewBox="0 0 905 433" version="1.1" xmlns="http://www.w3.org/2000/svg" xmlns:xlink="http://www.w3.org/1999/xlink" xml:space="preserve" xmlns:serif="http://www.serif.com/" style="fill-rule:evenodd;clip-rule:evenodd;stroke-linejoin:round;stroke-miterlimit:1.41421;">
    <rect x="0" y="0" width="904.104" height="432.814" style="fill-opacity:0.01;"/>
    <g transform="matrix(1,0,0,1,-48.157,-283.588)">
        <path d="M103.788,453.995C119.918,446.072 137.773,442.312 155.728,443.056C190.458,444.256 209.536,461.867 210.292,496.419C211.137,532.617 210.87,568.503 210.736,604.656C210.736,619.377 206.867,622.755 192.326,622.755L172.181,622.755C159.329,622.755 155.327,618.842 155.06,605.902L155.06,509.004C155.06,494.018 147.989,487.836 132.826,488.459C130.186,488.504 127.555,488.756 124.954,489.215C105.077,493.262 103.92,494.684 103.92,514.962L103.92,601.321C103.92,619.776 100.763,622.888 82.575,622.888L62.432,622.888C52.96,622.888 48.78,618.442 48.157,608.659L48.157,380.487C48.157,363.811 51.715,360.299 68.124,360.299L85.911,360.299C99.697,360.299 103.921,364.167 104.189,378.086C104.589,398.942 104.189,419.797 104.189,440.609C103.788,444.435 103.788,448.57 103.788,453.995Z" style=".svg?sprite;fill-rule:nonzero;"/>
        <path d="M400.665,538.532C399.464,548.136 398.752,560.453 396.217,572.461C392.207,599.511 371.208,620.889 344.232,625.38C325.797,629.339 306.707,629.097 288.379,624.667C265.155,620.192 246.651,602.624 240.975,579.664C232.577,550.703 232.577,519.955 240.975,490.993C249.869,460.576 273.125,444.256 307.19,443.098C319.48,442.443 331.804,443.204 343.921,445.366C376.072,451.815 394.304,473.605 398.441,509.179C399.464,518.209 399.774,526.924 400.665,538.532ZM344.544,539.243C343.921,529.325 343.566,522.566 342.942,515.895C342.552,512.398 341.836,508.946 340.808,505.578C338.767,494.357 328.566,486.501 317.196,487.391C306.106,486.552 296.178,494.235 294.204,505.178C289.161,525.172 289.161,546.107 294.204,566.101C296.279,577.234 306.611,584.868 317.862,583.577C328.521,584.313 338.057,576.989 340.096,566.503C342.069,557.487 343.553,548.372 344.544,539.198L344.544,539.243Z" style=".svg?sprite;fill-rule:nonzero;"/>
        <path d="M756.374,511.583C758.82,492.995 754.684,487.259 736.764,488.103C722.159,489.336 707.648,491.489 693.317,494.55C681.176,496.73 672.283,493.661 670.594,484.235C667.836,468.672 668.904,455.33 681.399,451.595C710.267,442.098 741.16,440.561 770.827,447.147C797.775,453.594 810.848,471.426 810.848,500.51L810.848,603.499C810.848,611.282 810.848,619.287 801.6,622.311C791.302,626.066 779.755,622.889 772.828,614.395L769.982,610.26C754.212,622.876 734.335,629.212 714.172,628.047C670.371,626.447 645.2,584.69 664.233,544.98C673.127,526.081 690.916,520.121 709.283,517.187C725.112,514.828 740.81,513.361 756.374,511.583ZM757.22,541.91C746.591,543.511 737.253,544.399 728.182,546.358C718.721,547.586 711.578,555.541 711.371,565.079C709.372,574.662 714.442,584.319 723.467,588.113C732.361,591.582 751.26,588.113 755.618,582.067C756.455,580.895 756.919,579.501 756.951,578.064C757.22,566.368 757.22,554.716 757.22,541.777L757.22,541.91Z" style=".svg?sprite;fill-rule:nonzero;"/>
        <path d="M438.774,449.281L438.774,426.291C437.965,419.244 442.516,412.692 449.403,410.993C458.471,407.953 467.689,405.37 477.018,403.255C483.753,401.018 491.028,404.666 493.266,411.401C493.864,413.201 494.056,415.113 493.828,416.996C494.139,426.913 493.828,436.741 493.828,447.769L520.198,447.769C533.05,448.081 537.452,452.214 537.987,465.556C538.698,492.593 537.231,494.107 510.505,494.107L494.984,494.107C494.57,496.519 494.288,498.955 494.139,501.398L494.139,558.454C494.139,576.241 499.476,581.666 516.774,582.911C531.938,584.023 536.075,587.359 536.075,599.721C536.608,619.42 532.604,626.091 516.774,627.025C504.217,627.97 491.593,627.328 479.197,625.114C453.45,619.91 439.576,603.188 438.73,575.975C437.974,552.228 438.419,528.436 438.331,504.823L438.331,494.15L422.767,494.15C415.44,494.739 409.017,489.291 408.404,481.966L408.404,480.765C406.268,462.577 409.515,457.73 426.814,452.837L438.774,449.281Z" style=".svg?sprite;fill-rule:nonzero;"/>
        <path d="M632.172,559.878C632.172,590.692 632.75,621.51 632.172,652.326C632.022,687.864 603.09,716.553 567.554,716.401C564.174,716.386 560.799,716.107 557.463,715.562C545.057,714.006 540.653,709.115 540.476,696.263L540.476,684.833C541.01,674.072 544.346,670.336 555.018,668.379C571.471,665.313 576.853,659.129 576.896,641.922L576.896,466.669C576.896,451.815 580.678,447.857 595.575,447.37L615.807,447.37C627.77,447.902 632.26,452.261 632.348,464.31L632.348,559.297L632.172,559.878Z" style=".svg?sprite;fill-rule:nonzero;"/>
        <path d="M880.576,459.953C895.144,449.501 912.503,443.631 930.427,443.099C948.214,443.099 952.306,446.835 952.261,464.445L952.261,472.361C952.261,483.746 947.548,487.792 936.43,488.948C925.965,490.225 915.575,492.051 905.302,494.418C898.41,495.887 895.785,500.066 895.919,507.759C896.451,539.91 895.919,571.794 895.919,603.769C895.919,619.466 892.493,622.756 876.618,623.068L853.717,623.068C847.133,623.606 841.359,618.705 840.821,612.119C840.757,611.324 840.77,610.522 840.866,609.729L840.866,461.821C840.356,455.235 845.283,449.481 851.869,448.971C851.878,448.969 851.886,448.969 851.894,448.969L852.427,448.969C863.5,447.102 875.15,445.368 880.576,459.953Z" style=".svg?sprite;fill-rule:nonzero;"/>
        <path d="M626.213,416.063C636.264,379.954 632.662,361.766 615.006,358.252C617.719,370.526 620.742,383.111 607.848,391.604C601.087,396.051 595.752,394.361 583.789,385.156C578.274,396.496 580.143,407.791 582.677,419.886C565.513,416.907 551.993,409.791 545.725,393.205C539.257,378.136 542.799,360.637 554.618,349.269C558.747,345.077 563.21,341.225 567.958,337.751C587.259,323.254 590.993,309.202 580.81,287.412C580.355,286.164 579.984,284.887 579.7,283.588C601.159,286.849 621.453,295.459 638.709,308.625C676.332,339.397 671.797,394.672 630.261,414.996C628.856,415.104 627.484,415.464 626.213,416.063Z" style=".svg?sprite;fill-rule:nonzero;"/>
    </g>
</svg>
