<?xml version="1.0" encoding="UTF-8" standalone="no"?>
<!DOCTYPE svg PUBLIC "-//W3C//DTD SVG 1.1//EN" "http://www.w3.org/Graphics/SVG/1.1/DTD/svg11.dtd">
<svg width="100%" height="100%" viewBox="0 0 363 512" version="1.1" xmlns="http://www.w3.org/2000/svg" xmlns:xlink="http://www.w3.org/1999/xlink" xml:space="preserve" xmlns:serif="http://www.serif.com/" style="fill-rule:evenodd;clip-rule:evenodd;stroke-linejoin:round;stroke-miterlimit:1.41421;">
    <g transform="matrix(0.708594,0,0,1,0,0)">
        <rect x="0" y="0" width="512" height="512" style="fill-opacity:0.01;"/>
    </g>
    <g transform="matrix(1,0,0,1,-74.6,0)">
        <path d="M108.4,0L131.4,0L131.4,22.8L152.6,22.8L152.6,0L175.6,0L175.6,69L152.6,69L152.6,46L131.6,46L131.6,69L108.4,69M206,23L185.7,23L185.7,0L249.4,0L249.4,23L229,23L229,69L206,69M259.5,0L283.6,0L298.4,24.3L313.2,0L337.3,0L337.3,69L314.3,69L314.3,34.8L298.2,59.6L282.1,34.8L282.1,69L259.5,69M348.7,0L371.7,0L371.7,46.2L404.3,46.2L404.3,69L348.7,69" style=".svg?sprite;fill-rule:nonzero;"/>
    </g>
    <g transform="matrix(1,0,0,1,-74.6,0)">
        <path d="M107.6,471L74.6,100.6L437.4,100.6L404.4,470.8L255.7,512L107.6,471ZM361.3,268.2L196,268.2L154.4,313.5L311.8,313.6L306.5,372.6L255.9,386.173L255.8,433.4L255.9,386.173L205.2,372.6L202,336.3L156.4,336.3L162.8,407.6L255.8,433.4L348.8,407.6L361.3,268.2ZM369.6,176.3L365.4,221.7L369.6,176.3ZM154.4,313.5L196,268.2L191.8,221.7L365.4,221.7L369.6,176.3L142,176.3L154.4,313.5Z" style=".svg?sprite;fill-rule:nonzero;"/>
    </g>
</svg>
