<svg viewBox="0 0 345 387" xmlns="http://www.w3.org/2000/svg" xml:space="preserve" style="fill-rule:evenodd;clip-rule:evenodd;stroke-linejoin:round;stroke-miterlimit:2"><path d="m192.5 6 149.4 89.8v179.4L192.5 365 43.1 275.2V95.8L192.5 6Z" style="fill-opacity:.01" transform="matrix(.9994 0 0 1.07775 -20 -6.5)"/><path d="M169.4 0h4.1l.3.1h1.1l.3.1h1.1l.2.1h.6l.3.1h.5l.3.1h.5l.3.1h.3l.2.1h.6l.3.1h.2l.3.1h.3l.2.1h.3l.3.1h.2l.3.1h.3l.3.1h.2l.3.2h.5l.3.1.3.1h.2l.3.1.3.1h.2l.3.1.3.1h.2l.3.1.3.1h.3v.1h.2l.3.2h.3l.2.1h.3l.3.2h.2l.3.2.8.2.5.2h.3l.2.2h.3l.3.2h.2l.3.2h.3l.2.2h.3l.2.2h.3l.3.2h.2l.3.2h.3V5l.2.1.3.1.2.1.3.1.2.1.3.2h.3l.2.2.3.1.2.1.3.1.2.2h.3l.2.2.3.1.3.2h.2l.2.2.3.1.3.2h.2v.1l.3.1.2.2h.3V8l.2.1.3.2.2.1.3.2.2.1.2.2.3.1 113.3 66.6h.2v.1l.2.1.2.2h.2v.1l.2.1.2.1.2.2h.2l.2.2.2.1.2.2h.2v.1l.2.1.2.2h.2l.2.2.2.1.2.2.2.1.2.1.2.2.2.1.2.2h.2v.1l.1.1.2.2h.2v.1l.2.1.2.2.2.1.2.2.2.1.2.2.2.1.3.3.4.3.4.3.3.3.4.3.3.3.4.4.3.3.4.3.3.3.4.3.3.3.4.4.3.3.3.3.4.4.3.3.3.4.3.3.3.3.4.4.3.4.3.3.3.4.3.3.3.4.3.3.3.4.3.4.3.3.2.4.3.4.3.4.3.3.3.4.2.4.3.4.3.4.2.4.3.4.2.4.3.3.2.4.3.5.2.3.3.5.2.3.2.4.3.5.2.4.2.4.2.4.2.4.3.4.2.5.2.4.2.4.2.4.2.5.2.4.1.4.2.4.2.5.2.4.1.4.2.5.2.4.2.5.1.4.2.4.1.5.2.4.1.5.1.4.2.5.1.4.2.5v.4h.1l.1.5.1.4.2.5v.4l.2.5.1.5.1.4.1.5v.5h.1v.4l.2.5v.4l.1.5.1.5v.5l.1.4v.3l.1.2v.7h.1v.7l.1.3v.7l.1.2v1.3l.1.2v145.3l-.1.2v.8l-.1.2v.8l-.1.2v.5l-.1.3v.2l-.1.3v.5l-.1.2v.5l-.1.2v.3l-.1.2v.5l-.1.3v.2l-.1.2v.3l-.1.2v.3l-.1.2v.3l-.1.2v.2l-.1.3v.2l-.1.2v.3l-.1.2-.1.2v.3l-.1.2-.1.3v.2l-.1.3v.2h-.1v.2l-.1.3-.1.2v.2l-.2.3v.5h-.1v.2l-.5 1.2-.2.7-.2.5v.2l-.1.2-.1.3-.1.2v.2l-.2.3v.2l-.2.2v.3l-.1.2-.1.2-.1.2-.1.3-.1.2-.1.2-.1.3-.1.2-.1.2-.1.2-.1.3-.1.2-.1.2-.1.2-.1.2-.1.3-.1.2-.1.2-.2.2v.3l-.2.2v.2l-.2.2-.1.2-.1.3-.1.2-.1.2-.2.2v.2h-.1l-.1.3-.1.2-.2.2v.2l-.2.2-.1.2-.1.2-.2.2v.3h-.1l-.1.2-.1.2-.2.2v.2h-.1l-.1.2-.2.2v.2h-.1l-.1.2-.2.2-.1.2-.1.2-.2.2-.1.2-.1.2-.2.2-.1.2-.2.2-.1.2-.1.2-.2.2-.1.3-.2.2-.1.2-.2.2-.1.2-.2.1-.1.2-.2.2-.1.2-.2.2-.1.2-.2.2-.1.2-.2.2-.1.2-.2.2-.2.2-.1.1-.2.2-.1.2-.2.2-.2.2-.1.2-.2.2-.1.2-.2.2-.2.1-.1.2-.2.2-.2.2-.1.2-.2.2-.2.1-.2.2-.1.2-.2.2-.2.2-.2.2-.1.1-.4.4-.2.2-.1.1-.2.2-.2.2-.2.1-.2.2-.1.2-.2.2-.2.1-.2.2-.2.2-.2.1-.1.2-.2.2-.2.1-.2.2-.2.1-.2.2-.2.2-.2.1-.2.2-.2.2-.2.1-.2.2-.2.1-.1.2-.2.2-.2.1-.2.2-.2.1-.2.2-.2.1-.2.2-.2.1-.2.2-.2.1-.2.2-.2.1-.2.2-.3.1-.2.1-.2.2-.2.1-.2.2-.2.1-.2.2-.2.1-.2.1-.3.2-.2.1-.2.2h-.2l-.2.2-.2.2h-.2v.1l-.3.1-.2.2h-.2v.1l-.2.1-.2.2h-.3v.1l-.2.1-.2.1-.2.2h-.3l-115.9 64.7h-.2v.1l-.2.1-.2.1-.2.1-.3.2h-.2l-.2.2h-.2l-.2.2h-.2l-.3.2-.2.1-.2.1-.2.1-.2.1-.2.1-.2.1-.2.1-.3.1-.2.1-.2.1-.2.1-.2.1-.3.1-.2.1-.2.1-.2.1-.2.1-.3.1h-.2v.1h-.2l-.2.2h-.3l-.2.1-.2.1-.2.1-.3.1h-.2v.1h-.2l-.2.2h-.3l-.2.1h-.2v.1l-.5.1-.2.1h-.2l-.2.2h-.3l-.2.1h-.2l-.3.2h-.4v.1l-.5.1-.4.2h-.5l-.5.2-.4.1-.5.1-.4.1h-.1l-.4.2h-.5l-.4.2h-.5l-.5.1-.5.1-.4.1h-.5v.1h-.5l-.4.1-.5.1h-.5l-.4.2h-1l-.5.1h-.4l-.4.1h-1l-.5.1h-1.9l-.4.1H165.7v-.1h-.9l-.5-.1h-.5l-.4-.1h-1v-.1h-.5l-.4-.1h-.5l-.5-.1-.4-.1h-.5l-.5-.2h-.4l-.5-.1-.4-.1-.5-.1-.5-.1-.4-.1h-.1l-.4-.1-.5-.1-.4-.1-.5-.2h-.5v-.1l-.4-.1-.5-.1-.4-.2h-.1l-.4-.1-.5-.2-.4-.1-.5-.1-.2-.1h-.3v-.1h-.2l-.2-.1-.2-.1-.3-.1h-.2v-.1h-.2l-.2-.1-.3-.1-.2-.1-.2-.1-.2-.1-.3-.1h-.2v-.1h-.2l-.2-.2h-.3l-.2-.1-.2-.1-.3-.1-.2-.1-.2-.1-.2-.1-.2-.1-.3-.1-.2-.1-.2-.1-.2-.1-.3-.1-.2-.1-.2-.1-.2-.1-.2-.1-.2-.1-.3-.1-.2-.2h-.2l-.2-.2-.2-.1-.2-.1-.3-.1-.2-.1-.2-.1-.2-.2h-.2v-.1l-.2-.1-.2-.1-.3-.1-.2-.1-.2-.2h-.2v-.1L34.6 317.6l-.2-.1-.3-.1-.2-.2-.3-.1-.2-.2-.3-.1-.2-.2-.3-.1-.2-.2-.3-.2h.1l-.2-.1-.3-.2-.2-.1-.3-.2-.2-.2-.2-.1-.3-.2-.2-.2-.3-.1-.2-.2-.2-.2-.3-.1-.2-.2-.2-.2-.3-.1-.2-.2-.2-.2-.3-.2-.2-.1-.2-.2-.3-.2-.2-.2-.2-.1-.2-.2-.2-.2-.3-.2-.2-.2-.2-.1-.2-.2-.2-.2-.2-.2-.3-.2-.2-.1-.2-.2-.2-.2-.2-.2-.2-.2-.3-.2-.2-.2-.2-.1-.2-.2-.2-.2-.2-.2-.2-.2-.2-.2-.2-.2-.5-.4-.1-.2-.3-.2-1.2-1.2-.1-.2-.3-.2-.1-.2-.2-.2-.2-.2-.2-.2-.2-.2-.2-.3-.2-.2-.2-.2-.2-.2-.1-.2-.2-.2-.2-.2-.2-.2-.2-.3-.2-.2-.2-.2-.1-.2-.2-.2-.2-.2-.2-.2-.2-.2-.2-.3-.1-.2-.2-.2-.2-.2-.2-.2-.1-.3-.2-.2-.2-.2-.1-.2-.2-.3-.2-.2-.1-.2-.2-.2-.2-.3-.1-.2-.2-.2-.2-.2-.1-.3-.2-.2-.1-.2-.2-.3-.3-.4-.2-.3-.1-.2-.2-.2-.1-.3-.2-.2-.3-.5-.2-.2v-.2h-.1l-.1-.3-.2-.2-.1-.3-.2-.2-.1-.2-.2-.3-.1-.2-.2-.3-.1-.2-.1-.3-.2-.2-.1-.2-.1-.3-.2-.3-.1-.2-.1-.2-.2-.3v-.3l-.2-.2-.1-.3-.2-.2v-.3h-.1l-.1-.2-.1-.2-.2-.3v-.2l-.2-.3-.1-.3-.1-.2-.1-.3-.2-.2v-.3l-.2-.2-.1-.3-.1-.2-.1-.3-.2-.2v-.3l-.2-.2v-.3l-.2-.3v-.2l-.2-.3v-.2h-.1v-.3h-.1v-.3h-.1v-.2h-.1v-.3h-.1v-.2h-.1v-.3L4 281l-.2-.5v-.3l-.2-.2v-.3l-.5-1.3v-.3l-.2-.3v-.3l-.1-.2-.1-.3v-.3l-.2-.3v-.2l-.1-.3v-.3h-.1v-.2l-.1-.3v-.3h-.1v-.2l-.1-.3v-.3l-.1-.2-.1-.3v-.3l-.1-.2-.1-.3v-.3l-.1-.3-.1-.2v-.3l-.2-.5v-.6l-.1-.3v-.3H1v-.3l-.1-.3v-.5l-.1-.3v-.3l-.1-.2v-.3l-.1-.3v-.5l-.1-.3v-.6l-.1-.3v-.5l-.1-.3v-.6l-.1-.3v-.5l-.1-.3V262l-.1-.2V259.4l-.1-.3V129l.1-.3V127.1l.1-.3v-.8l.1-.3v-.6l.1-.3v-.5l.1-.3v-.6l.1-.3v-.6l.1-.2v-.3l.1-.3v-.3l.1-.3v-.5l.2-.3v-.6l.1-.2v-.3l.1-.3v-.3l.1-.2.1-.3v-.3l.1-.3v-.2l.1-.3v-.3h.1v-.3l.1-.3v-.2l.1-.3.1-.3v-.3l.1-.2.1-.3v-.3l.2-.3v-.2l.1-.3v-.3h.1v-.3l.2-.2v-.3l.1-.3.1-.2v-.3l.2-.3v-.2l.1-.3.1-.3.1-.2.4-1.1v-.3l.2-.2v-.3l.1-.3.1-.2.1-.3.1-.2.1-.3.1-.3.1-.2.1-.3.2-.2v-.3l.2-.3v-.3h.1l.1-.2.1-.3.1-.3.1-.2.1-.3.2-.2v-.3l.2-.2.1-.3.1-.3.2-.2v-.3l.2-.2.1-.3.1-.2.2-.3v-.2l.2-.3.1-.2.2-.3v-.2H8l.1-.3.2-.2V99l.2-.2.1-.3.2-.2.1-.2.2-.3v-.2h.1l.1-.3.2-.2.1-.3.1-.2.2-.2.1-.3.2-.2.1-.3.2-.2.1-.2.2-.3.1-.2.2-.3.1-.2.2-.2.1-.3.2-.2.1-.2.2-.3.1-.2.2-.2.1-.3.2-.2.2-.2.1-.2.2-.3.2-.2.1-.2.2-.3.2-.2.1-.2.2-.2.2-.3.1-.2.2-.2.2-.2.1-.2.2-.3.2-.2.2-.2.2-.2.1-.2.2-.3.2-.2.2-.2.2-.2.1-.2.2-.2.2-.3.2-.2.2-.2.1-.2.2-.2.2-.2.2-.2.2-.3.2-.2.2-.2.2-.2.1-.2.2-.2.2-.2.2-.2.2-.2.2-.2.7-.7.1-.1 1.5-1.5.2-.1.2-.2.2-.2.2-.2.2-.2.2-.2.2-.2.2-.2.2-.1.3-.2.2-.2.2-.2.2-.2.2-.2.3-.1.2-.2.2-.2.2-.2.2-.2.3-.1.2-.2.2-.2.2-.2.3-.2.2-.1.2-.2.2-.2.3-.2.2-.1.2-.2.3-.2.2-.1.2-.2.2-.2.3-.1.2-.2.3-.2.2-.1.2-.2.3-.2.2-.1.2-.2.3-.1.2-.2.3-.2.2-.1.3-.2.2-.1.2-.2.3-.1.2-.2 100.5-62h.3v-.1l.2-.1.2-.2.3-.1.2-.2.3-.1.2-.2.3-.1.2-.2h.3v-.1l.2-.1.3-.2.2-.1.3-.1.2-.2.3-.1.2-.2h.3l.2-.2.3-.1.2-.2h.3l.3-.2.2-.1.3-.1.2-.2h.3v-.1l.3-.1.2-.1.3-.1.2-.2h.3l.2-.2h.3v-.1l.3-.1.2-.1.3-.1.2-.1.3-.1.3-.1.2-.2h.3l.3-.2h.2l.3-.2h.3l.2-.2h.3l.6-.2.2-.1.3-.1.2-.1h.3v-.1l.8-.3h.3l.2-.1.3-.1h.2l.3-.2h.3l.2-.1h.3v-.1h.3l.3-.1.2-.1h.3v-.1h.3l.2-.1h.3V2h.3l.2-.1h.3l.3-.2h.5l.3-.1h.3v-.1h.2l.3-.1h.3l.3-.1h.2l.3-.1h.3l.3-.1h.2l.3-.1h.3l.3-.1h.2l.3-.1h.3l.3-.1h.5l.3-.1h.5l.3-.1h.6l.2-.1H163l.2-.1H164.2l.3-.1h1.1l.2-.1h2.3l.2-.1H169.4V0Zm-.2 27H167l-.2.1h-.6l-.6.1H165.2l-.3.1h-.2l-.6.1h-.5l-.2.1-1 .2h-.4l-.2.1h-.5l-.5.2h-.3l-1.6.5H158.6l-.2.1h-.1l-.8.3h-.2l-.1.1h-.2l-.3.2h-.2l-.3.1h-.1l-.5.3H155.3l-.3.2h-.2l-.5.3H154l-.1.2-.5.2h-.1l-.2.1h-.1l-.5.3h-.1l-.3.2-.3.2h-.2l-.1.1h-.2l-.7.5h-.2l-.1.1-.2.1-.1.1-.5.3h-.1l-.2.1-.1.1-.3.2-.2.1L48.2 95l-.1.1-.2.1-1.5 1-.1.1-.3.2-.2.1-.8.6-.2.1v.1l-1 .7-.3.3-.2.1-.3.2v.2h-.2l-.3.3-.2.2-.3.2-1.4 1.4h-.2v.2l-.2.1-.1.2h-.2v.2l-.2.1-.1.2-.3.2-.2.3-.4.4-.4.5-.2.1v.1l-.3.3-.1.1-.1.2-.1.1-.2.1v.2l-.7.8-.1.2-.5.5-.3.4v.2l-.3.3v.1l-.5.6v.1l-.2.2v.1l-.2.2v.1l-.1.2-.4.6-.2.3-.9 1.5v.1l-.3.3v.2l-.1.1-.3.5-.1.3-.1.2v.1l-.2.2v.1l-.4.8-.7 1.5v.1l-.1.2v.2l-.3.4v.2l-.1.2v.1l-.1.2-.1.2v.1l-.1.2v.1l-.3.6V118.4l-.1.2v.1l-.1.2v.2l-.1.1-.1.3v.2l-.2.2V120.2l-.3.9v.3l-.1.2v.1l-.1.2-.1.4v.1l-.3 1V124l-.2.7v.3l-.1.4-.1.5v.5l-.1.2v.4l-.2 1v1.1l-.2 1.8v130l.1.2V262.2l.1.2v.6l.1.2v.7l.1.2v.2l.1.6v.2l.2.7v.2l.1.5.1.3v.2l.3 1.2v.1l.1.2.1.5v.2l.1.1v.4l.1.1v.2l.2.3v.2l.1.3v.2l.1.2.3.6V272.1l.6 1.5.2.3.3.8.7 1.8.1.1v.2l.2.1v.2l.5.9.1.1.2.5.2.3.3.4v.2l.1.1.1.2.1.1.1.2.2.3.3.5.2.3.1.2.1.1.1.2.2.2.2.3v.2l.8 1 .2.2.4.6.2.2.1.2.1.1.2.2 1.2 1.4.2.2.1.2.1.1.2.1v.1l.2.2.1.1.1.1.5.5.1.1.6.6.2.2.2.2.1.1.3.3h.1l.3.3.2.2.3.3.2.2.2.1.4.3.2.3h.2l.1.2h.2v.2l.5.3.1.1.2.1.1.1.3.3.3.2h.1l.9.7h.1l.2.1.1.1.2.1.3.2.1.1.7.5h.2l.3.3h.2L152.9 356l.2.1.4.2.4.2.1.1 1 .5h.1l.3.2h.2l.4.2.2.1h.1l.1.1 1.1.5H157.8l.4.3h.2l.3.2h.4l.2.2h.3l1.7.5.8.2h.2l.3.1.7.2h.5l.5.1h.3l.3.1.7.1h1.1l.5.1h5.1l.5-.1h.3l.2-.1h.6l.2-.1h.3l.2-.1h.5l.3-.1.2-.1h.3l.2-.1 1-.2 1-.3.3-.1.3-.1h.2l.1-.1h.1l.3-.1h.1l.2-.1.2-.1h.2l.1-.1.4-.1.1-.1h.1l1.2-.5.3-.2h.1l.2-.1h.2l.3-.3h.1l1-.5h.1l.2-.2h.2l116-64.7.2-.1.4-.2.1-.1h.1l.4-.3.2-.1.4-.3.2-.1h.1l.2-.2.6-.4.2-.1v-.1h.2l.5-.5h.2v-.1l.2-.1v-.1h.2l.3-.4.2-.1.2-.1v-.1l.3-.2.2-.2h.1l.1-.1.1-.1.2-.2.1-.1.1-.1.1-.1.1-.1.2-.2h.1l.1-.2h.1l.4-.5h.1l.1-.2h.1l.3-.4.4-.4.7-.8.3-.3.2-.3.1-.1.1-.1.1-.1v-.1l.2-.2.1-.1.1-.2 1-1.3.1-.2v-.1l.2-.1.1-.3.2-.2v-.1l.3-.5.2-.3.1-.1.2-.4.1-.2.2-.3.2-.3v-.3l.1-.1.1-.1.1-.3.2-.3v-.2l.2-.2v-.1l.2-.3.2-.4v-.2l.2-.4v-.1l.2-.4v-.1l.3-.7.2-.5.2-.5V272.9l.2-.2v-.2l.2-.5v-.1l.2-.5V270.8l.1-.1v-.1l.1-.4v-.2l.1-.2V269.5l.1-.1v-.2l.1-.4v-.2l.1-.2V268.1l.2-1v-.6l.1-.1V265.5l.2-1.5V123.5l-.1-.2v-.8l-.1-.2v-.5l-.1-.2v-.5l-.1-.3v-.2l-.2-.5v-.5l-.5-1.8-.2-.7v-.3l-.1-.2-.3-1-.2-.4-.1-.3-.3-.7v-.2l-.2-.3-.3-.7v-.2l-.2-.2-.2-.5-.1-.2-.1-.2-.1-.3-.2-.2-.6-1-.4-.7v-.3l-.4-.4-.8-1.2-.7-1-.7-.8-.1-.2-.2-.2-.2-.2-.8-1-1-.9-.3-.3-1-.9-.2-.1-.4-.4-.1-.1-.3-.2-.4-.4h-.1l-.2-.2-.3-.2-.3-.2-.2-.2-.3-.2-.3-.2h-.1l-1-.7-.2-.1-.1-.1-113.2-66.4h-.2l-.1-.2-.3-.1-.2-.1-.1-.1h-.1l-.5-.3-.1-.1-1-.5h-.1l-.1-.1-.3-.2h-.2l-.2-.1-.3-.2h-.1l-.2-.1h-.1l-.2-.1-.1-.1h-.2l-.1-.1-.2-.1h-.1l-.2-.1h-.1l-.2-.2h-.2l-.3-.1-.1-.1-.3-.1h-.2l-.3-.2H181.9l-.2-.1-.3-.1h-.1l-.5-.2h-.2l-.4-.2h-.2l-.2-.1h-.1l-.2-.1-.5-.1h-.1l-.3-.2h-.2l-.5-.1H177.6l-.3-.1h-.2l-1-.3H175.4l-.3-.1H174.7l-.2-.1h-.1l-.8-.1h-.4l-.3-.1h-1.1l-.3-.1H169.2Z"/><path d="M97 310V102.6h43.3v75.5h71.9v-75.5h43.5v207.2h-43.5v-90.6h-72V310H97Z" style="fill-rule:nonzero" transform="translate(-3.8 -13.7)"/></svg>