<?xml version="1.0" encoding="UTF-8"?>
<svg width="100%" height="100%" viewBox="0 0 345 387" version="1.1" xmlns="http://www.w3.org/2000/svg" xmlns:xlink="http://www.w3.org/1999/xlink">
    <path d="M196.733998,7.42873598 L320.869983,78.9591561 C335.568987,87.4286451 344.61,103.005026 344.61,119.85211 L344.61,266.514197 C344.61,285.145942 334.46786,302.329447 318.081508,311.470646 L194.878631,380.20607 C178.529151,389.325376 158.538763,389.231412 142.277351,379.95882 L28.8178634,315.254642 C10.9902372,305.087578 0,286.260221 0,265.879947 L0,126.699853 C0,106.199795 10.7144348,87.1617573 28.3187589,76.389909 L139.857778,8.17048516 C157.227413,-2.4509813 179.088208,-2.73607806 196.733998,7.42873598 Z M136.35,90 L93,90 L93,297.22 L136.35,297.22 L136.35,206.61 L208.27,206.61 L208.27,297.22 L251.75,297.22 L251.75,90 L208.27,90 L208.27,165.48 L136.35,165.48 L136.35,90 Z" id="Combined-Shape"></path>
</svg>
