<svg xmlns="http://www.w3.org/2000/svg" viewBox="0 0 64 64" x="0px" y="0px"><g><rect x="11" y="40" width="2" height="2"></rect><rect x="17" y="40" width="2" height="2"></rect><path d="M23.846,52.506,19,50.351V48.908a7.971,7.971,0,0,0,3.75-4.942c.084.007.165.034.25.034a2.992,2.992,0,0,0,.376-5.962l1.331-1.331A1,1,0,0,0,25,36V33a5.006,5.006,0,0,0-5-5H4a1,1,0,0,0-.895,1.447L4.882,33l-.777,1.553a1,1,0,0,0,.188,1.154l2.331,2.331A2.992,2.992,0,0,0,7,44c.085,0,.167-.027.252-.035a7.994,7.994,0,0,0,2.091,3.692A7.765,7.765,0,0,0,11,48.893v1.458L6.154,52.506A7,7,0,0,0,2,58.9V61a1,1,0,0,0,1,1H27a1,1,0,0,0,1-1V58.9A7,7,0,0,0,23.846,52.506Zm-4.32.268-.234.936-1.582-.527-.368-.736.683-.341ZM15,50a7.921,7.921,0,0,0,2-.262v.644L15.764,51H14.236L13,50.382v-.644A7.927,7.927,0,0,0,15,50Zm-.783,3.8.4-.8h.764l.4.8L15,54.586Zm.088,2.912a.99.99,0,0,0,1.39,0L16.663,60H13.337ZM24,41a1,1,0,0,1-1,1V40A1,1,0,0,1,24,41ZM6.9,32.553,5.618,30H20a3,3,0,0,1,3,3v2.586L21.586,37h-.145a1,1,0,0,1-.948-.684l-.544-1.632a1,1,0,0,0-.651-.638A.98.98,0,0,0,19,34a1,1,0,0,0-.6.2l-1.866,1.4a7.051,7.051,0,0,1-4.2,1.4H8.414l-2.2-2.2L6.9,33.447A1,1,0,0,0,6.9,32.553ZM6,41a1,1,0,0,1,1-1v2A1,1,0,0,1,6,41Zm3.031,1.579A4.588,4.588,0,0,1,9,42V39h3.333a9.054,9.054,0,0,0,5.4-1.8l.757-.567.105.316A3,3,0,0,0,21,38.965V42a4.6,4.6,0,0,1-.036.614,6,6,0,0,1-8.542,4.8,5.865,5.865,0,0,1-1.665-1.171A5.992,5.992,0,0,1,9.031,42.579Zm2.944,9.527.683.341-.368.736-1.582.527-.234-.936ZM4,58.9a5,5,0,0,1,2.966-4.566L8.619,53.6l.411,1.643A1,1,0,0,0,10,56a.983.983,0,0,0,.316-.052l2.361-.787L11.252,60H4ZM26,60H18.748l-1.425-4.839,2.361.787A.983.983,0,0,0,20,56a1,1,0,0,0,.97-.758l.411-1.643,1.653.735A5,5,0,0,1,26,58.9Z"></path><rect x="44" y="15" width="2" height="2"></rect><rect x="50" y="15" width="2" height="2"></rect><path d="M34,24a5.969,5.969,0,0,0,2.89,5.116A6.978,6.978,0,0,0,35,33.9V35a1,1,0,0,0,1,1H60a1,1,0,0,0,1-1V33.9a6.972,6.972,0,0,0-1.894-4.785,5.98,5.98,0,0,0,.665-9.779A4,4,0,0,0,57,14.127V11a9,9,0,0,0-18,0v3.127a4,4,0,0,0-2.771,5.209A6.023,6.023,0,0,0,34,24ZM59,34H37v-.1a4.989,4.989,0,0,1,2.283-4.2,5.7,5.7,0,0,1,.683-.364l1.944-.863A7.8,7.8,0,0,0,48,31a7.8,7.8,0,0,0,6.091-2.53l1.955.869a5.529,5.529,0,0,1,.643.342A5,5,0,0,1,59,33.9ZM42,14h2.859a4.987,4.987,0,0,0,4.161-2.227l.136-.2.966.966A4.968,4.968,0,0,0,53.657,14H54v3a6,6,0,0,1-12,0Zm2.876,13.154c.038-.016.523-.237.523-.237A1,1,0,0,0,46,26V24.737a7.736,7.736,0,0,0,4,0V26a1,1,0,0,0,.587.911l1.586.7a6.986,6.986,0,0,1-8.344,0ZM58,18a2.077,2.077,0,0,1-.34,1.127A1,1,0,0,0,58,20.535a3.986,3.986,0,0,1-.657,7.216c-.157-.086-.322-.171-.5-.245L52,25.354V23.918A8,8,0,0,0,56,17V16A2,2,0,0,1,58,18ZM41,11a7,7,0,0,1,14,0v1H53.657a3.017,3.017,0,0,1-2.121-.879L49.707,9.293a1,1,0,0,0-1.539.152l-.813,1.219A2.991,2.991,0,0,1,44.859,12H41Zm-3,9.535a1,1,0,0,0,.338-1.408A2.077,2.077,0,0,1,38,18a2,2,0,0,1,2-2v1a8,8,0,0,0,4,6.918v1.43a.539.539,0,0,0-.052.03L39.166,27.5a5.349,5.349,0,0,0-.482.256A3.984,3.984,0,0,1,38,20.535Z"></path><path d="M59,40H35a3,3,0,0,0-3,3v4.382l-3.447,1.723a1,1,0,0,0-.26,1.6L32,54.414V59a3,3,0,0,0,3,3H59a3,3,0,0,0,3-3V43A3,3,0,0,0,59,40Zm1,19a1,1,0,0,1-1,1H35a1,1,0,0,1-1-1V54a1,1,0,0,0-.293-.707l-3.019-3.019L33.447,48.9A1,1,0,0,0,34,48V43a1,1,0,0,1,1-1H59a1,1,0,0,1,1,1Z"></path><path d="M47,48a3,3,0,1,0,3,3A3,3,0,0,0,47,48Zm0,4a1,1,0,1,1,1-1A1,1,0,0,1,47,52Z"></path><path d="M55,48a3,3,0,1,0,3,3A3,3,0,0,0,55,48Zm0,4a1,1,0,1,1,1-1A1,1,0,0,1,55,52Z"></path><path d="M39,48a3,3,0,1,0,3,3A3,3,0,0,0,39,48Zm0,4a1,1,0,1,1,1-1A1,1,0,0,1,39,52Z"></path><path d="M5,24H29a3,3,0,0,0,3-3V16.618L35.447,14.9a1,1,0,0,0,.26-1.6L32,9.586V5a3,3,0,0,0-3-3H5A3,3,0,0,0,2,5V21A3,3,0,0,0,5,24ZM4,5A1,1,0,0,1,5,4H29a1,1,0,0,1,1,1v5a1,1,0,0,0,.293.707l3.019,3.019-2.759,1.379A1,1,0,0,0,30,16v5a1,1,0,0,1-1,1H5a1,1,0,0,1-1-1Z"></path><path d="M17,16a3,3,0,1,0-3-3A3,3,0,0,0,17,16Zm0-4a1,1,0,1,1-1,1A1,1,0,0,1,17,12Z"></path><path d="M9,16a3,3,0,1,0-3-3A3,3,0,0,0,9,16Zm0-4a1,1,0,1,1-1,1A1,1,0,0,1,9,12Z"></path><path d="M25,16a3,3,0,1,0-3-3A3,3,0,0,0,25,16Zm0-4a1,1,0,1,1-1,1A1,1,0,0,1,25,12Z"></path></g></svg>