<?xml version="1.0" encoding="UTF-8" standalone="no"?>
<!DOCTYPE svg PUBLIC "-//W3C//DTD SVG 1.1//EN" "http://www.w3.org/Graphics/SVG/1.1/DTD/svg11.dtd">
<svg width="100%" height="100%" viewBox="0 0 256 283" version="1.1" xmlns="http://www.w3.org/2000/svg" xmlns:xlink="http://www.w3.org/1999/xlink" xml:space="preserve" xmlns:serif="http://www.serif.com/" style="fill-rule:evenodd;clip-rule:evenodd;stroke-linejoin:round;stroke-miterlimit:2;">
    <rect x="0" y="0" width="256" height="282.727" style="fill-opacity:0.01;"/>
    <path d="M246.399,139.203C246.399,123.218 234.882,109.88 219.711,107.031L256,0L84.466,0L120.81,107.248C106.167,110.507 95.183,123.593 95.183,139.203C95.183,150.926 101.378,161.223 110.663,167.009C106.197,173.662 100.901,179.923 94.832,185.648C85.208,194.728 74.485,201.614 62.925,206.144C51.282,198.83 46.36,185.038 51.472,173.022L51.872,172.082C52.122,171.494 52.373,170.904 52.623,170.314C65.411,165.855 74.616,153.682 74.616,139.392C74.616,121.337 59.927,106.649 41.872,106.649C23.817,106.649 9.129,121.337 9.129,139.392C9.129,148.505 12.874,156.757 18.902,162.699C17.809,165.029 16.66,167.397 15.479,169.823C9.967,181.144 3.72,193.976 1.357,208.225C-3.336,236.524 4.233,259.146 22.67,271.924C33.858,279.678 45.219,282.728 56.652,282.727C78.181,282.726 99.958,271.911 121.258,261.331C136.599,253.712 152.461,245.833 168.13,241.969C173.96,240.531 179.959,239.666 186.31,238.75C198.904,236.933 211.928,235.055 223.464,228.374C236.835,220.629 245.989,207.637 248.577,192.73C250.799,179.933 248.124,167.117 241.602,156.247C244.643,151.279 246.399,145.443 246.399,139.203ZM233.545,139.203C233.545,150.17 224.623,159.093 213.655,159.093C202.689,159.093 193.766,150.17 193.766,139.203C193.766,128.236 202.689,119.314 213.655,119.314C224.623,119.314 233.545,128.236 233.545,139.203ZM238.069,12.854L206.024,107.367C204.635,107.7 203.281,108.12 201.966,108.625L170.31,44.047L138.562,108.243C137.19,107.77 135.778,107.381 134.33,107.093L102.395,12.854L238.069,12.854ZM127.926,119.314C138.893,119.314 147.815,128.236 147.815,139.203C147.815,150.17 138.893,159.093 127.926,159.093C116.96,159.093 108.037,150.17 108.037,139.203C108.037,128.236 116.96,119.314 127.926,119.314ZM41.872,119.503C52.84,119.503 61.762,128.425 61.762,139.392C61.762,150.359 52.84,159.282 41.872,159.282C30.906,159.282 21.983,150.359 21.983,139.392C21.983,128.425 30.906,119.503 41.872,119.503ZM235.912,190.531C233.977,201.679 227.091,211.418 217.021,217.25C207.634,222.687 196.385,224.31 184.475,226.027C178.095,226.947 171.497,227.899 165.052,229.489C148.01,233.691 131.503,241.89 115.54,249.819C83.595,265.686 56.006,279.388 29.993,261.359C10.938,248.153 11.818,223.718 14.038,210.328C16.095,197.923 21.657,186.498 27.036,175.449C27.967,173.537 28.871,171.664 29.758,169.803C32.426,170.87 35.263,171.597 38.22,171.927C32.745,189.998 41.356,209.646 59.429,218.931L61.902,220.202L64.522,219.269C78.81,214.181 91.975,206.015 103.653,194.998C111.202,187.877 117.689,179.998 123.023,171.579C124.623,171.82 126.26,171.947 127.926,171.947C145.981,171.947 160.67,157.259 160.67,139.203C160.67,129.493 156.417,120.761 149.681,114.759L170.259,73.147L191.046,115.552C184.809,121.518 180.912,129.911 180.912,139.203C180.912,157.259 195.6,171.947 213.655,171.947C220.592,171.947 227.027,169.773 232.327,166.079C236.007,173.612 237.378,182.088 235.912,190.531Z" style="fill-rule:nonzero;"/>
</svg>
