<?xml version="1.0" encoding="UTF-8" standalone="no"?>
<!DOCTYPE svg PUBLIC "-//W3C//DTD SVG 1.1//EN" "http://www.w3.org/Graphics/SVG/1.1/DTD/svg11.dtd">
<svg width="100%" height="100%" viewBox="0 0 707 687" version="1.1" xmlns="http://www.w3.org/2000/svg" xmlns:xlink="http://www.w3.org/1999/xlink" xml:space="preserve" xmlns:serif="http://www.serif.com/" style="fill-rule:evenodd;clip-rule:evenodd;">
    <rect x="2.062" y="2.062" width="704.908" height="681.966" style="fill-opacity:0.01;"/>
    <g id="Combined-Shape" transform="matrix(1,0,0,1,1.06174,1.06156)">
        <path d="M349.986,1.06C357.802,0.665 365.592,2.223 372.643,5.591L617.018,122.279C629.829,128.397 639.134,139.968 642.299,153.716L702.674,415.966C705.84,429.721 702.515,444.157 693.643,455.185L524.58,665.498C515.706,676.508 502.261,682.914 488.049,682.904L216.83,682.966C202.612,682.966 189.167,676.551 180.299,665.529L11.174,455.248C10.228,454.062 9.342,452.831 8.518,451.56C1.65,441.053 -0.638,428.236 2.174,416.029L62.455,153.779C65.62,140.03 74.925,128.459 87.736,122.341L332.08,5.591C337.685,2.914 343.773,1.373 349.986,1.06ZM352.408,90.307C344.331,90.307 337.782,97.583 337.783,106.557C337.783,106.695 337.811,106.827 337.814,106.963C337.802,108.183 337.743,109.652 337.783,110.713C337.975,115.889 339.103,119.851 339.783,124.62C341.013,134.826 342.044,143.287 341.408,151.151C340.789,154.116 338.605,156.828 336.658,158.713L336.314,164.901C327.537,165.628 318.701,166.96 309.876,168.963C271.902,177.586 239.206,197.147 214.314,223.557C212.699,222.455 209.873,220.428 209.033,219.807C208.625,219.862 208.216,219.928 207.804,219.993L207.307,220.07C205.229,220.378 203.03,220.528 200.345,218.963C193.8,214.558 187.839,208.477 180.626,201.151C177.321,197.647 174.928,194.31 171.001,190.932C170.11,190.165 168.749,189.128 167.751,188.338C164.681,185.891 161.061,184.614 157.564,184.495C153.068,184.341 148.74,186.099 145.908,189.651C140.872,195.966 142.484,205.619 149.501,211.213C149.572,211.27 149.648,211.314 149.72,211.37C150.684,212.151 151.865,213.153 152.751,213.807C156.918,216.884 160.724,218.459 164.876,220.901C173.623,226.303 180.875,230.782 186.626,236.182C188.872,238.576 189.265,242.795 189.564,244.62L194.251,248.807C169.158,286.571 157.544,333.217 164.408,380.745L158.283,382.526C156.668,384.611 154.387,387.891 152.001,388.87C144.476,391.24 136.007,392.11 125.783,393.182C120.982,393.581 116.84,393.343 111.751,394.307C111.253,394.402 110.669,394.534 110.065,394.678L109.154,394.898C108.851,394.972 108.552,395.045 108.265,395.114L107.845,395.213C107.802,395.222 107.763,395.235 107.72,395.245C107.653,395.26 107.565,395.293 107.501,395.307C98.881,397.39 93.344,405.313 95.126,413.12C96.909,420.928 105.329,425.676 114.001,423.807C114.064,423.793 114.155,423.79 114.22,423.776C114.318,423.754 114.404,423.706 114.501,423.682C115.71,423.417 117.225,423.122 118.283,422.839C123.286,421.499 126.909,419.531 131.408,417.807C141.084,414.337 149.099,411.437 156.908,410.307C160.169,410.052 163.605,412.319 165.314,413.276L171.689,412.182C186.359,457.665 217.103,494.427 256.033,517.495L253.376,523.87C254.334,526.345 255.39,529.694 254.676,532.139C251.838,539.5 246.976,547.27 241.439,555.932C238.758,559.934 236.014,563.04 233.595,567.62C233.016,568.716 232.279,570.399 231.72,571.557C227.961,579.6 230.718,588.862 237.939,592.339C245.205,595.836 254.223,592.147 258.126,584.089L258.157,584.057L258.157,584.026C258.343,583.645 258.554,583.225 258.77,582.793L259.204,581.924C259.49,581.347 259.762,580.785 259.97,580.307C261.121,577.67 261.846,575.242 262.512,572.818L262.908,571.362C263.303,569.904 263.703,568.432 264.189,566.901C268.058,557.181 270.184,546.982 275.511,540.627C276.97,538.887 279.348,538.218 281.814,537.557L285.126,531.557C319.064,544.584 357.053,548.08 395.001,539.464C403.658,537.498 412.016,534.954 420.095,531.901C420.417,532.473 420.835,533.227 421.263,534.002L421.549,534.52C422.263,535.813 422.952,537.065 423.22,537.526C423.455,537.603 423.692,537.676 423.93,537.748L424.408,537.892C426.568,538.543 428.809,539.277 430.689,542.057C434.674,548.866 437.4,556.922 440.72,566.651C442.177,571.242 442.898,575.31 444.97,580.057C445.442,581.139 446.226,582.662 446.782,583.807C450.677,591.892 459.725,595.594 467.001,592.089C474.221,588.611 476.981,579.349 473.22,571.307C472.661,570.149 471.893,568.466 471.314,567.37C468.894,562.79 466.151,559.715 463.47,555.714C457.933,547.052 453.34,539.856 450.501,532.495C449.5,529.292 450.331,527.11 451.17,525.025L451.356,524.562C451.449,524.332 451.54,524.101 451.626,523.87C451.072,523.235 449.887,519.65 449.189,517.964C489.646,494.075 519.487,455.942 533.501,411.901C535.394,412.199 538.683,412.78 539.751,412.995C541.951,411.544 543.973,409.651 547.939,409.964C555.747,411.093 563.762,413.993 573.439,417.464C577.937,419.187 581.56,421.187 586.564,422.526C587.621,422.809 589.136,423.073 590.345,423.339C590.442,423.362 590.528,423.41 590.626,423.432C590.692,423.447 590.782,423.449 590.845,423.464C599.517,425.33 607.939,420.585 609.72,412.776C611.501,404.969 605.966,397.044 597.345,394.964C596.091,394.678 594.313,394.194 593.095,393.964C588.006,393 583.864,393.237 579.064,392.839C568.839,391.767 560.37,390.896 552.845,388.526C549.777,387.336 547.594,383.685 546.532,382.182L540.626,380.464C543.688,358.309 542.863,335.252 537.564,312.182C532.215,288.898 522.763,267.601 510.157,248.839C511.672,247.461 514.534,244.928 515.345,244.182C515.36,244.018 515.373,243.854 515.385,243.689L515.42,243.192C515.577,240.868 515.718,238.444 518.095,235.901C523.846,230.5 531.098,226.022 539.845,220.62C543.997,218.177 547.834,216.603 552.001,213.526C552.943,212.83 554.23,211.728 555.22,210.932C562.235,205.336 563.85,195.684 558.814,189.37C553.777,183.056 544.017,182.461 537.001,188.057C536.003,188.848 534.648,189.88 533.751,190.651C529.825,194.029 527.4,197.365 524.095,200.87C516.882,208.196 510.921,214.308 504.376,218.714C501.54,220.365 497.386,219.793 495.501,219.682L489.939,223.651C458.22,190.39 415.034,169.126 368.533,164.995C368.403,163.046 368.232,159.524 368.189,158.463C366.285,156.642 363.985,155.087 363.408,151.151C362.771,143.287 363.834,134.826 365.064,124.62C365.743,119.851 366.871,115.889 367.064,110.713C367.108,109.537 367.037,107.829 367.033,106.557C367.032,97.583 360.485,90.307 352.408,90.307ZM357.97,425.088C360.53,426.321 362.507,428.262 363.751,430.588L364.033,430.588L401.251,497.838C396.421,499.458 391.455,500.842 386.376,501.995C357.912,508.458 329.538,506.499 303.845,497.745L340.97,430.62L341.033,430.62C343.26,426.455 347.485,423.971 351.939,423.807C353.963,423.733 356.017,424.148 357.97,425.088ZM419.033,392.745L419.158,392.588L495.314,405.463C484.168,436.777 462.841,463.904 434.345,482.057L404.783,410.651L404.876,410.526C402.161,404.216 404.878,396.816 411.126,393.807C412.726,393.037 414.397,392.61 416.064,392.526L416.064,392.526C417.064,392.475 418.059,392.566 419.033,392.745ZM288.158,392.838C293.969,392.92 299.182,396.954 300.533,402.87C301.165,405.639 300.857,408.383 299.814,410.807L300.033,411.088L270.783,481.776C243.435,464.227 221.653,437.952 210.001,405.713L285.501,392.901L285.626,393.057C286.471,392.902 287.327,392.827 288.158,392.838ZM364.158,329.963L378.783,348.245L373.533,371.057L352.408,381.213L331.22,371.026L325.97,348.213L340.626,329.963L364.158,329.963ZM223.126,274.62L280.564,325.995L280.501,326.307C285.686,330.814 286.45,338.635 282.126,344.057C280.355,346.278 277.984,347.768 275.439,348.463L275.376,348.713L201.751,369.963C198.004,335.698 206.08,302.39 223.126,274.62ZM481.283,274.651C489.817,288.483 496.279,303.933 500.126,320.682C503.927,337.23 504.881,353.749 503.314,369.713L429.314,348.401L429.251,348.088C422.625,346.277 418.552,339.537 420.095,332.776C420.727,330.006 422.197,327.663 424.189,325.932L424.158,325.776L481.283,274.651ZM334.095,203.745L329.751,280.463L329.439,280.62C329.147,287.483 323.499,292.963 316.564,292.963C313.723,292.963 311.101,292.051 308.97,290.495L308.845,290.557L245.939,245.963C265.272,226.952 290.002,212.903 318.501,206.432C323.707,205.25 328.911,204.373 334.095,203.745ZM370.751,203.745C404.025,207.837 434.796,222.904 458.376,245.995L395.876,290.307L395.658,290.214C390.11,294.265 382.294,293.26 377.97,287.839C376.199,285.618 375.269,283.006 375.158,280.37L375.095,280.339L370.751,203.745Z" style=";stroke:rgb(50,108,229);stroke-width:1px;"/>
    </g>
</svg>
