<?xml version="1.0" encoding="UTF-8" standalone="no"?>
<!DOCTYPE svg PUBLIC "-//W3C//DTD SVG 1.1//EN" "http://www.w3.org/Graphics/SVG/1.1/DTD/svg11.dtd">
<svg width="100%" height="100%" viewBox="0 0 311 694" version="1.1" xmlns="http://www.w3.org/2000/svg" xmlns:xlink="http://www.w3.org/1999/xlink" xml:space="preserve" xmlns:serif="http://www.serif.com/" style="fill-rule:evenodd;clip-rule:evenodd;stroke-linejoin:round;stroke-miterlimit:2;">
    <rect x="0" y="0" width="310.726" height="693.916" style="fill-opacity:0.01;"/>
    <g transform="matrix(1,0,0,1,0.000215755,-1.0459)">
        <path d="M141.236,608.378C123.404,595.402 -8.018,493.804 0.386,323.673C8.945,141.183 116.187,51.515 136.914,35.294C150.435,20.875 150.884,15.465 151.787,1.046C152.105,1.727 152.41,2.705 152.702,3.956L152.686,2.853C152.686,2.853 162.603,28.082 172.964,42.501C182.427,62.779 268.491,115.499 304.985,276.354C333.363,442.199 249.571,543.481 205.836,583.797L205.859,584.112C205.859,584.112 205.552,584.266 204.996,584.569C194.002,594.627 185.662,600.743 182.481,602.976C178.132,608.303 174.477,614.671 172.964,621.964C167.554,645.396 171.157,694.962 171.157,694.962L152.686,688.648C152.686,688.648 153.898,638.052 141.236,608.378Z"/>
    </g>
</svg>
