<?xml version="1.0" encoding="UTF-8" standalone="no"?>
<!DOCTYPE svg PUBLIC "-//W3C//DTD SVG 1.1//EN" "http://www.w3.org/Graphics/SVG/1.1/DTD/svg11.dtd">
<svg width="100%" height="100%" viewBox="0 0 207 124" version="1.1" xmlns="http://www.w3.org/2000/svg" xmlns:xlink="http://www.w3.org/1999/xlink" xml:space="preserve" xmlns:serif="http://www.serif.com/" style="fill-rule:evenodd;clip-rule:evenodd;stroke-linejoin:round;stroke-miterlimit:1.41421;">
    <rect x="0" y="0.287" width="206.762" height="124.016" style="fill-opacity:0.0117647;"/>
    <g id="next-black">
        <g>
            <path id="EXT" d="M48.942,32.632L87.901,32.632L87.901,35.714L52.513,35.714L52.513,58.907L85.791,58.907L85.791,61.989L52.513,61.989L52.513,87.453L88.307,87.453L88.307,90.534L48.942,90.534L48.942,32.632ZM91.391,32.632L95.531,32.632L113.874,58.096L132.623,32.632L158.124,0.287L116.228,60.772L137.817,90.534L133.516,90.534L113.874,63.448L94.151,90.534L89.93,90.534L111.682,60.772L91.391,32.632ZM139.359,35.714L139.359,32.632L183.756,32.632L183.756,35.714L163.303,35.714L163.303,90.534L159.732,90.534L159.732,35.714L139.359,35.714Z" style=".svg?sprite;fill-rule:nonzero;"/>
            <path id="Type-something" d="M0.203,32.632L4.667,32.632L66.224,124.303L40.785,90.534L3.936,37.011L3.774,90.534L0.203,90.534L0.203,32.632Z" style=".svg?sprite;fill-rule:nonzero;"/>
        </g>
        <path d="M183.397,86.523C184.135,86.523 184.673,85.96 184.673,85.233C184.673,84.506 184.135,83.943 183.397,83.943C182.667,83.943 182.12,84.506 182.12,85.233C182.12,85.96 182.667,86.523 183.397,86.523ZM186.906,83.13C186.906,85.276 188.461,86.679 190.728,86.679C193.142,86.679 194.602,85.233 194.602,82.723L194.602,73.886L192.656,73.886L192.656,82.714C192.656,84.108 191.952,84.852 190.71,84.852C189.598,84.852 188.843,84.16 188.817,83.13L186.906,83.13ZM197.147,83.017C197.286,85.25 199.153,86.679 201.933,86.679C204.903,86.679 206.762,85.181 206.762,82.792C206.762,80.914 205.702,79.875 203.131,79.278L201.75,78.94C200.117,78.56 199.457,78.049 199.457,77.157C199.457,76.032 200.482,75.296 202.02,75.296C203.479,75.296 204.486,76.015 204.669,77.166L206.562,77.166C206.449,75.063 204.591,73.583 202.046,73.583C199.309,73.583 197.485,75.063 197.485,77.287C197.485,79.122 198.519,80.213 200.786,80.741L202.402,81.13C204.061,81.52 204.79,82.091 204.79,83.043C204.79,84.151 203.644,84.956 202.08,84.956C200.404,84.956 199.24,84.203 199.075,83.017L197.147,83.017Z" style=".svg?sprite;fill-rule:nonzero;"/>
    </g>
</svg>
