<?xml version="1.0" encoding="UTF-8" standalone="no"?>
<!DOCTYPE svg PUBLIC "-//W3C//DTD SVG 1.1//EN" "http://www.w3.org/Graphics/SVG/1.1/DTD/svg11.dtd">
<svg width="100%" height="100%" viewBox="0 0 96 49" version="1.1" xmlns="http://www.w3.org/2000/svg" xmlns:xlink="http://www.w3.org/1999/xlink" xml:space="preserve" xmlns:serif="http://www.serif.com/" style="fill-rule:evenodd;clip-rule:evenodd;stroke-linejoin:round;stroke-miterlimit:1.41421;">
    <g transform="matrix(1.03226,0,0,1.02083,0,0)">
        <rect x="0" y="0" width="93" height="48" style="fill-opacity:0.0117647;"/>
    </g>
    <path d="M7.579,10.123L21.783,10.123C25.952,10.158 28.973,11.36 30.846,13.727C32.719,16.094 33.337,19.327 32.701,23.426C32.454,25.299 31.906,27.136 31.058,28.938C30.245,30.74 29.115,32.365 27.666,33.814C25.899,35.651 24.009,36.817 21.995,37.312C19.981,37.807 17.896,38.054 15.741,38.054L9.381,38.054L7.367,48.124L0,48.124L7.579,10.123M13.78,16.165L10.6,32.065C10.812,32.1 11.024,32.118 11.236,32.118C11.483,32.118 11.731,32.118 11.978,32.118C15.37,32.153 18.197,31.818 20.458,31.111C22.719,30.369 24.239,27.79 25.016,23.373C25.652,19.663 25.016,17.525 23.108,16.96C21.235,16.395 18.886,16.13 16.059,16.165C15.635,16.2 15.229,16.218 14.84,16.218C14.487,16.218 14.116,16.218 13.727,16.218L13.78,16.165" style=".svg?sprite;fill-rule:nonzero;"/>
    <path d="M41.093,0L48.407,0L46.34,10.123L52.912,10.123C56.516,10.194 59.201,10.936 60.968,12.349C62.77,13.762 63.3,16.448 62.558,20.405L59.007,38.054L51.587,38.054L54.979,21.2C55.332,19.433 55.226,18.179 54.661,17.437C54.096,16.695 52.877,16.324 51.004,16.324L45.121,16.271L40.775,38.054L33.461,38.054L41.093,0" style=".svg?sprite;fill-rule:nonzero;"/>
    <path d="M70.412,10.123L84.616,10.123C88.785,10.158 91.806,11.36 93.679,13.727C95.552,16.094 96.17,19.327 95.534,23.426C95.287,25.299 94.739,27.136 93.891,28.938C93.078,30.74 91.948,32.365 90.499,33.814C88.732,35.651 86.842,36.817 84.828,37.312C82.814,37.807 80.729,38.054 78.574,38.054L72.214,38.054L70.2,48.124L62.833,48.124L70.412,10.123M76.613,16.165L73.433,32.065C73.645,32.1 73.857,32.118 74.069,32.118C74.316,32.118 74.564,32.118 74.811,32.118C78.203,32.153 81.03,31.818 83.291,31.111C85.552,30.369 87.072,27.79 87.849,23.373C88.485,19.663 87.849,17.525 85.941,16.96C84.068,16.395 81.719,16.13 78.892,16.165C78.468,16.2 78.062,16.218 77.673,16.218C77.32,16.218 76.949,16.218 76.56,16.218L76.613,16.165" style=".svg?sprite;fill-rule:nonzero;"/>
</svg>
