<?xml version="1.0" encoding="UTF-8" standalone="no"?>
<!DOCTYPE svg PUBLIC "-//W3C//DTD SVG 1.1//EN" "http://www.w3.org/Graphics/SVG/1.1/DTD/svg11.dtd">
<svg width="100%" height="100%" viewBox="0 0 381 398" version="1.1" xmlns="http://www.w3.org/2000/svg" xmlns:xlink="http://www.w3.org/1999/xlink" xml:space="preserve" xmlns:serif="http://www.serif.com/" style="fill-rule:evenodd;clip-rule:evenodd;stroke-linejoin:round;stroke-miterlimit:1.41421;">
    <rect x="0" y="0" width="380.092" height="397.125" style="fill-opacity:0.0117647;"/>
    <g transform="matrix(1,0,0,1,-25.071,-24.2677)">
        <path d="M194.739,263.023C197.741,250.562 203.42,239.355 208.158,227.891C217.906,204.306 217.741,178.724 213.349,154.034C211.736,144.971 209.965,135.737 204.304,128.818C198.073,121.202 188.062,117.694 178.186,117.623C177.961,117.622 177.736,117.623 177.511,117.624C164.023,117.767 150.566,122.359 138.634,129.169C140.501,102.635 147.749,75.189 165.347,54.55C179.316,38.167 199.608,29.917 220.224,29.126C256.629,27.729 292.509,43.924 316.376,71.15C327.991,84.401 337.526,99.601 343.092,116.141C327.85,114.593 311.848,115.316 301.056,124.367C292.988,131.133 289.946,142.021 290.276,152.246C290.892,171.379 298.901,188.657 307.23,205.329C312.594,216.065 319.366,226.02 323.983,236.84C328.126,246.547 334.884,254.126 340.632,262.366C340.632,262.366 338.471,262.998 337.029,263.562C327.883,267.144 322.937,276.358 322.166,285.464C321.963,287.863 321.782,290.439 322.054,292.882C319.877,320.031 316.188,346.803 312.024,373.695C310.531,383.335 308.732,393.437 303.396,401.665C298.719,408.877 291.056,413.616 283.049,416.491C272.296,420.351 258.355,423.854 246.37,419.085C230.865,412.914 226.046,397.282 224.276,382.341C220.677,351.97 221.177,320.884 221.998,290.284C223.637,276.951 212.206,262.799 198.962,262.532C198.347,262.527 197.732,262.55 197.12,262.611C196.297,262.694 195.504,262.833 194.739,263.023ZM198.692,274.996C196.491,275.033 194.692,276.877 193.245,278.494C188.065,284.284 183.969,291.285 177.782,295.572C168.109,302.275 154.677,301.678 144.315,306.484C144.315,306.484 149.861,309.489 154.681,310.563C169.882,313.953 187.027,312.282 199.399,301.953C206.522,296.007 212.885,287.406 206.374,279.196C204.501,276.834 201.582,274.984 198.692,274.996ZM146.446,258.515C137.357,268.201 128.546,278.123 119.931,288.205C114.112,295.014 109.299,302.852 101.523,305.591C96.953,307.2 92.057,305.496 88.351,302.819C76.933,294.574 70.703,281.416 64.784,268.78C49.259,235.64 39.844,199.761 32.212,163.868C29.259,149.976 26.05,136.141 25.317,122.051C24.036,95.901 27.43,69.255 43.492,51.287C53.919,39.623 69.313,33.241 84.93,31.078C109.845,27.626 136.324,32.016 161.329,40.576C137.668,63.503 128.165,98.128 126.032,131.437C125.806,134.975 125.476,138.559 125.766,141.994C125.719,142.365 125.697,142.744 125.702,143.131C125.911,158.238 127.174,172.942 126.038,187.754C125.657,192.733 124.925,197.672 124.403,202.648C122.121,224.373 131.337,245.319 146.446,258.515ZM347.452,273.349C343.988,274.502 340.205,274.972 337.73,277.619C334.236,281.353 334.316,287.002 334.513,291.707C334.513,291.707 337.518,293.278 340.246,293.784C358.315,297.138 378.549,292.629 392.112,284.869C396.199,282.531 400.128,279.877 403.568,276.668C403.568,276.668 401.738,277.035 399.746,277.415C384.374,280.306 367.791,282.795 353.708,276.845C351.576,275.944 349.543,274.792 347.732,273.348C347.732,273.348 347.813,273.224 347.452,273.349ZM177.785,130.088C164.583,130.169 151.398,135.171 140.542,142.638C139.559,143.314 138.215,144.405 138.215,144.405C139.073,163.832 139.604,183.187 136.984,202.396C133.466,229.589 152.126,259.919 182.565,260.074C182.565,260.074 182.873,259.074 183.164,258.009C188.089,240.181 198.43,223.902 202.096,205.507C205.84,186.723 203.52,167.209 199.564,148.452C198.272,142.329 195.703,136.116 190.22,132.924C186.531,130.777 182.107,130.08 177.785,130.088ZM278.091,27.768C313.408,20.227 352.507,24.255 380.841,45.893C391.371,53.934 401.462,63.699 403.744,75.121C406.622,89.526 404.649,104.749 402.02,119.469C393.651,166.328 374.506,211.489 348.591,252.107C347.884,251.225 347.159,250.353 346.44,249.475C349.881,243.766 352.504,237.537 354.112,231.051C358.509,213.321 354.466,194.69 353.144,176.339C351.905,159.158 357.507,142.362 356.984,125.095C356.975,124.821 356.959,124.552 356.935,124.288C357.228,122.974 357.227,121.578 357.033,120.276C356.346,115.662 354.719,111.317 353.011,107.019C343.382,82.79 327.011,60.65 306.17,44.364C297.57,37.644 288.103,32.094 278.091,27.768ZM338.602,237.702C336.819,234.406 335.201,231.056 333.474,227.765C322.692,207.212 308.921,185.538 304.025,161.959C302.457,154.41 301.307,145.487 305.455,138.233C307.906,133.949 312.298,131.275 316.958,129.846C325.69,127.169 335.189,127.616 344.525,128.838C344.425,133.737 343.862,138.596 343.142,143.437C340.925,158.157 339.991,172.397 341.633,186.625C343.621,203.651 345.633,222.198 338.602,237.702ZM179.461,137.025C186.357,137.113 195.757,140.215 193.169,145.892C191.145,150.329 185.659,152.648 181.056,151.943C175.452,151.084 170.076,145.699 170.445,141.53L170.679,139.623C171.061,138.054 175.006,136.928 178.972,137.027C179.216,137.025 179.216,137.025 179.461,137.025ZM332.967,137.384L332.972,137.418C333.01,137.733 332.998,137.755 332.991,137.901C332.883,140.132 331.167,142.13 329.406,143.698C324.814,147.788 316.762,147.547 312.931,142.458C312.843,142.34 312.757,142.22 312.676,142.098C310.761,139.218 314.496,135.985 318.421,134.856C320.708,134.199 323.099,133.889 325.468,133.909C328.627,133.97 332.521,134.531 332.967,137.384Z" style="fill:white;"/>
    </g>
</svg>
