<svg xmlns="http://www.w3.org/2000/svg" viewBox="0 0 64 64" x="0px" y="0px"><g data-name="Startup Website"><path d="M26.57,39.3A2,2,0,0,0,28.443,42h4.022l1.7,2.555A1,1,0,0,0,35,45h6a1,1,0,0,0,.832-.445L43.535,42h4.022a2,2,0,0,0,1.873-2.7l-1.52-4.053A5.029,5.029,0,0,0,44,32.061V28.185a4.944,4.944,0,0,0-.861-2.806C40.144,21,38.53,21,38,21s-2.144,0-5.139,4.378A4.949,4.949,0,0,0,32,28.185v3.876a5.029,5.029,0,0,0-3.91,3.184Zm13.9,3.7h-4.93l-.667-1h6.264Zm5.572-7.053L47.557,40H44V34.11A3.011,3.011,0,0,1,46.037,35.947ZM34,28.185a2.959,2.959,0,0,1,.511-1.677C36.41,23.733,37.624,23,38,23s1.59.733,3.489,3.508A2.959,2.959,0,0,1,42,28.185V40H34Zm-4.037,7.762A3.011,3.011,0,0,1,32,34.11V40H28.443Z"></path><path d="M38,47a4,4,0,0,0-4,4c0,2.06,1.558,6,4,6s4-3.94,4-6A4,4,0,0,0,38,47Zm0,8c-.748,0-2-2.505-2-4a2,2,0,0,1,4,0C40,52.5,38.748,55,38,55Z"></path><path d="M51,59a3.024,3.024,0,0,0-3.169-2.995A3,3,0,0,0,42,57h2a1,1,0,0,1,2,0,1.253,1.253,0,0,1-.014.167,1,1,0,0,0,1.508.971A.974.974,0,0,1,48,58a1,1,0,0,1,0,2H28a1,1,0,0,1,0-2,.974.974,0,0,1,.506.138,1,1,0,0,0,1.508-.971A1.253,1.253,0,0,1,30,57a1,1,0,0,1,2,0h2a3,3,0,0,0-5.831-.995A3.021,3.021,0,0,0,25,59a2.966,2.966,0,0,0,.184,1H22v2H54V60H50.816A2.966,2.966,0,0,0,51,59Z"></path><path d="M38,25a3,3,0,1,0,3,3A3,3,0,0,0,38,25Zm0,4a1,1,0,1,1,1-1A1,1,0,0,1,38,29Z"></path><rect x="49" y="43" width="2" height="4"></rect><rect x="49" y="49" width="2" height="2"></rect><rect x="53" y="45" width="2" height="4"></rect><rect x="53" y="51" width="2" height="2"></rect><rect x="25" y="43" width="2" height="4"></rect><rect x="25" y="49" width="2" height="2"></rect><rect x="21" y="45" width="2" height="4"></rect><rect x="21" y="51" width="2" height="2"></rect><path d="M59,2H5A3,3,0,0,0,2,5V55a3,3,0,0,0,3,3H23V56H5a1,1,0,0,1-1-1V12H60V55a1,1,0,0,1-1,1H53v2h6a3,3,0,0,0,3-3V5A3,3,0,0,0,59,2ZM4,10V5A1,1,0,0,1,5,4H59a1,1,0,0,1,1,1v5Z"></path><rect x="8" y="6" width="2" height="2"></rect><rect x="12" y="6" width="2" height="2"></rect><rect x="16" y="6" width="2" height="2"></rect><rect x="25" y="16" width="2" height="2"></rect><rect x="29" y="16" width="2" height="2"></rect><rect x="33" y="16" width="2" height="2"></rect><rect x="37" y="16" width="2" height="2"></rect><rect x="24" y="6" width="22" height="2"></rect><rect x="9" y="22" width="14" height="2"></rect><rect x="9" y="26" width="14" height="2"></rect><rect x="9" y="30" width="14" height="2"></rect></g></svg>