<?xml version="1.0" encoding="UTF-8" standalone="no"?>
<!DOCTYPE svg PUBLIC "-//W3C//DTD SVG 1.1//EN" "http://www.w3.org/Graphics/SVG/1.1/DTD/svg11.dtd">
<svg width="100%" height="100%" viewBox="0 0 502 508" version="1.1" xmlns="http://www.w3.org/2000/svg" xmlns:xlink="http://www.w3.org/1999/xlink" xml:space="preserve" xmlns:serif="http://www.serif.com/" style="fill-rule:evenodd;clip-rule:evenodd;stroke-linejoin:round;stroke-miterlimit:1.41421;">
    <g id="Layer_7" transform="matrix(1,0,0,1,-6.04573,-1.77861)">
        <g transform="matrix(1,0,0,1,6.04573,1.77861)">
            <rect x="0" y="0" width="501.489" height="507.031" style="fill-opacity:0.01;"/>
        </g>
        <path id="path1948_1_" d="M253.806,1.783C233.128,1.881 213.38,3.642 196.003,6.718C144.816,15.762 135.523,34.688 135.523,69.595L135.523,115.698L256.486,115.698L256.486,131.064L135.522,131.064L90.126,131.064C54.971,131.064 24.189,152.194 14.563,192.389C3.456,238.464 2.96,267.219 14.563,315.328C23.162,351.136 43.693,376.652 78.849,376.652L120.438,376.652L120.438,321.383C120.438,281.462 154.982,246.24 196.002,246.24L316.824,246.24C350.456,246.24 377.303,218.551 377.303,184.774L377.303,69.594C377.303,36.818 349.65,12.188 316.824,6.717C296.045,3.257 274.483,1.684 253.806,1.783ZM188.391,38.86C200.885,38.86 211.09,49.23 211.09,61.98C211.09,74.685 200.885,84.962 188.391,84.962C175.849,84.962 165.692,74.685 165.692,61.98C165.692,49.23 175.849,38.86 188.391,38.86Z" style="fill:white;fill-rule:nonzero;"/>
        <path id="path1950_1_" d="M392.387,131.062L392.387,184.774C392.387,226.422 357.084,261.466 316.825,261.466L196.002,261.466C162.908,261.466 135.522,289.793 135.522,322.935L135.522,438.121C135.522,470.898 164.025,490.184 196.002,499.584C234.293,510.843 271.006,512.884 316.824,499.584C347.275,490.772 377.303,473.023 377.303,438.121L377.303,392.016L256.485,392.016L256.485,376.652L437.781,376.652C472.938,376.652 486.041,352.133 498.263,315.328C510.892,277.433 510.356,240.993 498.263,192.389C489.576,157.396 472.982,131.064 437.781,131.064L392.387,131.064L392.387,131.062ZM324.438,422.75C336.977,422.75 347.136,433.019 347.136,445.725C347.136,458.474 336.977,468.849 324.438,468.849C311.945,468.849 301.742,458.474 301.742,445.725C301.741,433.019 311.944,422.75 324.438,422.75Z" style="fill:white;fill-rule:nonzero;"/>
    </g>
</svg>
