<?xml version="1.0" encoding="UTF-8" standalone="no"?>
<!DOCTYPE svg PUBLIC "-//W3C//DTD SVG 1.1//EN" "http://www.w3.org/Graphics/SVG/1.1/DTD/svg11.dtd">
<svg width="100%" height="100%" viewBox="0 0 462 339" version="1.1" xmlns="http://www.w3.org/2000/svg" xmlns:xlink="http://www.w3.org/1999/xlink" xml:space="preserve" xmlns:serif="http://www.serif.com/" style="fill-rule:evenodd;clip-rule:evenodd;stroke-linejoin:round;stroke-miterlimit:2;">
    <rect x="0" y="0" width="462" height="339" style="fill-opacity:0.01;"/>
    <path id="Combined-Shape" d="M462,0L462,274.79C440.6,296.26 419.13,317.66 397.61,339L0,339L0,63.39C21.08,42.18 42.34,21.13 63.5,0L462,0ZM122.37,71.33C109.48,79.69 101.85,93.92 97.24,108.18C91.28,127.14 90.02,147.21 90.16,166.97C90.43,185.25 92.01,203.79 97.89,221.21C101.48,231.51 106.73,241.64 115.09,248.88C125.97,258.37 140.34,262.67 154.44,264.36C166.21,265.66 178.19,265.81 189.9,263.89C198.56,278.11 207.15,292.38 215.78,306.62C225.92,301.97 236.02,297.27 246.15,292.6C238.09,279.54 229.87,266.58 221.81,253.52C233.01,245.48 241.5,233.9 245.96,220.86C252.62,201.69 253.53,181.13 253.501,161.01C253.26,141.03 251.16,120.73 244.01,101.93C239.59,90.48 232.96,79.41 222.76,72.24C208.72,62.13 190.94,59.16 174,58.95C156.21,58.79 137.5,61.32 122.37,71.33ZM310.03,70.683L294.13,70.69C294.1,84.71 294.14,98.72 294.11,112.74C286.72,112.77 279.34,112.73 271.95,112.76C271.93,121.86 271.93,130.96 271.95,140.05C279.34,140.08 286.73,140.05 294.12,140.07C294.13,162.74 294.11,185.4 294.13,208.07C294.35,220.62 294.76,233.63 299.81,245.32C302.63,252.19 309.11,256.8 316.06,258.86C330.783,263.518 346.247,261.36 361.207,258.859L362.753,258.599C363.525,258.469 364.296,258.339 365.064,258.209L366.6,257.95C366.12,249.59 365.63,241.22 365.12,232.86C356.77,233.01 348.43,233.5 340.08,233.53C335.65,233.38 330.21,232.23 328.19,227.75C325.42,221.94 325.56,215.3 325.3,209.01C325.18,186.03 325.28,163.05 325.25,140.07C338.79,140.04 352.32,140.08 365.86,140.05C366.12,130.95 366.37,121.85 366.6,112.75C353.05,112.74 339.5,112.76 325.95,112.74C325.92,98.72 325.96,84.71 325.93,70.69C315.33,70.68 304.73,70.68 294.13,70.69L310.03,70.683Z"/>
    <path id="path12" d="M160.51,87.7C170.8,86.36 181.6,86.72 191.34,90.61C199.23,93.73 205.93,99.84 209.47,107.58C214.9,119.31 216.98,132.26 218.03,145.05C219.17,162.07 219.01,179.25 216.66,196.17C215.01,206.24 212.66,216.85 205.84,224.79C198.92,232.76 188.25,236.18 178.01,236.98C167.21,237.77 155.82,236.98 146.07,231.87C140.38,228.84 135.55,224.09 132.73,218.27C129.31,211.3 127.43,203.69 126.11,196.07C122.13,171.91 121.17,146.91 126.61,122.89C128.85,113.83 132.11,104.53 138.73,97.7C144.49,91.85 152.51,88.83 160.51,87.7Z"/>
</svg>
