<svg xmlns="http://www.w3.org/2000/svg" viewBox="0 0 64 64" x="0px" y="0px"><g><path d="M53,12H47v2h6a3,3,0,0,1,3,3V40H8V17a3,3,0,0,1,3-3h6V12H11a5.006,5.006,0,0,0-5,5V45a5.006,5.006,0,0,0,5,5H23.867l-.75,6H21a2,2,0,0,0-2,2v2a2,2,0,0,0,2,2H43a2,2,0,0,0,2-2V58a2,2,0,0,0-2-2H40.883l-.75-6H53a5.006,5.006,0,0,0,5-5V17A5.006,5.006,0,0,0,53,12ZM43,60H21V58H43Zm-4.133-4H25.133l.75-6H38.117ZM53,48H11a3,3,0,0,1-3-3V42H56v3A3,3,0,0,1,53,48Z"></path><rect x="50" y="44" width="2" height="2"></rect><path d="M40,18a3,3,0,1,0,3,3A3,3,0,0,0,40,18Zm0,4a1,1,0,1,1,1-1A1,1,0,0,1,40,22Z"></path><path d="M24,18a3,3,0,1,0,3,3A3,3,0,0,0,24,18Zm0,4a1,1,0,1,1,1-1A1,1,0,0,1,24,22Z"></path><path d="M17,21a7,7,0,0,0,13.951.8,2.851,2.851,0,0,0,2.1,0,7,7,0,1,0,13.089-4.16l-2.986-9.2A3.842,3.842,0,0,0,42.067,6.59,6.054,6.054,0,0,0,41,5.821V5a3,3,0,0,0-3-3H37a3,3,0,0,0-3,3V6.527c-.049.044-.092.093-.14.138a2.934,2.934,0,0,0-3.72,0c-.048-.045-.091-.094-.14-.138V5a3,3,0,0,0-3-3H26a3,3,0,0,0-3,3v.822a6,6,0,0,0-1.067.768,3.788,3.788,0,0,0-1.071,1.8l-3,9.25A6.95,6.95,0,0,0,17,21Zm7,5a5,5,0,1,1,5-5A5.006,5.006,0,0,1,24,26Zm8-6a1,1,0,1,1,1-1A1,1,0,0,1,32,20Zm8,6a5,5,0,1,1,5-5A5.006,5.006,0,0,1,40,26Zm3.091-11.271A6.956,6.956,0,0,0,35,16.111V9a3.043,3.043,0,0,0-.058-.577,4,4,0,0,1,5.77-.362,1.925,1.925,0,0,1,.523.946ZM36,5a1,1,0,0,1,1-1h1a1,1,0,0,1,1,1v.093A6.058,6.058,0,0,0,38,5a6,6,0,0,0-2,.35ZM32,8a1,1,0,0,1,1,1v7.184a2.809,2.809,0,0,0-2,0V9A1,1,0,0,1,32,8ZM25,5a1,1,0,0,1,1-1h1a1,1,0,0,1,1,1v.35A6,6,0,0,0,26,5a6.058,6.058,0,0,0-1,.093ZM22.779,8.956a1.85,1.85,0,0,1,.509-.894,4,4,0,0,1,5.77.361A3.043,3.043,0,0,0,29,9v7.111a6.954,6.954,0,0,0-8.092-1.381Z"></path><rect x="33" y="32" width="2" height="2"></rect><rect x="37" y="32" width="2" height="2"></rect><rect x="29" y="32" width="2" height="2"></rect><rect x="25" y="32" width="2" height="2"></rect></g></svg>