<?xml version="1.0" encoding="UTF-8" standalone="no"?>
<!DOCTYPE svg PUBLIC "-//W3C//DTD SVG 1.1//EN" "http://www.w3.org/Graphics/SVG/1.1/DTD/svg11.dtd">
<svg width="100%" height="100%" viewBox="0 0 548 411" version="1.1" xmlns="http://www.w3.org/2000/svg" xmlns:xlink="http://www.w3.org/1999/xlink" xml:space="preserve" xmlns:serif="http://www.serif.com/" style="fill-rule:evenodd;clip-rule:evenodd;stroke-linejoin:round;stroke-miterlimit:1.41421;">
    <rect x="0" y="0" width="547.457" height="410.554" style="fill-opacity:0.01;"/>
    <path d="M471.4,236C452.3,236.1 435.7,240.7 421.8,247.5C416.7,237.4 411.6,228.4 410.7,221.8C409.7,214.1 408.5,209.4 409.7,200.2C410.9,191 416.3,177.9 416.2,176.9C416.1,175.9 415,171.2 404,171.1C393,171 383.5,173.2 382.4,176.1C381.3,179 379.2,185.6 377.8,192.4C375.9,202.4 355.8,238.1 344.3,256.8C340.6,249.5 337.4,243.1 336.7,238C335.7,230.3 334.5,225.6 335.7,216.4C336.9,207.2 342.3,194.1 342.2,193.1C342.1,192.1 341,187.4 330,187.3C319,187.2 309.5,189.4 308.4,192.3C307.3,195.2 306.1,202 303.8,208.6C301.5,215.2 274.8,274.8 267.8,290.2C264.2,298.1 261.1,304.4 258.9,308.7C258.9,308.7 258.8,309 258.5,309.5C256.6,313.2 255.5,315.2 255.5,315.2L255.5,315.3C254,318 252.4,320.5 251.6,320.5C251,320.5 249.9,313.3 251.8,303.5C255.8,282.8 265.3,250.6 265.2,249.5C265.2,248.9 267,243.3 259,240.4C251.2,237.5 248.4,242.3 247.7,242.3C247,242.3 246.5,244 246.5,244C246.5,244 255.2,207.8 229.9,207.8C214.1,207.8 192.3,225.1 181.5,240.7C174.7,244.4 160.2,252.3 144.7,260.8C138.8,264.1 132.7,267.4 127,270.5C126.6,270.1 126.2,269.6 125.8,269.2C95.2,236.5 38.6,213.4 41,169.5C41.9,153.5 47.4,111.5 149.7,60.5C233.9,19 300.9,30.5 312.5,56C329.1,92.4 276.6,160 189.6,169.8C156.4,173.5 139,160.7 134.6,155.9C130,150.9 129.3,150.6 127.6,151.6C124.8,153.1 126.6,157.6 127.6,160.2C130.2,167 140.9,179 159,184.9C175,190.1 213.9,193 261,174.8C313.7,154.4 354.9,97.7 342.8,50.2C330.7,2 250.7,-13.9 175,13C130,29 81.2,54.2 46.1,87C4.4,126 -2.2,159.9 0.5,174.1C10.2,224.5 79.7,257.3 107.5,281.6C106.1,282.4 104.8,283.1 103.7,283.7C89.8,290.6 36.8,318.3 23.6,347.6C8.6,380.8 26,404.6 37.5,407.8C73.2,417.7 109.9,399.9 129.6,370.5C149.3,341.1 146.9,302.9 137.8,285.4C137.7,285.2 137.6,285 137.4,284.8C141,282.7 144.7,280.5 148.3,278.4C155.4,274.2 162.4,270.3 168.4,267.1C165,276.4 162.5,287.5 161.3,303.5C159.8,322.3 167.5,346.7 177.6,356.3C182.1,360.5 187.4,360.6 190.8,360.6C202.6,360.6 207.9,350.8 213.8,339.2C221,325 227.5,308.5 227.5,308.5C227.5,308.5 219.4,353.1 241.4,353.1C249.4,353.1 257.5,342.7 261.1,337.4L261.1,337.5C261.1,337.5 261.3,337.2 261.7,336.5C262.5,335.2 263,334.4 263,334.4C263,334.4 263,334.3 263,334.2C266.2,328.6 273.4,315.9 284.1,294.8C297.9,267.6 311.2,233.6 311.2,233.6C311.2,233.6 312.4,241.9 316.5,255.7C318.9,263.8 323.9,272.7 327.9,281.3C324.7,285.8 322.7,288.3 322.7,288.3L322.8,288.4C320.2,291.8 317.4,295.5 314.3,299.1C303.4,312.1 290.4,327 288.6,331.3C286.5,336.4 287,340.1 291,343.1C293.9,345.3 299.1,345.6 304.4,345.3C314.2,344.6 321.1,342.2 324.5,340.7C329.8,338.8 336,335.9 341.8,331.6C352.5,323.7 359,312.4 358.4,297.5C358.1,289.3 355.4,281.1 352.1,273.4C353.1,272 354,270.6 355,269.2C371.9,244.5 385,217.4 385,217.4C385,217.4 386.2,225.7 390.3,239.5C392.3,246.5 396.4,254.1 400,261.5C384.1,274.4 374.3,289.4 370.8,299.2C364.5,317.4 369.4,325.6 378.7,327.5C382.9,328.4 388.9,326.4 393.3,324.5C398.9,322.7 405.5,319.6 411.8,315C422.5,307.1 432.8,296.1 432.2,281.2C431.9,274.4 430.1,267.7 427.6,261.2C441.1,255.6 458.5,252.5 480.7,255.1C528.3,260.7 537.7,290.4 535.9,302.9C534.1,315.4 524.1,322.2 520.8,324.3C517.5,326.4 516.4,327.1 516.7,328.6C517.1,330.8 518.7,330.7 521.5,330.3C525.4,329.6 546.5,320.2 547.4,297.2C548.9,267.8 520.9,235.7 471.4,236ZM104.2,359.8C88.4,377 66.4,383.5 56.9,378C46.7,372.1 50.7,346.7 70.1,328.5C81.9,317.4 97.1,307.1 107.2,300.8C109.5,299.4 112.9,297.4 117,294.9C117.7,294.5 118.1,294.3 118.1,294.3C118.9,293.8 119.7,293.3 120.5,292.8C127.6,318.8 120.8,341.7 104.2,359.8ZM219.2,281.6C213.7,295 202.2,329.3 195.2,327.4C189.2,325.8 185.5,299.8 194,274.1C198.3,261.2 207.4,245.8 212.7,239.8C221.3,230.2 230.8,227 233.1,230.9C236,236 222.6,273.2 219.2,281.6ZM314.1,327C311.8,328.2 309.6,329 308.6,328.4C307.9,328 309.6,326.4 309.6,326.4C309.6,326.4 321.5,313.6 326.2,307.8C328.9,304.4 332.1,300.4 335.5,295.9C335.5,296.3 335.5,296.8 335.5,297.2C335.5,312.5 320.7,322.8 314.1,327ZM387.3,310.3C385.6,309.1 385.9,305.1 391.6,292.6C393.8,287.7 399,279.5 407.9,271.6C408.9,274.8 409.6,277.9 409.5,280.8C409.4,300.1 395.6,307.3 387.3,310.3Z" style=".svg?sprite;fill-rule:nonzero;"/>
</svg>
