<?xml version="1.0" encoding="UTF-8" standalone="no"?>
<!DOCTYPE svg PUBLIC "-//W3C//DTD SVG 1.1//EN" "http://www.w3.org/Graphics/SVG/1.1/DTD/svg11.dtd">
<svg width="100%" height="100%" viewBox="0 0 580 607" version="1.1" xmlns="http://www.w3.org/2000/svg" xmlns:xlink="http://www.w3.org/1999/xlink" xml:space="preserve" xmlns:serif="http://www.serif.com/" style="fill-rule:evenodd;clip-rule:evenodd;stroke-linejoin:round;stroke-miterlimit:2;">
    <rect x="0" y="0" width="580" height="607" style="fill-opacity:0.01;"/>
    <g>
        <path d="M416.16,397.07C403.27,383.89 387.36,381.93 370.63,386C353.87,390.07 343.33,401.37 338.86,418.08C337.34,423.76 338.17,424.72 343.7,424.72C356.87,424.73 370.04,424.72 383.21,424.72C396.8,424.72 410.4,424.64 423.99,424.78C427.17,424.81 428.53,423.85 427.9,420.63C426.14,411.71 422.63,403.69 416.16,397.07Z" style="fill-rule:nonzero;"/>
        <path d="M579.87,89.8C579.67,88.32 578.81,86.24 577.68,85.77C576.58,85.31 574.26,86.11 573.35,87.13C528.32,137.64 483.39,188.24 438.42,238.82C421.3,258.08 404.15,277.31 386.97,296.52C382.38,301.65 379.43,301.69 374.66,296.77C343.89,265.07 313.14,233.35 282.41,201.62C278.07,197.14 278.01,194.88 281.94,189.83C291.49,177.53 301.05,165.24 310.62,152.96C315.06,147.27 318.54,147.14 323.35,152.46C340.16,171.04 356.95,189.65 373.8,208.2C379.01,213.94 381.17,213.79 385.67,207.61C434.15,141.19 482.63,74.78 531.02,8.3C532.2,6.68 533.13,4.08 532.66,2.34C532.38,1.3 529.15,0.52 527.25,0.52C353.8,0.44 180.34,0.45 6.89,0.39C3.91,0.39 1.68,1.16 0.04,3.6L0.04,603.5C2.19,606.14 5.01,606.61 8.3,606.61C196.06,606.55 383.81,606.56 571.57,606.56C579.12,606.56 579.66,606.02 579.66,598.25L579.66,285.61C579.66,222.6 579.66,159.59 579.68,96.58C579.68,94.31 580.16,92.01 579.87,89.8ZM262.28,464.7C261.19,486.43 253.05,504.72 236.11,518.71C224.06,528.66 210.05,534.67 194.83,537.39C183.06,539.5 171.07,540.43 159.18,541.88C122.28,541.45 89.55,530.37 61.21,506.75C56.46,502.79 56.24,500.74 59.85,495.61C66.69,485.89 73.57,476.19 80.5,466.53C83.93,461.75 87.06,461.29 91.42,465.13C107.68,479.43 126.5,488.38 147.87,491.49C163.85,493.82 179.8,493.97 194.5,485.56C201.07,481.8 205.75,476.39 206.96,468.76C208.36,459.96 204.65,452.61 195.62,448.52C187.06,444.63 178.03,441.59 168.97,439.01C154.6,434.91 139.8,432.19 125.61,427.56C114.55,423.95 103.6,419.27 93.55,413.42C74.01,402.04 64.59,384.31 63.27,361.64C61.81,336.65 71.5,317.09 90.36,301.61C102.3,291.81 116.32,285.95 131.33,283.12C163.41,277.07 194.75,279.69 224.35,294.2C233.68,298.77 242.23,305 250.91,310.81C255.19,313.67 255.45,316.46 252.59,320.51C245.65,330.33 238.65,340.12 231.57,349.85C228.53,354.03 225.26,354.46 221.04,351.24C206.14,339.84 189.47,332.54 170.93,329.74C159.41,328 147.83,327.38 136.5,331.03C127.65,333.88 120.99,339.03 118.98,348.77C117.57,355.59 119.72,361.06 125.14,365.2C133.22,371.36 142.92,373.67 152.46,376.28C170.28,381.16 188.24,385.62 205.92,390.95C217.74,394.51 228.72,400.2 238.4,408.05C256.42,422.7 263.43,441.96 262.28,464.7ZM469.99,458.54C448.89,458.55 427.8,458.55 406.7,458.55L343.41,458.55C338.19,458.55 338.01,458.81 339.28,463.87C345.38,488.2 369.22,503.91 393.85,500.93C409.32,499.06 423.68,494.99 436.63,486.2C439.78,484.06 442.81,484.54 445.08,487.84C450.14,495.18 455.25,502.48 460.2,509.9C462.66,513.58 462.14,516.05 458.51,518.6C441.28,530.68 422.27,538.09 401.25,540.13C385.98,541.61 370.71,542.08 355.83,537.58C319.41,526.58 295.92,502.65 288.12,465.4C282.09,436.59 286.18,408.81 304.02,384.22C320.45,361.57 342.71,348.3 370.36,345.16C393.22,342.56 415.2,346.17 434.8,359.39C456.14,373.79 468.3,394.35 473.42,419.07C475.61,429.65 476.05,440.61 476.92,451.43C477.33,456.86 475.38,458.53 469.99,458.54Z" style="fill-rule:nonzero;"/>
    </g>
</svg>
