<?xml version="1.0" encoding="UTF-8" standalone="no"?>
<!DOCTYPE svg PUBLIC "-//W3C//DTD SVG 1.1//EN" "http://www.w3.org/Graphics/SVG/1.1/DTD/svg11.dtd">
<svg width="100%" height="100%" viewBox="0 0 16 15" version="1.1" xmlns="http://www.w3.org/2000/svg" xmlns:xlink="http://www.w3.org/1999/xlink" xml:space="preserve" xmlns:serif="http://www.serif.com/" style="fill-rule:evenodd;clip-rule:evenodd;stroke-linejoin:round;stroke-miterlimit:1.41421;">
    <rect x="0" y="0" width="15.994" height="14.994" style="fill-opacity:0.0117647;"/>
    <path d="M7.984,0.001C7.995,0 8.004,0 8.025,0.001L8.032,0.001C8.034,0.001 8.036,0.001 8.038,0.001C8.041,0.002 8.045,0.002 8.048,0.003C9.391,0.121 10.724,0.337 12.062,0.504C12.062,0.504 12.215,0.505 12.376,0.671L15.876,4.671C15.989,4.814 16.021,4.987 15.972,5.148C15.953,5.233 15.91,5.312 15.842,5.374L8.392,14.81C8.182,15.05 7.828,15.061 7.608,14.81L0.19,5.415C0.121,5.364 0.092,5.298 0.058,5.234C0.058,5.233 0.057,5.231 0.056,5.23C-0.027,5.085 -0.041,4.945 0.076,4.735L2.538,0.796C2.6,0.642 2.736,0.527 2.939,0.504C2.943,0.504 2.946,0.503 2.95,0.502L7.87,0.011C7.902,0.004 7.94,0.001 7.984,0.001ZM11.245,5.5L4.783,5.5C5.931,8.014 6.929,10.596 7.981,13.153C8.997,10.573 10.155,8.05 11.245,5.5ZM9.977,11.189L14.468,5.5L12.346,5.5C11.619,7.421 10.8,9.306 9.977,11.189ZM3.668,5.5L1.532,5.5L5.963,11.113C5.186,9.248 4.447,7.365 3.668,5.5ZM2.783,2.291L1.404,4.497C2.048,4.493 2.693,4.486 3.338,4.477C3.142,3.751 2.957,3.022 2.783,2.291ZM12.525,2.359C12.531,3.039 12.527,3.718 12.514,4.398C13.127,4.408 13.74,4.424 14.352,4.448L12.525,2.359ZM5.161,4.447C7.035,4.414 8.909,4.378 10.781,4.382L8,1.253L5.161,4.447ZM6.763,1.126L3.639,1.439C3.862,2.259 4.07,3.083 4.264,3.91C5.077,2.965 5.924,2.049 6.763,1.126ZM9.302,1.167C10.039,1.981 10.755,2.815 11.475,3.644C11.469,2.909 11.473,2.174 11.489,1.44L9.302,1.167Z" style="fill:white;fill-rule:nonzero;"/>
</svg>
