<?xml version="1.0" encoding="UTF-8" standalone="no"?>
<!DOCTYPE svg PUBLIC "-//W3C//DTD SVG 1.1//EN" "http://www.w3.org/Graphics/SVG/1.1/DTD/svg11.dtd">
<svg width="100%" height="100%" viewBox="0 0 90 90" version="1.1" xmlns="http://www.w3.org/2000/svg" xmlns:xlink="http://www.w3.org/1999/xlink" xml:space="preserve" xmlns:serif="http://www.serif.com/" style="fill-rule:evenodd;clip-rule:evenodd;stroke-linejoin:round;stroke-miterlimit:2;">
    <g transform="matrix(0.987342,0,0,1,-5.15076,-5.299)">
        <rect x="11" y="5.299" width="79" height="87.701" style="fill-opacity:0.01;"/>
    </g>
    <g id="black-star" transform="matrix(1,0,0,1,-5.29,-5.299)">
        <path d="M5.29,49.994L5.29,49.994C5.29,42.768 11.159,36.909 18.393,36.909C13.274,31.793 13.274,23.505 18.393,18.385C23.495,13.275 31.79,13.275 36.89,18.385C36.89,11.158 42.751,5.299 49.986,5.299C57.227,5.299 63.086,11.158 63.086,18.385C68.206,13.275 76.502,13.275 81.599,18.385C86.7,23.503 86.7,31.79 81.599,36.909C88.815,36.909 94.68,42.767 94.68,49.994L94.68,49.994L88.679,49.994L88.679,49.993C88.679,46.085 85.501,42.906 81.601,42.906C79.644,42.906 77.88,43.702 76.59,44.982L62.101,44.982L72.335,34.734C74.155,34.734 75.973,34.037 77.35,32.662C80.121,29.89 80.121,25.401 77.35,22.635C74.601,19.864 70.106,19.864 67.326,22.635C65.951,24.022 65.26,25.828 65.26,27.64L55.003,37.893L55.003,23.405C56.274,22.119 57.088,20.356 57.09,18.384C57.09,14.473 53.912,11.305 49.993,11.305C46.072,11.305 42.897,14.476 42.897,18.384C42.897,20.354 43.709,22.12 44.979,23.407L44.979,37.895L34.744,27.643C34.744,25.833 34.036,24.024 32.661,22.638C29.89,19.867 25.407,19.867 22.634,22.638C19.859,25.405 19.859,29.893 22.634,32.665C24.014,34.039 25.849,34.736 27.646,34.736L37.902,44.982L23.414,44.982C22.124,43.702 20.339,42.906 18.399,42.906C14.48,42.906 11.303,46.085 11.303,49.993L11.303,49.994L5.29,49.994Z" style="fill-rule:nonzero;"/>
    </g>
    <g transform="matrix(1,0,0,1,-5.29,-5.299)">
        <path d="M94.68,90.736L94.68,49.994L5.29,49.994L5.29,90.736C5.29,93.09 7.2,95 9.554,95L90.416,95C92.77,95 94.68,93.09 94.68,90.736ZM18.312,72.927C16.209,70.82 14.905,67.899 14.905,64.674C14.905,58.229 20.128,53.002 26.571,53.002C33.017,53.002 38.238,58.227 38.238,64.674L31.406,64.674C31.406,62 29.238,59.837 26.571,59.837C23.908,59.837 21.733,62 21.733,64.674C21.733,66.012 22.282,67.21 23.148,68.094C24.031,68.968 25.249,69.499 26.571,69.499L26.571,69.511C29.803,69.511 32.716,70.82 34.814,72.927C36.932,75.038 38.238,77.961 38.238,81.175C38.238,87.629 33.017,92.855 26.571,92.855C20.129,92.855 14.905,87.633 14.905,81.175L21.733,81.175C21.733,83.854 23.908,86.01 26.571,86.01C29.238,86.01 31.406,83.854 31.406,81.175C31.406,79.846 30.861,78.648 29.977,77.768C29.113,76.888 27.895,76.35 26.571,76.35C23.341,76.35 20.429,75.036 18.312,72.927ZM73.255,69.513L84.938,69.513L84.938,81.177C84.938,87.629 79.712,92.855 73.269,92.855C66.828,92.855 61.603,87.629 61.603,81.177L61.603,64.676L61.586,64.676C61.586,58.229 66.827,53 73.253,53C79.712,53 84.936,58.225 84.936,64.676L78.087,64.676C78.087,62.002 75.935,59.839 73.253,59.839C70.606,59.839 68.433,62.002 68.433,64.676L68.433,81.177C68.433,83.852 70.606,86.014 73.253,86.014C75.935,86.014 78.087,83.852 78.087,81.187L78.087,76.348L73.253,76.348L73.255,69.513ZM61.588,53.005L53.344,92.854L46.494,92.854L38.236,53.005L45.082,53.005L49.92,76.342L54.755,53.005L61.588,53.005Z"/>
    </g>
</svg>
