<?xml version="1.0" encoding="UTF-8" standalone="no"?>
<!DOCTYPE svg PUBLIC "-//W3C//DTD SVG 1.1//EN" "http://www.w3.org/Graphics/SVG/1.1/DTD/svg11.dtd">
<svg width="100%" height="100%" viewBox="0 0 100 100" version="1.1" xmlns="http://www.w3.org/2000/svg" xmlns:xlink="http://www.w3.org/1999/xlink" xml:space="preserve" xmlns:serif="http://www.serif.com/" style="fill-rule:evenodd;clip-rule:evenodd;stroke-linejoin:round;stroke-miterlimit:2;">
    <rect x="0" y="0" width="99.55" height="99.642" style="fill-opacity:0.01;"/>
    <path id="path2" d="M82.775,79.842L64.9,49.775L82.775,19.708L91.392,49.775L82.775,79.842ZM42.992,76.908L20.533,54.633L56.283,54.633L74.158,84.7L42.992,76.908ZM42.992,22.55L74.067,14.758L56.192,44.825L20.442,44.825L42.992,22.55ZM88.642,0L48.033,10.542L41.983,20.9L29.792,20.808L0,49.775L29.792,78.742L41.983,78.65L48.033,89.008L88.642,99.642L99.55,60.133L93.408,49.867L99.55,39.6L88.642,0Z"/>
</svg>
