<?xml version="1.0" encoding="UTF-8" standalone="no"?>
<!DOCTYPE svg PUBLIC "-//W3C//DTD SVG 1.1//EN" "http://www.w3.org/Graphics/SVG/1.1/DTD/svg11.dtd">
<svg width="100%" height="100%" viewBox="0 0 169 170" version="1.1" xmlns="http://www.w3.org/2000/svg" xmlns:xlink="http://www.w3.org/1999/xlink" xml:space="preserve" xmlns:serif="http://www.serif.com/" style="fill-rule:evenodd;clip-rule:evenodd;stroke-linejoin:round;stroke-miterlimit:2;">
    <ellipse cx="84.3" cy="85" rx="84.3" ry="85" style="fill-opacity:0.01;"/>
    <g transform="matrix(1,0,0,1,-31.2,-0.3)">
        <path d="M152,110.2C149,110.2 147.8,108.4 147.8,108.4C147.6,107.6 147.4,95.7 147.3,83.9C147.2,71.6 147.3,59.4 147.9,59.3C151.4,52.8 162.4,39.7 162.4,39.7C141.8,43.8 130.6,57.3 130.6,57.3C127.3,54.7 120.5,55.1 120.5,55.1C123.7,56.8 126.8,61.9 126.8,66.1L126.8,107.5C126.8,107.5 119.9,113.6 114.6,113.6C111.4,113.6 109.5,111.9 108.4,110.5C107.7,109.5 107.4,108.7 107.4,108.7L107.4,57.6C106.7,58.1 105.8,58.5 104.9,58.5C103.8,58.5 102.6,57.9 101.8,56.3C101.2,55 100.8,53.2 100.8,50.4C100.8,41 111.5,34.7 111.5,34.7C98,38.3 85.4,45.3 68.7,64.5C52,83.7 55.2,99.5 55.2,99.5C55.2,99.5 59.7,88.5 70.8,77C76.1,71.6 80,69.8 82.7,69.7C85.7,69.7 87.1,71.9 87.1,73.9L87.1,112.8C87.1,116.6 84.6,117.5 82.3,117.4C80.4,117.4 78.6,116.7 78.6,116.7C90,133.2 117.2,135.6 117.2,135.6L129.2,122.8L129.5,123L140.5,132.3C160.5,120.4 170.2,98.3 170.2,98.3C161.1,108 155.4,110.2 152,110.2"/>
    </g>
    <g transform="matrix(1,0,0,1,-31.2,-0.3)">
        <path d="M115.6,5.2C136.8,5.2 156.8,13.5 171.8,28.7C186.8,43.8 195.1,64 195.1,85.4C195.1,106.8 186.8,126.9 171.8,142.1C156.8,157.2 136.8,165.6 115.6,165.6C94.4,165.6 74.4,157.3 59.4,142.1C44.4,127 36.1,106.8 36.1,85.4C36.1,64 44.4,43.9 59.4,28.7C74.4,13.5 94.3,5.2 115.6,5.2M115.6,1.5C69.6,1.5 32.4,39 32.4,85.3C32.4,131.6 69.6,169.1 115.5,169.1C161.4,169.1 198.6,131.6 198.6,85.3C198.7,39 161.5,1.5 115.6,1.5"/>
    </g>
</svg>
