<svg xmlns="http://www.w3.org/2000/svg" viewBox="0 0 64 64" x="0px" y="0px"><g><path d="M62,52V13a5,5,0,0,0-5-5H43.89A7.048,7.048,0,0,0,40,6.08V5a3.009,3.009,0,0,0-3-3H29a3.009,3.009,0,0,0-3,3v5H7a5,5,0,0,0-5,5V49a5,5,0,0,0,5,5H30v2H13a1,1,0,0,0-1,1v4a1,1,0,0,0,1,1H61a1,1,0,0,0,1-1V57a1,1,0,0,0-1-1H59.08l2.7-3.38A.977.977,0,0,0,62,52ZM44,13a5,5,0,1,1-5-5A5,5,0,0,1,44,13ZM28,5a1,1,0,0,1,1-1h8a1,1,0,0,1,1,1V6.08a6.991,6.991,0,0,0,0,13.84V27H28ZM40,29v2H26V29Zm-8.59,7L29,33.59V33h8v.59L34.59,36ZM34,38v2H32V38Zm-4.5-1.08-1.45,1.44-1.41-1.41,1.45-1.45Zm8.41-1.42,1.45,1.45-1.41,1.41L36.5,36.91ZM24,49v3H7a3.009,3.009,0,0,1-3-3V20H24V18H4V15a3.009,3.009,0,0,1,3-3H26V27H25a1,1,0,0,0-1,1v4a1,1,0,0,0,1,1h2v.76l-1.78,1.77a2.028,2.028,0,0,0,0,2.84l1.41,1.41a2.028,2.028,0,0,0,2.84,0l.53-.53V40a2.006,2.006,0,0,0,2,2h2a2.006,2.006,0,0,0,2-2v-.76l.53.54a2.028,2.028,0,0,0,2.84,0l1.41-1.41a2.028,2.028,0,0,0,0-2.84L39,33.76V33h2a1,1,0,0,0,1-1V28a1,1,0,0,0-1-1H40V19.92A7.048,7.048,0,0,0,43.89,18h3.7l.41.41V46H47a3.009,3.009,0,0,0-3,3v3H42V49a1,1,0,0,0-1-1H40V46h2V44H24v2h2v2H25A1,1,0,0,0,24,49Zm20,5v2H36V54Zm-6-8v2H28V46ZM26,52V50H40v2Zm8,2v2H32V54Zm26,4v2H14V58Zm0-6.35L56.52,56H46V49a1,1,0,0,1,1-1h6a1,1,0,0,0,1-1V22a1.033,1.033,0,0,0-.29-.71l-5-5A1.033,1.033,0,0,0,48,16H45.32a6.958,6.958,0,0,0,0-6H57a3.009,3.009,0,0,1,3,3ZM50,46V20.41l2,2V46Z"></path><circle cx="55" cy="15" r="2"></circle><circle cx="39" cy="13" r="2"></circle><rect x="8" y="14" width="2" height="2"></rect><rect x="12" y="14" width="2" height="2"></rect><rect x="16" y="14" width="2" height="2"></rect><rect x="8" y="22" width="2" height="2"></rect><rect x="12" y="22" width="10" height="2"></rect><rect x="8" y="26" width="14" height="2"></rect><rect x="8" y="30" width="14" height="2"></rect><path d="M13,36H9a1,1,0,0,0-1,1v4a1,1,0,0,0,1,1h4a1,1,0,0,0,1-1V37A1,1,0,0,0,13,36Zm-1,4H10V38h2Z"></path><path d="M19.707,38.293A1,1,0,0,0,19,38H16v2h2.586l2.707,2.707,1.414-1.414Z"></path></g></svg>