<?xml version="1.0" encoding="UTF-8"?>
<svg width="100%" height="100%" viewBox="0 0 612 612" version="1.1" xmlns="http://www.w3.org/2000/svg" xmlns:xlink="http://www.w3.org/1999/xlink">
    <title>webassembly</title>
    <g id="Page-1" stroke="none" stroke-width="1" fill-rule="evenodd">
        <path d="M235.66,0 L235.66,3.3 L235.669399,4.46027691 C236.288935,42.675258 267.4576,73.47 305.83,73.47 C344.58,73.47 376,42.06 376,3.3 L376,3.3 L376,0 L612,0 L612,612 L0,612 L0,0 L235.66,0 L235.66,0 Z M182.72,329.81 L142.16,329.81 L188.68,546.5 L229.68,546.5 L261.59,399.03 L262.37,399.03 L292.18,546.5 L332.43,546.5 L384.12,329.81 L344.34,329.81 L312.78,479.09 L312.19,479.09 L282.13,329.81 L244.19,329.81 L210.91,477.28 L210.41,477.28 L182.72,329.81 Z M493.79,329.81 L429.85,329.81 L377.39,546.5 L418.14,546.5 L428.8,498.28 L501.64,498.28 L515.45,546.5 L557.29,546.5 L493.79,329.81 Z M471.25,383.22 L491.56,462.72 L436.5,462.72 L454.19,383.22 L471.25,383.22 Z"></path>
    </g>
</svg>
